<svg width="67" height="84" viewBox="0 0 67 84" fill="none" xmlns="http://www.w3.org/2000/svg">
<path d="M64.2492 40.0022C64.3907 41.0023 65.7247 41.2214 66.172 40.3172C66.2155 40.23 66.2359 40.1294 66.2504 40.0331C73.3577 -6.16228 7.07807 -15.7999 0.0166059 30.0708C0.00555519 30.1494 0 30.228 0 30.3075C0 31.845 1.88234 32.5666 2.89052 31.4144L10.9367 22.2209C11.2624 21.8485 11.7303 21.6352 12.2219 21.6352C13.1695 21.6352 13.9378 22.4121 13.9378 23.3701V23.4697C13.9378 23.9094 13.7816 24.3342 13.4975 24.6672L2.18121 37.9361C1.72578 38.4695 1.36112 39.0763 1.10207 39.7312C0.705698 40.7325 0.567216 41.8193 0.699599 42.8899L0.81946 43.8591C0.93628 44.8041 1.18382 45.7269 1.55481 46.6022L2.44465 48.7006C2.47386 48.7699 2.51586 48.8321 2.56832 48.8856C2.79841 49.1182 3.17224 49.115 3.39907 48.8797L19.992 31.6981C20.1035 31.5822 20.2308 31.4544 20.4047 31.3106C20.6332 31.1216 20.8973 30.9838 21.1685 30.866C22.3632 30.3487 23.658 31.351 23.4741 32.652C23.4232 33.0124 23.2577 33.3464 23.003 33.6041L7.056 50.1226C6.04241 51.1473 5.64225 52.5 5.79756 53.5991C5.91265 54.4134 6.24142 55.1821 6.74973 55.8239L7.96446 57.3585C9.3637 58.7734 11.6096 58.8448 13.0944 57.5226L28.6827 41.8324C29.0287 41.4841 29.4196 41.185 29.845 40.9429C30.4571 40.5942 31.1485 40.2974 31.828 40.4777C32.8523 40.7495 33.5047 41.6382 33.124 42.7924C32.9026 43.4637 32.4777 44.0366 31.9793 44.5335L14.9343 61.5237C14.3017 62.074 13.9378 62.8752 13.9378 63.7191C13.9378 64.1681 14.0413 64.6118 14.2403 65.0144L14.6582 65.8588C14.8412 66.2288 15.0569 66.5811 15.3025 66.9123L16.1758 68.0895C16.3422 68.3138 16.5393 68.5131 16.7612 68.6815C17.754 69.4339 19.1083 69.4724 20.1408 68.7758L22.8977 66.9183L29.3689 61.887L36.8355 55.8493L41.8135 51.3208L43.8381 49.2739C44.4751 48.63 45.0055 47.8863 45.4085 47.0721C45.9902 45.8961 46.2932 44.598 46.2932 43.2826V43.1296C46.2932 41.895 46.0451 40.6722 45.5637 39.537L45.4504 39.2694C45.0196 38.253 44.4332 37.3123 43.7131 36.48L41.3156 33.7107L40.3882 32.3984C39.3635 30.9484 38.7121 29.263 38.4935 27.4938C38.3842 26.6103 38.3842 25.7167 38.4935 24.8332L38.5856 24.0876C38.7442 22.8056 39.1958 21.5789 39.9044 20.5042L40.2125 20.0372C40.612 19.4315 41.1263 18.9112 41.7257 18.5077C43.8217 17.0959 46.6014 17.3172 48.4524 19.044L51.7687 22.1384L57.7424 27.6729L60.1136 30.0699C60.5232 30.4845 60.9035 30.9274 61.2508 31.3951C61.8956 32.2646 62.4244 33.2155 62.8235 34.224L63.2178 35.2202L63.7153 37.2328L64.2135 39.7486L64.2492 40.0022Z" fill="white"/>
<path d="M39.788 79.0472L36.8356 82.0129C34.8488 83.7345 31.9016 83.6791 29.9788 81.8849L26.4965 78.6355C23.4153 75.7617 23.8508 70.7205 27.3777 68.4279L33.3511 63.8994L40.3199 57.8617L46.2932 51.3212L47.7887 49.558C48.7695 48.4006 49.47 47.0293 49.8357 45.5522C50.1266 44.3766 50.1991 43.157 50.0506 41.9552L50.0157 41.6739C49.8585 40.3997 49.4873 39.1619 48.9192 38.0129L48.2846 36.7298L47.3203 35.0242C46.637 33.8156 45.8499 32.6703 44.9683 31.6008L44.2098 30.6811C43.9401 30.353 43.6955 30.0057 43.4787 29.6396L43.0451 28.9101C42.5649 28.1009 42.3109 27.175 42.3109 26.2311V25.9655C42.3109 25.1101 42.5614 24.2749 43.0306 23.5635L43.835 22.3439C44.127 21.9011 44.6182 21.6355 45.1439 21.6355C45.561 21.6355 45.9612 21.8025 46.256 22.1014L47.2889 23.1449L49.2799 25.1575L49.8083 25.6243C52.1078 27.6591 54.2602 29.8569 56.2489 32.2015L57.5507 33.7805C58.3394 34.7373 59.016 35.7829 59.5671 36.8969L59.5848 36.9322C60.0148 37.8016 60.3641 38.7091 60.6283 39.644C61.025 41.0487 61.2265 42.502 61.2265 43.9629V44.9745C61.2265 46.8502 60.9991 48.7188 60.5491 50.5391L60.2312 51.824L60.1532 52.0598C59.5432 53.9102 58.7349 55.6865 57.7424 57.3585L56.2489 59.8742L52.7644 64.4026L49.2799 68.4279L45.2976 72.956L42.3109 76.4784L39.788 79.0472Z" fill="white"/>
</svg>
