<svg width="40" height="40" viewBox="0 0 40 40" fill="none" xmlns="http://www.w3.org/2000/svg">
<g clip-path="url(#clip0_10:175)">
<path d="M34.8842 31.8503C34.4684 30.8524 33.6368 30.5197 33.221 30.4365L27.6493 26.8607C27.5661 26.7775 26.5682 26.0291 25.0713 26.2786C23.824 26.5281 22.6597 27.3597 21.7449 28.8565C21.3291 29.4386 20.8301 29.605 20.5806 29.605C19.8321 29.605 18.2522 29.2723 15.1752 26.1123L15.0089 25.946C14.5931 25.6134 12.431 22.9522 11.1004 21.3722C11.1004 21.289 9.52032 18.9605 11.5994 17.2974C14.1773 15.1352 13.512 12.8067 12.8468 11.892L9.18772 6.48655C8.52243 5.57177 7.02556 4.2412 5.52868 5.07279C5.11289 5.23909 1.86965 6.90235 0.622263 10.5614C-0.292517 13.2225 0.0401688 16.2994 1.70334 19.6258C6.52666 29.3555 20.248 38.1705 20.8301 38.5032L20.9133 38.5864C21.0796 38.6695 24.1566 40.0001 27.3998 40.0001C29.6452 40.0001 32.0567 39.3348 33.5537 37.1727C35.0505 34.9272 35.4664 33.0977 34.8842 31.8503ZM32.1399 36.1745C29.4788 40.3326 22.2439 37.4219 21.5786 37.0893C20.6638 36.424 7.60765 27.8586 3.03392 18.8773C1.62015 15.9667 1.28755 13.3056 2.03603 11.0603C3.11703 7.90015 6.11078 6.48647 6.11078 6.48647L6.19397 6.40328C6.52666 6.15378 7.35824 6.98537 7.60774 7.31806L11.2668 12.7235C11.35 12.8066 12.3479 14.2203 10.352 15.8835C7.77404 17.9625 8.68882 20.8731 9.60351 22.2037C10.0193 22.7026 13.0962 26.528 13.6783 27.027L13.8446 27.1933C16.5889 30.1038 18.7511 31.3513 20.5806 31.1849C21.5785 31.1018 22.4101 30.6028 22.9923 29.6881C23.6576 28.607 24.406 28.0249 25.1544 27.8585C25.9028 27.7753 26.485 28.108 26.5681 28.1911L32.3061 31.8501L32.4724 31.9333H32.6387C32.6387 31.9333 33.1377 32.0165 33.304 32.4323C33.4705 32.765 33.6368 33.8461 32.1399 36.1745Z" fill="#0B225C"/>
<path d="M39.8738 16.4657C39.8738 7.40127 32.3895 0 23.1586 0C18.9175 0 14.8427 1.58007 11.7657 4.49062L12.93 5.73801C15.7574 3.16005 19.4165 1.74637 23.2418 1.74637C31.5579 1.74637 38.2938 8.39916 38.2938 16.5488C38.2938 20.3742 36.7969 24.1164 34.0526 26.8606L35.2169 28.0249C38.2938 24.948 39.957 20.8731 39.8738 16.4657Z" fill="#0B225C"/>
<path d="M24.0758 0.947664L22.4128 0.966125L22.4561 4.87409L24.1191 4.85563L24.0758 0.947664Z" fill="#0B225C"/>
<path d="M39.0957 15.7569L35.0215 15.8005L35.0393 17.4634L39.1135 17.4198L39.0957 15.7569Z" fill="#0B225C"/>
<path d="M22.1607 16.632L23.8239 14.9688C24.3229 14.4698 24.6555 14.054 24.8218 13.7214C24.9881 13.3887 25.0713 13.0561 25.0713 12.7234C25.0713 12.0582 24.8218 11.5592 24.406 11.2266C23.9902 10.8108 23.4912 10.6445 22.9091 10.6445C22.327 10.6445 21.828 10.7277 21.4954 10.9771C21.1628 11.1434 20.8302 11.4761 20.4976 11.975L21.4123 12.5571C21.7449 11.975 22.2439 11.6423 22.826 11.6423C23.1586 11.6423 23.4081 11.7255 23.6576 11.9749C23.9071 12.2244 23.9902 12.4739 23.9902 12.7233C23.9902 12.9728 23.8239 13.3054 23.6576 13.5549C23.4081 13.8044 23.0755 14.137 22.6597 14.6359L20.5808 16.7981V17.7961H25.3209V16.6318H22.1607V16.632Z" fill="#0B225C"/>
<path d="M30.2273 14.9688V13.7214H29.1462V14.9688V15.0519H27.4829L29.9778 10.8939H28.7304L26.1524 15.0519V16.0498H29.1462V17.7962H30.2273V16.0498H31.0589V14.9688H30.2273Z" fill="#0B225C"/>
</g>
<defs>
<clipPath id="clip0_10:175">
<rect width="40" height="40" fill="white"/>
</clipPath>
</defs>
</svg>
