<svg width="92" height="40" viewBox="0 0 92 40" fill="none" xmlns="http://www.w3.org/2000/svg">
<path fill-rule="evenodd" clip-rule="evenodd" d="M82.7886 26.847L76.1812 26.489C76.4915 26.5225 76.8828 26.6187 77.5454 26.8174C78.1759 27.0065 78.6918 27.1865 78.6918 27.2173C78.6918 27.2482 78.5937 27.2946 78.4738 27.3203C78.3195 27.3535 77.8536 27.2469 76.8802 26.9559C76.1236 26.7296 75.4887 26.5291 75.4694 26.5102L71.1488 26.4759L71.4249 27.1364C71.5767 27.4996 71.7009 27.8141 71.7009 27.8353C71.7009 27.8564 71.4076 27.8737 71.0491 27.8737C70.5399 27.8737 70.3662 27.9012 70.2554 27.9994C70.1412 28.1005 70.0887 28.1078 69.9863 28.0367C68.5673 27.0505 66.8083 26.5743 65.2685 26.7595C64.0051 26.9115 62.9456 27.314 61.9679 28.0134C61.481 28.3618 61.4123 28.3887 61.0109 28.3887C60.6116 28.3887 60.5749 28.3745 60.531 28.2036C60.4647 27.9449 60.152 27.7266 59.8481 27.7266C59.6482 27.7266 59.5126 27.7993 59.2303 28.0576L58.8687 28.3887H57.2435H55.6182L55.5021 28.169C55.4383 28.0482 55.3059 27.9297 55.2078 27.9056C55.0505 27.867 55.0196 27.797 54.9461 27.313C54.9048 27.0417 54.8692 26.7314 54.8626 26.62L53.4845 26.651C53.4644 26.7368 53.4061 27.0446 53.3549 27.3351C53.2747 27.7902 53.2377 27.8692 53.0865 27.9063C52.9901 27.93 52.8365 28.0482 52.7452 28.169L52.5793 28.3887H50.451H48.3228V23.1615V23.0754C48.3228 18.2266 48.3228 17.6562 48.0692 17.5104C48.0354 17.4909 47.9971 17.479 47.9536 17.4656L47.9478 17.4637C47.7988 17.4175 47.7966 17.3593 47.7963 13.4306C47.7961 9.61223 47.7899 9.43448 47.6499 9.20973C47.5153 8.99372 47.1537 8.82076 46.834 8.81944C46.7544 8.81907 46.7383 8.09955 46.7489 5.00459C46.7589 2.06796 46.7402 1.15053 46.6676 1.01789C46.5455 0.794601 46.5466 0.318895 46.6695 0.173961C46.7224 0.111573 46.7523 0.0497741 46.7362 0.036605C46.6509 -0.0324775 46.1985 0.168002 45.9991 0.363258C45.5566 0.796366 45.5415 0.952261 45.5415 5.08029C45.5415 8.02201 45.5215 8.81907 45.4475 8.81944C45.3959 8.81966 45.2249 8.85475 45.0677 8.89749C44.7091 8.99498 44.4898 9.32163 44.4894 9.75871L44.4891 10.0731L44.3012 9.95257L44.1132 9.83206V5.75368L44.1132 5.55993C44.1133 1.9814 44.1133 1.4444 43.8531 1.25888C43.8071 1.22613 43.7531 1.20433 43.6895 1.17869L43.67 1.17084C43.5289 1.1136 43.3248 1.09874 43.1215 1.13089C42.3031 1.26008 37.2631 2.16441 35.5062 2.49731C27.6045 3.99462 23.9455 5.9421 22.8728 9.22143L22.7051 9.73428L22.1147 9.71383C21.4276 9.68999 20.3642 9.79888 19.7203 9.95897C19.1236 10.1074 18.1451 10.5822 17.7471 10.9164C17.4852 11.1363 17.4276 11.2308 17.4276 11.4402C17.4276 11.7825 17.5868 12.0631 17.9498 12.3608L18.251 12.6079L17.851 14.4839C17.631 15.5157 17.3703 16.833 17.2717 17.4112C17.1151 18.3299 17.0733 18.4666 16.9405 18.4958C16.857 18.5142 15.4356 18.6134 13.7818 18.7163C6.43315 19.1737 5.32476 19.3045 4.33717 19.8306C3.9326 20.0461 3.46722 20.5181 3.39971 20.7813C3.36393 20.9208 3.29432 20.9435 2.8091 20.974C1.96628 21.027 1.4343 21.3846 1.20225 22.0542C1.09513 22.3633 1.07994 28.1403 1.18548 28.412C1.25366 28.5874 1.24487 28.5929 0.84233 28.6256C0.522178 28.6516 0.383864 28.7035 0.227434 28.8565C0.0313132 29.0482 0.0249989 29.0814 0.00485316 30.0271C-0.0186001 31.1288 0.0301105 31.2936 0.440092 31.5007C0.660868 31.6123 0.855936 31.6296 1.67936 31.611C2.82045 31.5853 3.11444 31.4807 3.48345 30.9689C3.69002 30.6823 3.70904 30.6048 3.70979 30.0452C3.71054 29.4539 3.72009 29.4207 4.01048 29.0066C4.46624 28.3566 5.30965 27.5604 6.02746 27.1025C6.78127 26.6215 7.27732 26.3964 8.17118 26.1294C8.76239 25.9527 8.93837 25.9348 10.1361 25.9297C11.704 25.923 12.2761 26.0417 13.4845 26.6243C16.1692 27.9189 17.8246 30.6058 17.717 33.4943C17.7018 33.9034 17.7204 34.2008 17.7612 34.2008C17.7999 34.2008 18.9501 34.1175 20.317 34.0157C22.7596 33.8337 22.8052 33.8274 22.9679 33.6478C23.1621 33.4334 23.3489 33.4139 23.4832 33.5938C23.5701 33.7101 23.7809 33.7247 25.6671 33.7443C27.6712 33.7653 27.7632 33.7601 27.9629 33.6156C28.2464 33.4105 28.571 33.4174 28.6666 33.6306C28.8009 33.9302 29.4789 33.8954 29.5585 33.5848C29.5833 33.4882 29.6696 33.3922 29.7501 33.3716C29.8908 33.3356 29.8976 33.3874 29.9201 34.6563C29.9415 35.8654 29.956 35.9875 30.0895 36.0829C30.1989 36.1611 30.4978 36.1872 31.2839 36.1872C32.1867 36.1872 32.3455 36.2047 32.4265 36.313C32.4958 36.4058 32.6631 36.4468 33.062 36.4689C33.5251 36.4945 33.6347 36.4763 33.8189 36.343C34.029 36.191 34.1011 36.1872 36.7811 36.1872C38.2918 36.1872 39.5278 36.215 39.5278 36.2489C39.5278 36.5025 40.6706 36.5699 40.9766 36.3343C41.1483 36.2021 41.2816 36.1872 42.2879 36.1872C43.1357 36.1872 43.4435 36.1618 43.5539 36.0829C43.6842 35.9899 43.7024 35.8674 43.7243 34.9426L43.7487 33.9065L44.927 33.9125C45.5751 33.9158 49.0795 33.9903 52.7148 34.0781L59.3244 34.2376L59.4539 34.7525C60.0091 36.9601 61.6424 38.7251 63.7711 39.4178C64.6963 39.7189 65.4254 39.819 66.3262 39.7687C68.4691 39.649 70.4306 38.5227 71.5863 36.7483C71.9789 36.1453 72.2156 35.5972 72.4155 34.827L72.5872 34.1657L73.0441 34.0341C73.4825 33.9077 73.5244 33.9077 74.0782 34.0332L74.6554 34.164L74.8338 34.8261C75.4729 37.1979 77.23 38.94 79.6314 39.5829C80.5072 39.8174 82.0841 39.8187 82.9642 39.5858C84.1226 39.2793 85.0707 38.7596 85.9357 37.9573C86.929 37.036 87.539 35.9075 87.8933 34.3355C87.9287 34.1783 88.0133 34.1145 88.3166 34.0159C88.6652 33.9025 88.7161 33.9021 88.9483 34.0099C89.2772 34.1627 89.3047 34.1606 89.8863 33.9378C90.5669 33.6772 90.6439 33.5721 90.6439 32.9051C90.6439 32.4065 90.6566 32.3615 90.7976 32.3615C90.8822 32.3615 91.036 32.2787 91.1394 32.1776C91.2838 32.0362 91.4051 31.9937 91.6636 31.9937H92L91.9797 30.4303L91.9594 28.8669L91.1745 28.8458C90.3686 28.8241 90.1929 28.767 90.1929 28.5269C90.1929 28.3987 90.1213 28.3887 89.2047 28.3887H88.2164L87.8549 28.0576C87.5867 27.8121 87.4328 27.7266 87.2595 27.7266C86.9281 27.7266 86.7386 27.8472 86.6149 28.1371C86.5136 28.3746 86.487 28.3887 86.1425 28.3887C85.8316 28.3887 85.7231 28.3464 85.4106 28.103C84.8999 27.7053 84.1125 27.2947 83.3957 27.0524L82.7886 26.847ZM46.7943 0.579113C46.7943 0.464122 46.8515 0.284611 46.9213 0.180288C47.075 -0.0493251 47.1879 -0.0572708 47.4482 0.143061C47.8207 0.429765 47.6397 1.16768 47.197 1.16768C47.0095 1.16768 46.7943 0.853162 46.7943 0.579113ZM46.3684 5.50833C46.4165 5.50833 46.4435 4.83391 46.4435 3.63228C46.4435 2.43066 46.4165 1.75624 46.3684 1.75624C46.3202 1.75624 46.2932 2.43066 46.2932 3.63228C46.2932 4.83391 46.3202 5.50833 46.3684 5.50833ZM43.3615 9.77541V5.80261C43.3615 3.61757 43.3531 1.83297 43.3427 1.8368C43.3324 1.84062 42.8673 1.92398 42.3091 2.02205C34.7096 3.35728 32.4361 3.8293 30.2647 4.52256C26.8225 5.62155 24.8126 6.94648 23.9244 8.70209C23.7383 9.06987 23.5788 9.46995 23.5701 9.59119L23.554 9.81161L25.5615 9.96184C26.6656 10.0445 27.5866 10.1294 27.6081 10.1505C27.6939 10.2345 24.4828 10.4591 22.4641 10.5103C20.746 10.5539 20.2398 10.5901 19.9084 10.6933C19.4787 10.827 18.6274 11.2277 18.3682 11.4181C18.2216 11.5259 18.2214 11.5306 18.3612 11.6817C18.4394 11.7663 18.6843 11.9193 18.9052 12.0216L19.3069 12.2076V14.9411C19.3069 17.5633 19.3005 17.6875 19.1498 17.9921C18.9428 18.4107 18.6086 18.6695 17.8986 18.9614C17.1601 19.265 16.9282 19.2914 12.5791 19.5661C6.92221 19.9235 5.72129 20.0515 4.93951 20.3807C4.59658 20.5251 4.13188 20.9184 4.21186 20.9966C4.23433 21.0186 6.12413 21.1356 8.41142 21.2566C10.6987 21.3776 12.5805 21.4867 12.5931 21.4991C12.6057 21.5114 10.3752 21.5645 7.63634 21.6171C3.89148 21.689 2.59636 21.7366 2.41392 21.8092C2.28042 21.8623 2.10234 22.0152 2.01815 22.1492C1.86991 22.3849 1.8657 22.4859 1.88495 25.3113L1.90487 28.2299L2.08708 28.4196C2.18736 28.524 2.29523 28.6094 2.32688 28.6094C2.35852 28.6094 2.39491 27.7404 2.40769 26.6782L2.43106 24.747L2.64109 24.3284C2.90817 23.7961 3.53352 23.2303 4.10384 23.0049L4.53584 22.8341H8.89575C13.1666 22.8341 13.2692 22.8375 13.9172 22.9992C16.6263 23.6751 18.5719 25.8168 18.8968 28.4807L18.9483 28.9037H24.5809H30.2135L30.398 28.7231L30.5825 28.5425V19.8848C30.5825 13.2774 30.6042 11.1554 30.6744 10.9243C30.7952 10.5261 31.3495 9.98361 31.7564 9.86531C31.9882 9.79799 33.4824 9.77541 37.7136 9.77541H43.3615ZM47.0449 27.6576V18.643V9.62827H46.1425H45.2402L45.2593 18.6222L45.2784 27.6162L46.1616 27.637L47.0449 27.6576ZM44.4515 11.1021L44.1684 10.825L43.8852 10.5479L38.0044 10.5305L37.1849 10.5279C32.4365 10.5131 31.8551 10.5113 31.6147 10.7913C31.5812 10.8303 31.5543 10.8749 31.5236 10.9257C31.5115 10.9457 31.4989 10.9666 31.485 10.9886C31.3364 11.224 31.3342 11.3472 31.3342 19.6069C31.3342 27.5818 31.3408 27.9985 31.4715 28.237C31.5471 28.3749 31.7242 28.5482 31.8651 28.6221C32.1067 28.749 32.4472 28.7566 37.9116 28.7566C43.3761 28.7566 43.7166 28.749 43.9582 28.6221C44.0991 28.5482 44.2766 28.3744 44.3525 28.2359C44.4846 27.995 44.4898 27.6159 44.4711 19.5431L44.4515 11.1021ZM46.4617 18.8246C46.4511 14.758 46.4595 11.3866 46.4806 11.3327C46.5016 11.2787 46.561 11.2484 46.6127 11.2652C46.687 11.2895 46.7066 12.8552 46.7066 18.7571C46.7066 25.3403 46.6933 26.2184 46.5939 26.2184C46.4945 26.2184 46.4788 25.3394 46.4617 18.8246ZM20.0962 12.0395C20.1789 11.9291 20.3818 11.7719 20.5472 11.69C20.8375 11.5463 20.9825 11.5412 24.7596 11.5412C28.6673 11.5411 28.6717 11.5412 29.005 11.7066C29.2027 11.8046 29.4007 11.9771 29.4908 12.1297C29.6404 12.383 29.6432 12.5108 29.663 20.0018L29.6832 27.6164L29.5127 27.9431C29.4189 28.1228 29.2467 28.3379 29.13 28.4212C28.9218 28.5698 28.8382 28.5726 24.7642 28.5726H20.6107L20.337 28.3684C20.1661 28.2408 20.033 28.0614 19.9823 27.8902C19.9259 27.6997 19.908 25.2736 19.9235 19.9281C19.9455 12.3737 19.9485 12.2366 20.0962 12.0395ZM29.0812 12.5618L28.8604 12.3457L28.6396 12.1297H24.7727C20.9744 12.1297 20.9022 12.1324 20.7077 12.2822L20.5096 12.4346V20.0778V27.7208L20.6742 27.8708C20.8353 28.0178 20.9176 28.0209 24.7626 28.0209C28.514 28.0209 28.6944 28.0147 28.864 27.8803L29.0415 27.7396L29.0613 20.1507L29.0812 12.5618ZM21.1159 13.0035C21.1599 12.923 21.2699 12.8279 21.3602 12.7923C21.4505 12.7567 23.0059 12.7254 24.8165 12.7229L28.1087 12.7182L28.2932 12.8988L28.4777 13.0794V15.2196V17.3599L28.291 17.5426L28.1043 17.7253L24.7137 17.7048L21.3231 17.6842L21.1795 17.5105C21.0456 17.3487 21.0358 17.1948 21.0358 15.2434C21.0358 13.9029 21.0646 13.0973 21.1159 13.0035ZM17.4652 21.9145C16.3259 21.9145 16.2712 21.8442 17.0706 21.4069C17.6732 21.0772 17.788 21.0556 18.0987 21.2129C18.329 21.3294 18.4048 21.4592 18.4048 21.7366V21.9145H17.4652ZM25.9342 21.7394C25.9194 21.6634 25.9527 21.5728 26.0085 21.5382C26.1235 21.4669 27.8761 21.4494 28.0581 21.5178C28.1235 21.5423 28.177 21.6425 28.177 21.7405V21.9184L27.0692 21.8981C26.0537 21.8794 25.9591 21.8662 25.9342 21.7394ZM16.5256 22.7238V22.5031V22.2824H17.4652H18.4048V22.5031V22.7238H17.4652H16.5256ZM17.7828 23.7733C17.5249 23.7631 16.5256 23.2759 16.5256 23.1603C16.5256 23.1214 16.9338 23.0916 17.4652 23.0916C18.3986 23.0916 18.4048 23.0927 18.4048 23.2628C18.4048 23.5147 18.0757 23.7848 17.7828 23.7733ZM18.244 28.7198C18.0954 26.2209 16.3386 24.1402 13.8638 23.532C13.3053 23.3948 13.011 23.386 9.01527 23.3867L4.76136 23.3874L4.37317 23.5643C3.89058 23.7842 3.45271 24.2055 3.21457 24.6791C3.03859 25.029 3.0316 25.105 3.00822 26.9179L2.98394 28.7946L3.21494 28.9617L3.44587 29.1288V27.1747C3.44587 25.0691 3.46353 24.9539 3.8663 24.4372C3.97094 24.3029 4.23208 24.1025 4.44654 23.9918L4.83653 23.7906H9.04609L9.29022 23.7906C12.6827 23.7904 13.4507 23.7904 14.1328 24.0278C14.3323 24.0973 14.5246 24.1871 14.7731 24.3032L14.8342 24.3317C16.6631 25.1849 17.7364 26.8653 17.8678 29.0814L17.9162 29.8969L23.9022 29.9157L29.8883 29.9346L29.9242 29.7506L29.9601 29.5667L24.1261 29.5479L18.2921 29.5291L18.244 28.7198ZM6.18306 24.8411C6.23966 24.6828 6.22576 24.6099 6.11646 24.4917C6.00543 24.3716 5.88523 24.3423 5.50314 24.3423C5.08173 24.3423 5.01423 24.3627 4.90719 24.5227C4.75767 24.7459 4.82495 24.9896 5.05136 25.0452C5.14337 25.0678 5.41955 25.0761 5.66506 25.0638C6.07421 25.0432 6.11744 25.0246 6.18306 24.8411ZM5.65115 28.1382C6.58064 27.361 8.0276 26.7151 9.19643 26.5554C12.6299 26.0865 15.9036 28.1732 16.8254 31.4179C17.5222 33.871 16.8105 36.3965 14.9297 38.1452C13.527 39.4492 11.7522 40.0874 9.7978 39.9904C6.81404 39.8423 4.40617 37.9366 3.5051 35.01C3.31304 34.3862 3.24208 32.9286 3.36686 32.1714C3.61621 30.6588 4.49736 29.1029 5.65115 28.1382ZM59.7663 28.8621C60.0257 28.5843 60.1284 28.4167 60.1113 28.2989C60.0698 28.0124 59.7812 28.0421 59.4729 28.3647C58.2656 29.628 57.6413 31.0835 57.5173 32.9234C57.4739 33.5682 57.479 33.5994 57.6419 33.6847C57.9178 33.8292 57.9998 33.6602 58.0898 32.7626C58.2563 31.1024 58.7525 29.9477 59.7663 28.8621ZM89.566 32.8384C89.4579 31.1094 88.8183 29.6243 87.6577 28.4071C87.4937 28.2352 87.312 28.0971 87.254 28.1002C86.8716 28.1213 86.8614 28.414 87.2309 28.7605C88.2231 29.6908 88.894 31.2489 89.0275 32.9334C89.0726 33.503 89.1059 33.6282 89.2286 33.6925C89.3362 33.7489 89.4073 33.7438 89.4939 33.6735C89.5932 33.5929 89.6048 33.4586 89.566 32.8384ZM70.1578 32.1814C69.7975 30.8278 68.6714 29.6594 67.2893 29.2053C66.7474 29.0272 65.7444 28.9553 65.1799 29.0541C63.5612 29.3375 62.1594 30.6164 61.7399 32.1925C61.5975 32.7278 61.5973 33.8239 61.7396 34.3473C62.1343 35.7987 63.4529 37.0545 64.9433 37.3984C67.2152 37.9225 69.5666 36.5286 70.1578 34.3073C70.305 33.7539 70.305 32.7348 70.1578 32.1814ZM84.3345 30.228C83.8078 29.7185 83.1965 29.3596 82.5279 29.1674C81.9269 28.9946 81.0008 28.9591 80.4261 29.0867C79.3315 29.3299 78.2383 30.0659 77.6597 30.9492C76.3862 32.8934 76.9243 35.4863 78.8649 36.7566C79.59 37.2312 80.2053 37.436 81.0596 37.4868C82.2651 37.5586 83.3745 37.1636 84.2694 36.3438C85.1922 35.4986 85.6448 34.458 85.6335 33.2076C85.6225 32.009 85.2192 31.0838 84.3345 30.228ZM2.8878 30.7981C3.35115 30.3825 3.29838 29.6361 2.78166 29.2952C2.52292 29.1245 0.761822 29.0529 0.608173 29.2069C0.51 29.3052 0.470836 30.694 0.559839 30.9209C0.598326 31.019 0.763626 31.0372 1.61336 31.0372H2.62117L2.8878 30.7981ZM75.4052 30.0322C75.8174 29.5811 75.8663 29.4491 75.6867 29.2732C75.5427 29.1324 75.441 29.1244 73.7764 29.1244C72.1668 29.1244 72.0034 29.1361 71.8435 29.2629C71.629 29.4329 71.6744 29.5417 72.2292 30.1893C72.6265 30.653 73.11 31.4149 73.2808 31.8465C73.4515 32.2776 73.5853 32.4351 73.781 32.4351C73.9368 32.4351 74.0041 32.3501 74.2256 31.8744C74.5251 31.2312 75.0299 30.4429 75.4052 30.0322ZM12.382 29.8543C12.1815 29.7284 11.7886 29.5488 11.509 29.4552C10.0083 28.9528 8.40714 29.323 7.28807 30.4308C6.47232 31.2383 6.08038 32.1626 6.07797 33.2841C6.07384 35.2037 7.60514 36.9398 9.55958 37.2312C11.4473 37.5127 13.2763 36.4757 14.0213 34.7016C14.2608 34.1314 14.3443 33.0222 14.1966 32.373C13.9829 31.4334 13.228 30.3856 12.382 29.8543ZM33.439 35.8929V32.8029V29.713H33.1383H32.8376V32.8029V35.8929H33.1383H33.439ZM40.5802 35.8929V32.8029V29.713H40.3297C40.1918 29.713 40.0565 29.7351 40.029 29.7621C40.0014 29.789 39.9788 31.1795 39.9788 32.852V35.8929H40.2795H40.5802ZM32.3114 31.1844V30.4855V29.7865H31.3718H30.4322V32.7294V35.6722H31.3718H32.3114V33.6122V31.5522H31.5678C30.823 31.5522 30.7044 31.5103 30.7878 31.2763C30.811 31.2111 31.0372 31.1844 31.566 31.1844H32.3114ZM39.4526 31.1746V30.4806V29.7865H36.7465H34.0404V30.4844V31.1822L36.2767 31.2017C38.4563 31.2207 38.513 31.2249 38.513 31.3683C38.513 31.5117 38.4563 31.516 36.2767 31.5349L34.0404 31.5544V33.6133V35.6722H36.7465H39.4526V33.6171V31.562L39.2459 31.5387C39.0972 31.522 39.0392 31.4741 39.0392 31.3683C39.0392 31.2625 39.0972 31.2146 39.2459 31.1979L39.4526 31.1746ZM43.2112 31.1844V30.4855V29.7865H42.1964H41.1816V30.4855V31.1844H42.1964H43.2112ZM9.07292 34.5057C8.08458 33.6778 8.38316 32.1141 9.60987 31.6931C10.7488 31.3023 11.8684 32.081 11.8633 33.2604C11.8572 34.6998 10.1918 35.4431 9.07292 34.5057ZM43.2112 35.6722V33.6122V31.5522H42.1964H41.1816V33.6122V35.6722H42.1964H43.2112ZM64.7951 34.4735C63.8002 33.5484 64.24 31.939 65.5745 31.621C65.9207 31.5386 66.0048 31.5433 66.4441 31.6701C67.6857 32.0286 68.0544 33.5912 67.1056 34.4735C66.8235 34.7358 66.3228 34.9365 65.9503 34.9365C65.5779 34.9365 65.0771 34.7358 64.7951 34.4735ZM79.9845 34.3055C79.2222 33.4003 79.6578 32.0218 80.8221 31.6549C81.8685 31.3253 83.0001 32.1541 83.0012 33.251C83.0027 34.819 81.0051 35.5172 79.9845 34.3055ZM88.2908 32.6781C88.6164 32.6009 88.6399 32.4449 88.3692 32.1592C88.2829 32.0681 88.1342 31.9937 88.0389 31.9937C87.8756 31.9937 87.8682 32.014 87.9122 32.3431C87.9379 32.5354 87.9693 32.7046 87.9818 32.7192C87.9944 32.7339 88.1334 32.7154 88.2908 32.6781ZM44.6485 32.6558L44.6251 32.3799L44.6018 32.104L44.1696 32.0819L43.7374 32.0599V32.3578V32.6558H44.1929H44.6485ZM56.0654 32.5087C55.8476 32.5087 55.5392 32.293 55.5392 32.1408C55.5392 32.0925 53.9856 32.0672 51.0289 32.0672H46.5187V32.3983V32.7294L47.0637 32.7295C47.6975 32.7297 52.8242 32.8505 54.8814 32.9138L56.2909 32.9571V32.7329C56.2909 32.5328 56.2666 32.5087 56.0654 32.5087ZM59.2632 32.7843C59.2716 32.7743 59.3018 32.6089 59.3303 32.4167L59.3821 32.0672H59.0824C58.8211 32.0672 58.7673 32.0971 58.6643 32.2993C58.5992 32.4268 58.546 32.5396 58.546 32.5499C58.546 32.5771 59.2453 32.8057 59.2632 32.7843ZM10.6608 34.219C11.4786 33.8169 11.4673 32.652 10.6419 32.2853C10.467 32.2076 10.2563 32.144 10.1736 32.144C9.88462 32.144 9.40871 32.4159 9.24567 32.6742C8.66407 33.5951 9.6782 34.7022 10.6608 34.219ZM66.4374 34.219C67.2546 33.8172 67.2373 32.6492 66.4085 32.2809C66.0211 32.1087 65.8781 32.1093 65.4821 32.2853C65.0783 32.4647 64.861 32.8026 64.8607 33.2519C64.86 34.0612 65.7047 34.5794 66.4374 34.219ZM82.4041 33.2575C82.4041 32.8718 82.225 32.5486 81.8937 32.3361C81.4344 32.0416 80.8489 32.1412 80.4733 32.5782C80.1299 32.9777 80.1076 33.4762 80.4146 33.8981C81.0213 34.732 82.4041 34.2868 82.4041 33.2575Z" fill="#0B225C"/>
</svg>
