<svg width="174" height="40" viewBox="0 0 174 40" fill="none" xmlns="http://www.w3.org/2000/svg">
<path fill-rule="evenodd" clip-rule="evenodd" d="M77.4013 27.3364L71.2239 26.9917C71.514 27.024 71.8798 27.1165 72.4993 27.3079C73.0888 27.49 73.5711 27.6632 73.5711 27.6929C73.5711 27.7227 73.4794 27.7673 73.3673 27.7921C73.2231 27.824 72.7875 27.7214 71.8774 27.4412C71.17 27.2234 70.5765 27.0303 70.5584 27.0121L66.519 26.9791L66.7771 27.615C66.919 27.9647 67.0351 28.2675 67.0351 28.2879C67.0351 28.3082 66.7609 28.3249 66.4257 28.3249C65.9497 28.3249 65.7872 28.3514 65.6836 28.4459C65.5769 28.5433 65.5278 28.5503 65.4321 28.4818C64.1055 27.5323 62.4609 27.0738 61.0213 27.2521C59.8401 27.3985 58.8496 27.786 57.9354 28.4594C57.4802 28.7948 57.416 28.8207 57.0407 28.8207C56.6675 28.8207 56.6331 28.8071 56.5921 28.6425C56.5301 28.3935 56.2378 28.1832 55.9536 28.1832C55.7668 28.1832 55.6399 28.2532 55.376 28.502L55.038 28.8207H53.5185H51.999L51.8905 28.6092C51.8308 28.4929 51.707 28.3788 51.6152 28.3556C51.4682 28.3184 51.4393 28.251 51.3706 27.785C51.332 27.5238 51.2987 27.225 51.2926 27.1178L50.0041 27.1476C49.9853 27.2302 49.9309 27.5266 49.883 27.8063C49.808 28.2445 49.7734 28.3205 49.632 28.3563C49.5419 28.3791 49.3983 28.4929 49.3129 28.6092L49.1578 28.8207H47.168H45.1783V23.788V23.7051C45.1783 19.0367 45.1783 18.4875 44.9412 18.3471C44.9096 18.3284 44.8738 18.3169 44.8332 18.304L44.8277 18.3022C44.6884 18.2577 44.6863 18.2017 44.6861 14.4191C44.6859 10.7428 44.6801 10.5717 44.5492 10.3553C44.4234 10.1473 44.0853 9.98082 43.7864 9.97954C43.712 9.97919 43.697 9.28644 43.7068 6.30663C43.7161 3.47926 43.6986 2.59597 43.6308 2.46826C43.5166 2.25328 43.5177 1.79527 43.6326 1.65573C43.6821 1.59566 43.71 1.53616 43.6949 1.52349C43.6152 1.45697 43.1923 1.64999 43.0058 1.83799C42.5921 2.25498 42.578 2.40507 42.578 6.37952C42.578 9.21178 42.5593 9.97919 42.4901 9.97954C42.4418 9.97975 42.282 10.0135 42.1351 10.0547C41.7998 10.1486 41.5947 10.463 41.5943 10.8839L41.5941 11.1865L41.4184 11.0705L41.2427 10.9545V7.02785L41.2427 6.84131C41.2427 3.39592 41.2428 2.8789 40.9994 2.70029C40.9565 2.66875 40.9059 2.64777 40.8465 2.62307L40.8283 2.61552C40.6964 2.56041 40.5056 2.5461 40.3155 2.57706C39.5503 2.70144 34.8383 3.57212 33.1957 3.89264C25.8082 5.33424 22.3873 7.20926 21.3844 10.3666L21.2277 10.8604L20.6757 10.8407C20.0333 10.8177 19.0391 10.9225 18.4371 11.0767C17.8792 11.2195 16.9644 11.6767 16.5922 11.9985C16.3474 12.2102 16.2936 12.3012 16.2936 12.5028C16.2936 12.8323 16.4423 13.1025 16.7818 13.3892L17.0634 13.627L16.6894 15.4333C16.4837 16.4267 16.24 17.695 16.1478 18.2516C16.0013 19.1361 15.9623 19.2677 15.8382 19.2959C15.7601 19.3136 14.4312 19.4091 12.885 19.5082C6.01453 19.9486 4.97826 20.0745 4.05494 20.581C3.67669 20.7885 3.2416 21.2429 3.17849 21.4964C3.14503 21.6307 3.07995 21.6526 2.6263 21.6819C1.83833 21.7329 1.34097 22.0772 1.12401 22.7219C1.02387 23.0195 1.00967 28.5815 1.10834 28.8432C1.17209 29.012 1.16386 29.0174 0.787517 29.0488C0.488198 29.0738 0.358885 29.1238 0.212634 29.2711C0.0292756 29.4557 0.0233722 29.4876 0.00453735 30.3982C-0.0173898 31.4588 0.0281512 31.6175 0.411454 31.8169C0.617864 31.9243 0.800238 31.9411 1.57008 31.9231C2.63691 31.8984 2.91178 31.7976 3.25678 31.3049C3.4499 31.029 3.46768 30.9544 3.46839 30.4156C3.46909 29.8462 3.47801 29.8143 3.7495 29.4156C4.17561 28.7898 4.96414 28.0232 5.63523 27.5823C6.33999 27.1193 6.80377 26.9025 7.63945 26.6454C8.1922 26.4754 8.35672 26.4582 9.47648 26.4532C10.9424 26.4468 11.4773 26.561 12.607 27.122C15.117 28.3684 16.6647 30.9553 16.5641 33.7364C16.5499 34.1302 16.5673 34.4166 16.6055 34.4166C16.6417 34.4165 17.7169 34.3364 18.995 34.2383C21.2786 34.0632 21.3212 34.0571 21.4733 33.8842C21.6549 33.6777 21.8295 33.6589 21.9551 33.8322C22.0363 33.9442 22.2334 33.9582 23.9969 33.9771C25.8706 33.9973 25.9566 33.9922 26.1433 33.8531C26.4083 33.6556 26.7118 33.6623 26.8012 33.8676C26.9267 34.156 27.5606 34.1225 27.6351 33.8235C27.6583 33.7304 27.7389 33.6381 27.8142 33.6182C27.9457 33.5835 27.9521 33.6335 27.9731 34.8551C27.9931 36.0193 28.0067 36.1368 28.1315 36.2287C28.2338 36.3039 28.5132 36.329 29.2482 36.329C30.0922 36.329 30.2407 36.3459 30.3164 36.4502C30.3812 36.5395 30.5376 36.579 30.9106 36.6002C31.3436 36.6249 31.446 36.6074 31.6182 36.4791C31.8146 36.3327 31.882 36.329 34.3876 36.329C35.8 36.329 36.9556 36.3558 36.9556 36.3885C36.9556 36.6326 38.0241 36.6975 38.3101 36.4707C38.4706 36.3434 38.5952 36.329 39.5361 36.329C40.3288 36.329 40.6165 36.3046 40.7197 36.2287C40.8415 36.1391 40.8586 36.0211 40.879 35.1307L40.9019 34.1332L42.0035 34.139C42.6094 34.1422 45.8858 34.2139 49.2845 34.2984L55.464 34.452L55.5851 34.9478C56.1042 37.0732 57.6312 38.7725 59.6213 39.4394C60.4864 39.7294 61.168 39.8258 62.0102 39.7773C64.0136 39.6621 65.8475 38.5777 66.9279 36.8693C67.2951 36.2887 67.5163 35.761 67.7033 35.0195L67.8638 34.3828L68.2909 34.256C68.7008 34.1344 68.74 34.1343 69.2577 34.2552L69.7974 34.3811L69.9641 35.0186C70.5617 37.3021 72.2044 38.9795 74.4496 39.5984C75.2684 39.8242 76.7426 39.8255 77.5655 39.6012C78.6485 39.3061 79.5349 38.8058 80.3437 38.0333C81.2723 37.1463 81.8426 36.0598 82.1739 34.5462C82.207 34.3949 82.286 34.3335 82.5696 34.2385C82.8955 34.1294 82.9431 34.129 83.1602 34.2328C83.4677 34.3798 83.4934 34.3779 84.0372 34.1634C84.6734 33.9124 84.7455 33.8113 84.7455 33.1691C84.7455 32.6891 84.7574 32.6457 84.8892 32.6457C84.9683 32.6457 85.112 32.566 85.2087 32.4686C85.3438 32.3325 85.4571 32.2915 85.6988 32.2915H86.0133L85.9943 30.7863L85.9753 29.2811L85.2415 29.2608C84.488 29.2399 84.3238 29.1849 84.3238 28.9537C84.3238 28.8304 84.2569 28.8207 83.3999 28.8207H82.4759L82.1379 28.502C81.8872 28.2656 81.7433 28.1832 81.5813 28.1832C81.2714 28.1832 81.0943 28.2994 80.9786 28.5785C80.8839 28.8071 80.859 28.8207 80.5369 28.8207C80.2463 28.8207 80.1449 28.78 79.8527 28.5456C79.3752 28.1628 78.6391 27.7674 77.9689 27.5341L77.4013 27.3364ZM43.7493 2.04581C43.7493 1.9351 43.8027 1.76226 43.868 1.66182C44.0117 1.44075 44.1173 1.4331 44.3606 1.62598C44.7088 1.90202 44.5397 2.61247 44.1257 2.61247C43.9505 2.61247 43.7493 2.30966 43.7493 2.04581ZM43.351 6.79163C43.3961 6.79163 43.4213 6.1423 43.4213 4.98538C43.4213 3.82847 43.3961 3.17914 43.351 3.17914C43.306 3.17914 43.2808 3.82847 43.2808 4.98538C43.2808 6.1423 43.306 6.79163 43.351 6.79163ZM40.5399 10.8999V7.07496C40.5399 4.97122 40.532 3.25302 40.5223 3.2567C40.5126 3.26038 40.0778 3.34064 39.556 3.43506C32.451 4.72061 30.3254 5.17507 28.2953 5.84253C25.0771 6.90064 23.198 8.17627 22.3676 9.86656C22.1936 10.2207 22.0445 10.6058 22.0363 10.7226L22.0213 10.9348L23.8981 11.0794C24.9304 11.1591 25.7914 11.2408 25.8116 11.2611C25.8918 11.3419 22.8897 11.5582 21.0023 11.6075C19.396 11.6494 18.9228 11.6844 18.6129 11.7837C18.2112 11.9124 17.4153 12.2982 17.173 12.4815C17.0358 12.5853 17.0357 12.5898 17.1664 12.7353C17.2395 12.8168 17.4684 12.964 17.675 13.0626L18.0505 13.2416V15.8734C18.0505 18.3981 18.0446 18.5176 17.9037 18.8109C17.7101 19.214 17.3977 19.4632 16.7339 19.7442C16.0434 20.0364 15.8266 20.0619 11.7606 20.3263C6.47177 20.6705 5.34899 20.7937 4.61808 21.1106C4.29747 21.2497 3.863 21.6283 3.93778 21.7036C3.95879 21.7248 5.72561 21.8375 7.86407 21.9539C10.0025 22.0705 11.7618 22.1755 11.7736 22.1874C11.7854 22.1993 9.70004 22.2505 7.13942 22.3011C3.63825 22.3703 2.42741 22.4161 2.25684 22.486C2.13203 22.5371 1.96554 22.6844 1.88682 22.8134C1.74823 23.0403 1.7443 23.1376 1.76229 25.8578L1.78091 28.6678L1.95127 28.8505C2.04502 28.951 2.14587 29.0332 2.17546 29.0332C2.20505 29.0332 2.23906 28.1965 2.25101 27.1739L2.27287 25.3145L2.46923 24.9114C2.71893 24.399 3.30358 23.8542 3.83679 23.6372L4.24068 23.4728H8.31688C12.3099 23.4728 12.4057 23.4761 13.0116 23.6317C15.5444 24.2824 17.3633 26.3445 17.6671 28.9093L17.7153 29.3166H22.9814H28.2474L28.4199 29.1427L28.5924 28.9688V20.6332C28.5924 14.2717 28.6127 12.2286 28.6783 12.0061C28.7913 11.6227 29.3095 11.1004 29.6899 10.9865C29.9066 10.9217 31.3036 10.8999 35.2595 10.8999H40.5399ZM43.9836 28.1169V19.4376V10.7583H43.1399H42.2963L42.3141 19.4176L42.332 28.077L43.1578 28.097L43.9836 28.1169ZM41.5589 12.1773L41.2943 11.9105L41.0295 11.6437L35.5314 11.6269L34.7652 11.6245C30.3258 11.6102 29.7822 11.6084 29.5575 11.878C29.5261 11.9156 29.5009 11.9585 29.4723 12.0074C29.461 12.0267 29.4492 12.0468 29.4362 12.068C29.2972 12.2947 29.2952 12.4132 29.2952 20.3657C29.2952 28.0438 29.3014 28.445 29.4236 28.6747C29.4942 28.8074 29.6598 28.9743 29.7915 29.0455C30.0175 29.1676 30.3358 29.1749 35.4446 29.1749C40.5535 29.1749 40.8718 29.1676 41.0977 29.0455C41.2295 28.9743 41.3954 28.8069 41.4664 28.6736C41.5899 28.4417 41.5948 28.0767 41.5773 20.3042L41.5589 12.1773ZM43.4383 19.6124C43.4284 15.6971 43.4363 12.4512 43.456 12.3993C43.4756 12.3474 43.5312 12.3181 43.5795 12.3343C43.649 12.3577 43.6673 13.8652 43.6673 19.5475C43.6673 25.8858 43.6549 26.7311 43.5619 26.7311C43.469 26.7311 43.4543 25.8848 43.4383 19.6124ZM18.7885 13.0798C18.8658 12.9735 19.0555 12.8221 19.2101 12.7433C19.4816 12.605 19.6171 12.6001 23.1484 12.6C26.8018 12.5999 26.806 12.6001 27.1176 12.7593C27.3024 12.8537 27.4876 13.0198 27.5718 13.1666C27.7116 13.4105 27.7142 13.5335 27.7328 20.7459L27.7516 28.0772L27.5922 28.3917C27.5046 28.5647 27.3436 28.7718 27.2344 28.852C27.0397 28.995 26.9617 28.9978 23.1527 28.9978H19.2695L19.0136 28.8012C18.8538 28.6783 18.7294 28.5056 18.682 28.3408C18.6293 28.1574 18.6125 25.8215 18.627 20.6749C18.6476 13.4016 18.6504 13.2695 18.7885 13.0798ZM27.1888 13.5827L26.9824 13.3746L26.776 13.1666H23.1607C19.6095 13.1666 19.5421 13.1692 19.3602 13.3134L19.175 13.4602V20.819V28.1777L19.3288 28.3221C19.4795 28.4637 19.5564 28.4666 23.1513 28.4666C26.6585 28.4666 26.8271 28.4606 26.9858 28.3312L27.1517 28.1958L27.1702 20.8892L27.1888 13.5827ZM19.7418 14.008C19.783 13.9304 19.8858 13.8389 19.9702 13.8046C20.0547 13.7703 21.5088 13.7402 23.2017 13.7377L26.2796 13.7333L26.4521 13.9072L26.6246 14.081V16.1416V18.2022L26.45 18.3782L26.2755 18.5541L23.1055 18.5343L19.9356 18.5145L19.8013 18.3473C19.6761 18.1914 19.667 18.0433 19.667 16.1645C19.667 14.8738 19.6939 14.0983 19.7418 14.008ZM16.3287 22.5874C15.2635 22.5874 15.2124 22.5197 15.9597 22.0987C16.5232 21.7813 16.6305 21.7604 16.921 21.9119C17.1363 22.0241 17.2072 22.149 17.2072 22.4161V22.5874H16.3287ZM24.2466 22.4188C24.2327 22.3456 24.2639 22.2584 24.3161 22.2251C24.4236 22.1565 26.0622 22.1396 26.2323 22.2054C26.2934 22.2291 26.3435 22.3255 26.3435 22.4198V22.5912L25.3078 22.5716C24.3583 22.5536 24.2699 22.5409 24.2466 22.4188ZM15.4502 23.3666V23.1541V22.9416H16.3287H17.2072V23.1541V23.3666H16.3287H15.4502ZM16.6256 24.377C16.3845 24.3672 15.4502 23.8981 15.4502 23.7868C15.4502 23.7494 15.8319 23.7207 16.3287 23.7207C17.2014 23.7207 17.2072 23.7218 17.2072 23.8855C17.2072 24.1281 16.8995 24.3881 16.6256 24.377ZM17.0568 29.1395C16.9179 26.7336 15.2754 24.7303 12.9616 24.1447C12.4395 24.0126 12.1644 24.0041 8.42862 24.0048L4.45152 24.0055L4.0886 24.1758C3.63741 24.3875 3.22803 24.7932 3.00539 25.2491C2.84086 25.586 2.83433 25.6592 2.81247 27.4046L2.78977 29.2115L3.00574 29.3724L3.22164 29.5333V27.6518C3.22164 25.6247 3.23815 25.5137 3.61471 25.0162C3.71254 24.8869 3.95669 24.694 4.15719 24.5874L4.5218 24.3937H8.45743L8.68568 24.3936C11.8574 24.3935 12.5754 24.3935 13.2131 24.6221C13.3997 24.689 13.5794 24.7754 13.8117 24.8872L13.8689 24.9147C15.5788 25.7362 16.5822 27.354 16.7051 29.4877L16.7504 30.2728L22.3468 30.2909L27.9434 30.3091L27.9769 30.132L28.0105 29.9549L22.5561 29.9368L17.1018 29.9186L17.0568 29.1395ZM5.78071 25.4051C5.83363 25.2527 5.82063 25.1825 5.71844 25.0687C5.61464 24.9531 5.50226 24.9249 5.14504 24.9249C4.75105 24.9249 4.68794 24.9445 4.58786 25.0985C4.44808 25.3135 4.51098 25.5481 4.72266 25.6016C4.80868 25.6234 5.06689 25.6314 5.29642 25.6195C5.67895 25.5997 5.71936 25.5817 5.78071 25.4051ZM5.28342 28.5795C6.15242 27.8313 7.50522 27.2093 8.59799 27.0556C11.808 26.6042 14.8687 28.6132 15.7305 31.7372C16.382 34.099 15.7166 36.5306 13.9582 38.2142C12.6468 39.4697 10.9874 40.0841 9.16023 39.9907C6.37064 39.8482 4.11945 38.0134 3.27702 35.1957C3.09745 34.5951 3.03111 33.1917 3.14777 32.4627C3.38089 31.0063 4.2047 29.5084 5.28342 28.5795ZM55.8771 29.2765C56.1196 29.0091 56.2157 28.8477 56.1997 28.7342C56.1609 28.4584 55.8911 28.487 55.6028 28.7976C54.4741 30.0139 53.8904 31.4153 53.7745 33.1867C53.7339 33.8075 53.7387 33.8375 53.891 33.9197C54.1489 34.0588 54.2256 33.8961 54.3097 33.0319C54.4654 31.4334 54.9293 30.3217 55.8771 29.2765ZM83.7377 33.1048C83.6366 31.4402 83.0387 30.0104 81.9536 28.8384C81.8002 28.6729 81.6304 28.5399 81.5762 28.543C81.2187 28.5632 81.2091 28.8451 81.5546 29.1787C82.4822 30.0743 83.1094 31.5745 83.2342 33.1963C83.2764 33.7447 83.3075 33.8653 83.4223 33.9272C83.5229 33.9815 83.5893 33.9766 83.6703 33.9089C83.7631 33.8312 83.7739 33.702 83.7377 33.1048ZM65.5924 32.4723C65.2556 31.1691 64.2028 30.0442 62.9106 29.6069C62.4039 29.4354 61.4662 29.3662 60.9385 29.4613C59.4251 29.7342 58.1145 30.9655 57.7224 32.483C57.5892 32.9984 57.589 34.0537 57.7221 34.5576C58.091 35.955 59.3238 37.1641 60.7172 37.4952C62.8414 37.9998 65.0397 36.6578 65.5924 34.5191C65.7301 33.9863 65.7301 33.0051 65.5924 32.4723ZM78.8466 30.5915C78.3542 30.101 77.7827 29.7555 77.1576 29.5704C76.5957 29.4041 75.7298 29.3699 75.1926 29.4928C74.1692 29.7269 73.1471 30.4355 72.6061 31.2859C71.4156 33.1578 71.9186 35.6542 73.7329 36.8773C74.4108 37.3342 74.9861 37.5313 75.7849 37.5803C76.9119 37.6494 77.949 37.2691 78.7858 36.4798C79.6485 35.6661 80.0717 34.6642 80.0611 33.4603C80.0508 32.3063 79.6738 31.4156 78.8466 30.5915ZM2.69988 31.1404C3.13308 30.7404 3.08375 30.0217 2.60065 29.6935C2.35875 29.5291 0.712249 29.4602 0.568598 29.6085C0.476813 29.7031 0.440198 31.0402 0.523408 31.2587C0.559391 31.3531 0.713935 31.3707 1.50837 31.3707H2.4506L2.69988 31.1404ZM70.4983 30.4031C70.8837 29.9687 70.9295 29.8416 70.7615 29.6723C70.6269 29.5367 70.5319 29.5291 68.9756 29.5291C67.4707 29.5291 67.318 29.5403 67.1684 29.6624C66.9679 29.8261 67.0103 29.9308 67.529 30.5543C67.9005 31.0008 68.3526 31.7343 68.5122 32.1499C68.6718 32.5649 68.7969 32.7165 68.9799 32.7165C69.1255 32.7165 69.1885 32.6347 69.3956 32.1767C69.6756 31.5574 70.1475 30.7985 70.4983 30.4031ZM11.5763 30.2318C11.3888 30.1106 11.0215 29.9376 10.7601 29.8475C9.35701 29.3639 7.86006 29.7202 6.81381 30.7868C6.05115 31.5643 5.68471 32.4542 5.68246 33.534C5.6786 35.3821 7.11025 37.0536 8.93751 37.3342C10.7024 37.6052 12.4124 36.6068 13.1089 34.8988C13.3328 34.3497 13.4108 33.2818 13.2728 32.6568C13.0729 31.7522 12.3672 30.7433 11.5763 30.2318ZM31.263 36.0457V33.0707V30.0957H30.9819H30.7008V33.0707V36.0457H30.9819H31.263ZM37.9395 36.0457V33.0707V30.0957H37.7053C37.5764 30.0957 37.4499 30.117 37.4242 30.143C37.3984 30.1689 37.3773 31.5076 37.3773 33.118V36.0457H37.6584H37.9395ZM30.2088 31.5124V30.8395V30.1665H29.3303H28.4519V32.9999V35.8332H29.3303H30.2088V33.8499V31.8665H29.5136C28.8172 31.8665 28.7063 31.8262 28.7843 31.6009C28.8061 31.5381 29.0175 31.5124 29.5119 31.5124H30.2088ZM36.8854 31.503V30.8348V30.1665H34.3553H31.8253V30.8384V31.5103L33.9161 31.529C35.9538 31.5473 36.0069 31.5514 36.0069 31.6895C36.0069 31.8275 35.9538 31.8316 33.9161 31.8499L31.8253 31.8687V33.8509V35.8332H34.3553H36.8854V33.8545V31.876L36.6921 31.8535C36.5531 31.8374 36.4988 31.7913 36.4988 31.6895C36.4988 31.5876 36.5531 31.5415 36.6921 31.5254L36.8854 31.503ZM40.3993 31.5124V30.8395V30.1665H39.4505H38.5018V30.8395V31.5124H39.4505H40.3993ZM8.48252 34.7101C7.55849 33.9131 7.83764 32.4075 8.98453 32.0022C10.0493 31.6259 11.0961 32.3756 11.0914 33.5112C11.0857 34.897 9.52856 35.6126 8.48252 34.7101ZM40.3993 35.8332V33.8499V31.8665H39.4505H38.5018V33.8499V35.8332H39.4505H40.3993ZM60.5787 34.6791C59.6486 33.7885 60.0597 32.2389 61.3074 31.9328C61.6311 31.8534 61.7096 31.8579 62.1204 31.98C63.2812 32.3252 63.6259 33.8297 62.7388 34.6791C62.4751 34.9317 62.007 35.1249 61.6588 35.1249C61.3105 35.1249 60.8424 34.9317 60.5787 34.6791ZM74.7797 34.5173C74.067 33.6459 74.4742 32.3187 75.5628 31.9654C76.5411 31.648 77.5991 32.446 77.6 33.5021C77.6014 35.0117 75.7339 35.684 74.7797 34.5173ZM82.5455 32.9505C82.8499 32.8762 82.8719 32.726 82.6187 32.4509C82.5381 32.3632 82.399 32.2915 82.3099 32.2915C82.1573 32.2915 82.1503 32.3112 82.1915 32.628C82.2156 32.8131 82.2449 32.976 82.2566 32.9901C82.2684 33.0042 82.3984 32.9864 82.5455 32.9505ZM41.7431 32.929L41.7213 32.6634L41.6995 32.3978L41.2954 32.3765L40.8913 32.3553V32.6422V32.929H41.3172H41.7431ZM52.417 32.7874C52.2135 32.7874 51.9251 32.5798 51.9251 32.4332C51.9251 32.3867 50.4726 32.3624 47.7084 32.3624H43.4916V32.6811V32.9999L44.0011 33C44.5937 33.0002 49.3868 33.1165 51.3102 33.1775L52.6279 33.2192V33.0033C52.6279 32.8106 52.6052 32.7874 52.417 32.7874ZM55.4068 33.0528C55.4147 33.0432 55.4428 32.8839 55.4695 32.6988L55.518 32.3624H55.2377C54.9934 32.3624 54.9432 32.3911 54.8468 32.5858C54.786 32.7086 54.7363 32.8172 54.7363 32.827C54.7363 32.8532 55.3901 33.0734 55.4068 33.0528ZM9.96703 34.4341C10.7317 34.0469 10.7211 32.9254 9.94939 32.5723C9.78592 32.4975 9.58893 32.4363 9.51162 32.4363C9.2414 32.4363 8.79646 32.6981 8.64402 32.9468C8.10028 33.8334 9.04841 34.8993 9.96703 34.4341ZM62.1142 34.4341C62.8782 34.0473 62.8619 32.9227 62.0871 32.5681C61.7249 32.4023 61.5912 32.4029 61.221 32.5723C60.8435 32.745 60.6404 33.0704 60.64 33.5029C60.6394 34.2822 61.4291 34.781 62.1142 34.4341ZM77.0418 33.5083C77.0418 33.137 76.8744 32.8258 76.5647 32.6213C76.1352 32.3377 75.5879 32.4336 75.2367 32.8543C74.9156 33.2389 74.8948 33.7189 75.1818 34.1251C75.749 34.928 77.0418 34.4993 77.0418 33.5083Z" fill="#0B225C"/>
<path fill-rule="evenodd" clip-rule="evenodd" d="M50.507 0.0748781C50.3461 0.202944 50.2655 0.562635 50.137 1.72706C49.8772 4.07992 49.341 10.4893 48.9034 16.4736C48.7248 18.9149 48.6925 26.0378 48.8583 26.4324C49.0094 26.7923 49.211 26.9283 49.6474 26.9648C50.0024 26.9945 50.0351 27.0112 50.0041 27.1476L51.2926 27.1178C51.2926 27.1178 51.3924 26.9791 58.9058 26.9791H66.519L70.5584 27.0121C70.5404 26.9939 70.7286 26.9786 70.9766 26.9779C71.0554 26.9777 71.1362 26.982 71.2239 26.9917L77.4013 27.3364L80.4936 27.3768C82.1943 27.399 85.5941 27.4427 88.0486 27.4741C91.6329 27.5199 92.5805 27.5515 92.8627 27.6349C93.4482 27.8078 94.0837 28.1037 94.995 28.6276C95.9826 29.1955 96.5274 29.4132 97.3481 29.568C97.974 29.6861 99.3398 29.7236 110.151 29.919C113.514 29.9798 119.238 30.092 122.872 30.1683C126.505 30.2447 129.692 30.3074 129.953 30.3077L130.427 30.3082L130.427 30.9988C130.427 31.5623 130.453 31.7318 130.567 31.9197C130.687 32.1179 130.745 32.1499 130.988 32.1499H131.27V33.0045C131.27 33.4746 131.303 33.9208 131.343 33.9962C131.4 34.1042 131.493 34.1337 131.782 34.1355C131.992 34.1367 132.207 34.1821 132.285 34.2417C132.466 34.3793 132.713 34.3733 132.962 34.2252C133.154 34.1108 133.186 34.1119 133.604 34.2466L134.044 34.3885L134.2 35.0013C134.505 36.2048 135.067 37.1763 135.955 38.0379C138.474 40.4805 142.462 40.3542 144.848 37.7563C145.604 36.9331 145.994 36.151 146.438 34.5647C146.474 34.4373 146.583 34.3601 146.872 34.259C147.246 34.1283 147.277 34.128 147.807 34.2471C148.108 34.315 148.377 34.4047 148.404 34.4466C148.431 34.4885 148.489 34.701 148.534 34.9189C148.579 35.1367 148.703 35.5351 148.81 35.8043C149.555 37.685 151.103 39.0657 153.068 39.6012C153.891 39.8255 155.365 39.8242 156.184 39.5984C158.438 38.9771 160.129 37.2393 160.667 34.9928L160.823 34.3416L161.203 34.229C161.552 34.1257 161.6 34.1258 161.776 34.231C162.016 34.3736 162.265 34.3776 162.443 34.2417C162.52 34.1831 162.735 34.1367 162.935 34.1355C163.13 34.1342 163.327 34.095 163.374 34.0482C163.431 33.991 163.458 33.6673 163.458 33.0565V32.1499H163.728C164.082 32.1499 164.242 31.9685 164.285 31.5213L164.318 31.1746L164.662 31.1414C165.076 31.1012 165.269 30.9427 165.322 30.5996C165.404 30.0648 165.512 29.7948 165.751 29.5288C166.19 29.0387 166.286 29.025 168.834 29.0858L171.083 29.1395L171.119 29.6871C171.149 30.1662 171.178 30.2592 171.348 30.4308C171.537 30.621 171.57 30.6277 172.42 30.6505L173.297 30.6739V31.6188V32.5636L172.377 32.587C171.469 32.61 171.455 32.6128 171.288 32.8091C171.135 32.989 171.119 33.0716 171.119 33.6822C171.119 34.3368 171.125 34.3628 171.329 34.5688L171.54 34.7809L172.6 34.7581L173.661 34.7353L173.831 34.5365L174 34.3378V29.5356V24.7334L173.839 24.4927C173.751 24.3603 173.585 24.2042 173.47 24.1457C173.286 24.0516 166.37 24.0374 112.7 24.0216L52.1371 24.0037L52.119 12.247L52.1008 0.490173L51.8724 0.260036C51.6635 0.049449 51.6005 0.0277033 51.1345 0.00539085C50.7855 -0.0113258 50.5878 0.0105617 50.507 0.0748781ZM51.398 26.2353V13.4854V0.735397L51.2113 0.713651C51.1087 0.70168 51.0075 0.719955 50.9865 0.754309C50.8856 0.918784 50.3443 7.00852 49.8171 13.9104L49.5358 17.5937L49.5357 21.9343L49.5356 26.2748L50.4668 26.2551L51.398 26.2353ZM173.282 27.5103C173.293 26.1857 173.284 25.0303 173.263 24.9426L173.224 24.7832H112.68H52.1359V25.527V26.2707H111.865C167.3 26.2707 171.6 26.2792 171.69 26.3877C171.763 26.4769 171.795 26.9104 171.821 28.2116L171.856 29.9186H172.559H173.262L173.282 27.5103ZM134.435 29.3551C134.867 28.8752 134.915 28.7687 134.77 28.6224C134.639 28.4904 134.528 28.5195 134.261 28.756C133.606 29.3353 132.884 30.618 132.61 31.6895C132.53 32.0011 132.435 32.5749 132.398 32.9645C132.343 33.551 132.349 33.7002 132.435 33.8322C132.553 34.0143 132.566 34.0178 132.751 33.9182C132.859 33.8599 132.887 33.7681 132.887 33.4703C132.887 32.9035 133.089 31.8267 133.312 31.2106C133.565 30.5073 133.908 29.9412 134.435 29.3551ZM162.253 32.3624C162.063 31.0306 161.342 29.5549 160.513 28.7994C160.354 28.6553 160.179 28.5374 160.122 28.5374C160.032 28.5374 159.874 28.7378 159.874 28.8512C159.874 28.8731 160.072 29.1096 160.313 29.3768C160.834 29.9524 161.163 30.4876 161.4 31.1411C161.617 31.7387 161.842 32.8832 161.842 33.3869C161.842 33.8971 162.047 34.1282 162.287 33.8868C162.401 33.7719 162.391 33.3303 162.253 32.3624ZM144.157 32.3488C143.784 31.0688 142.67 29.9485 141.393 29.5704C140.83 29.4038 139.965 29.3699 139.423 29.4933C137.476 29.9358 136.095 31.7483 136.211 33.7082C136.293 35.0873 136.946 36.2177 138.094 36.965C138.959 37.5288 140.148 37.7389 141.14 37.5033C143.42 36.9616 144.809 34.5873 144.157 32.3488ZM158.45 32.1359C157.919 30.763 156.8 29.7914 155.409 29.4944C153.365 29.0579 151.301 30.3289 150.694 32.3978C150.513 33.0168 150.525 34.0288 150.721 34.6645C151.286 36.4963 152.981 37.694 154.849 37.5808C156.151 37.5019 157.255 36.8708 157.967 35.799C158.5 34.9957 158.645 34.4896 158.639 33.4603C158.635 32.7194 158.61 32.5494 158.45 32.1359ZM148.883 30.6919C149.533 29.8427 149.539 29.8296 149.342 29.6664C149.188 29.5391 149.057 29.5292 147.55 29.5312C146.576 29.5325 145.874 29.5623 145.8 29.6056C145.592 29.728 145.657 29.997 145.986 30.3702C146.441 30.8868 146.694 31.2819 147.056 32.0425C147.355 32.6697 147.396 32.7226 147.566 32.7027C147.723 32.6843 147.804 32.5743 148.11 31.9569C148.307 31.5585 148.655 30.9893 148.883 30.6919ZM134.156 32.1995C134.192 32.0125 134.222 31.8452 134.222 31.8277C134.222 31.8101 134.063 31.7957 133.868 31.7957C133.487 31.7957 133.493 31.7894 133.382 32.2915C133.255 32.869 133.268 32.9022 133.658 32.98L134.009 33.0498L134.05 32.7947C134.072 32.6543 134.12 32.3865 134.156 32.1995ZM161.383 32.562C161.357 32.3699 161.313 32.1269 161.285 32.0219C161.242 31.8585 161.193 31.828 160.941 31.8094C160.779 31.7973 160.647 31.7973 160.647 31.8094C160.647 31.892 160.866 32.9607 160.887 32.9822C160.902 32.9969 161.03 32.987 161.172 32.9601L161.431 32.9113L161.383 32.562ZM173.297 34.0624V33.6728V33.2832H172.559H171.821V33.6728V34.0624H172.559H173.297Z" fill="#0B225C"/>
<path fill-rule="evenodd" clip-rule="evenodd" d="M154.287 31.9297C153.256 32.1975 152.74 33.287 153.195 34.2345C153.816 35.5285 155.789 35.3182 156.156 33.9189C156.452 32.7922 155.375 31.6469 154.287 31.9297ZM155.657 33.4778C155.657 33.2092 155.442 32.8401 155.164 32.6327C154.975 32.4919 154.604 32.424 154.334 32.4809C154.092 32.5319 153.648 33.0125 153.595 33.2817C153.495 33.7862 153.876 34.4075 154.362 34.5304C155.002 34.6922 155.657 34.1595 155.657 33.4778Z" fill="#0B225C"/>
<path fill-rule="evenodd" clip-rule="evenodd" d="M139.798 31.9654C139.377 32.1022 139.099 32.3249 138.878 32.7034C138.719 32.9757 138.685 33.1179 138.687 33.4957C138.693 34.4602 139.31 35.0821 140.266 35.087C140.643 35.089 140.782 35.0545 141.058 34.8908C141.924 34.3777 142.114 33.2339 141.459 32.4831C141.012 31.9711 140.384 31.7754 139.798 31.9654ZM141.28 33.4886C141.274 33.1177 141.141 32.8685 140.824 32.6344C140.609 32.476 140.146 32.4124 139.915 32.5096C139.686 32.6058 139.434 32.8452 139.311 33.0849C138.869 33.9398 139.971 34.9393 140.759 34.3988C141.142 34.136 141.286 33.8847 141.28 33.4886Z" fill="#0B225C"/>
</svg>
