<svg width="40" height="40" viewBox="0 0 40 40" fill="none" xmlns="http://www.w3.org/2000/svg">
<path d="M11.3552 24.8492C11.0465 24.5465 10.5509 24.5512 10.2483 24.8599C9.94563 25.1685 9.95039 25.6641 10.259 25.9668L12.3237 27.9918L8.33782 27.2624C8.00086 27.2007 7.66297 27.3653 7.50383 27.6686C7.34461 27.972 7.40125 28.3436 7.64344 28.5858L11.4218 32.3642C11.5746 32.517 11.775 32.5934 11.9753 32.5934C12.1756 32.5934 12.3759 32.517 12.5288 32.3642C12.8345 32.0585 12.8345 31.5629 12.5288 31.2572L10.5259 29.2543L14.3105 29.947C14.7004 30.0181 15.0652 29.8482 15.2399 29.5148C15.4178 29.1754 15.3448 28.7681 15.0484 28.4718L11.3552 24.8492Z" fill="#0B225C"/>
<path d="M22.5431 18.493L23.3917 17.6445C23.6974 17.3388 23.6974 16.8433 23.3917 16.5376C23.086 16.2319 22.5905 16.2318 22.2847 16.5376L21.4361 17.3861L20.6998 16.6498L21.6693 15.6803C21.975 15.3746 21.975 14.879 21.6693 14.5733C21.3635 14.2676 20.8681 14.2676 20.5624 14.5733L19.0393 16.0964C18.8925 16.2432 18.8101 16.4422 18.8101 16.6499C18.8101 16.8575 18.8926 17.0566 19.0394 17.2034L22.7971 20.9611C22.95 21.114 23.1503 21.1904 23.3506 21.1904C23.551 21.1904 23.7513 21.114 23.9042 20.9611C24.2099 20.6554 24.2099 20.1598 23.9042 19.8541L22.5431 18.493Z" fill="#0B225C"/>
<path d="M27.8569 14.7875L26.8299 15.8145L26.0614 15.046L26.9719 14.1356C27.2776 13.8299 27.2776 13.3343 26.9719 13.0286C26.6661 12.7229 26.1706 12.723 25.8649 13.0286L24.9545 13.9391L24.1859 13.1706L25.213 12.1436C25.5187 11.8379 25.5187 11.3424 25.213 11.0367C24.9073 10.7309 24.4118 10.7309 24.106 11.0367L22.5256 12.6171C22.3788 12.7639 22.2963 12.963 22.2963 13.1706C22.2963 13.3783 22.3788 13.5774 22.5256 13.7242L26.2765 17.475C26.4233 17.6218 26.6224 17.7042 26.83 17.7042C27.0376 17.7042 27.2367 17.6217 27.3835 17.4749L28.9639 15.8945C29.2696 15.5888 29.2696 15.0932 28.9639 14.7875C28.6581 14.4817 28.1625 14.4818 27.8569 14.7875Z" fill="#0B225C"/>
<path d="M29.405 9.48841L28.4946 10.3989L27.7261 9.63037L28.7531 8.60341C29.0588 8.29771 29.0588 7.80216 28.7531 7.49646C28.4474 7.19083 27.952 7.19076 27.6462 7.49646L26.0657 9.07693C25.9189 9.22373 25.8365 9.42279 25.8365 9.63044C25.8365 9.8381 25.919 10.0372 26.0657 10.184L29.8167 13.9349C29.9695 14.0877 30.1698 14.1641 30.3702 14.1641C30.5704 14.1641 30.7708 14.0877 30.9237 13.9349L32.5041 12.3544C32.8099 12.0487 32.8099 11.5532 32.5041 11.2475C32.1985 10.9418 31.7031 10.9418 31.3972 11.2475L30.3702 12.2745L29.6016 11.506L30.5121 10.5955C30.8178 10.2898 30.8178 9.79427 30.5121 9.48857C30.2063 9.18271 29.7108 9.18271 29.405 9.48841Z" fill="#0B225C"/>
<path d="M14.0307 21.0774C12.6819 22.4262 12.6819 24.6209 14.0307 25.9698C14.7052 26.6441 15.591 26.9814 16.4769 26.9814C17.3628 26.9814 18.2487 26.6442 18.9231 25.9698C20.2719 24.6209 20.2719 22.4262 18.9231 21.0774C17.5742 19.7285 15.3795 19.7285 14.0307 21.0774ZM17.8161 24.8627C17.0777 25.6013 15.8761 25.6013 15.1376 24.8627C14.3991 24.1243 14.3991 22.9227 15.1376 22.1842C15.5068 21.8149 15.9918 21.6304 16.4768 21.6304C16.9618 21.6304 17.4468 21.815 17.8161 22.1842C18.5546 22.9227 18.5546 24.1243 17.8161 24.8627Z" fill="#0B225C"/>
<path d="M39.5419 8.43L31.5704 0.458594C31.2748 0.162891 30.8817 0 30.4634 0C30.0452 0 29.6521 0.162812 29.3565 0.458516L26.741 3.07398C24.4245 2.15391 21.8968 1.71258 19.3963 1.79508C18.9642 1.80937 18.6256 2.17117 18.6399 2.60328C18.6541 3.03523 19.0129 3.37328 19.4481 3.35969C21.5063 3.29125 23.5845 3.61313 25.5236 4.29148L22.9522 6.86281C20.8492 6.39328 18.6496 6.43234 16.5625 6.97969C14.2652 7.58227 12.1604 8.79125 10.4756 10.4759C8.79086 12.1607 7.58188 14.2655 6.9793 16.5628C6.43188 18.6498 6.3929 20.8495 6.86243 22.9524L4.28946 25.5255C3.32969 22.7967 3.0975 19.8717 3.6218 16.9972C4.22969 13.6646 5.82219 10.6321 8.22727 8.22734C9.59126 6.86266 11.1599 5.75656 12.8897 4.93992C13.2806 4.75531 13.4479 4.28883 13.2633 3.89789C13.0787 3.50703 12.6123 3.33984 12.2213 3.5243C10.3281 4.4182 8.61172 5.6282 7.12016 7.12055C4.48915 9.75117 2.74688 13.0693 2.08164 16.7163C1.46336 20.106 1.80735 23.5603 3.07368 26.7411L0.458129 29.3568C-0.152262 29.9672 -0.152262 30.9603 0.458129 31.5707L8.42969 39.5423C8.73493 39.8474 9.13579 40 9.53665 40C9.93751 40 10.3384 39.8474 10.6436 39.5423L13.2599 36.9259C15.412 37.7829 17.6889 38.2179 19.9865 38.2179C21.0851 38.2179 22.1884 38.1186 23.2848 37.9186C26.9313 37.2536 30.2495 35.5116 32.8806 32.8809C35.5113 30.2498 37.2533 26.9316 37.9182 23.2852C38.5363 19.8957 38.192 16.4413 36.9254 13.2604L39.5418 10.644C40.1522 10.0336 40.1522 9.04039 39.5419 8.43ZM8.49352 16.9601C9.02571 14.9309 10.0938 13.0716 11.5826 11.583C13.0712 10.0943 14.9306 9.02617 16.9597 8.49398C18.4746 8.09672 20.0565 8.00344 21.6032 8.21187L8.21141 21.6036C8.0029 20.0568 8.09618 18.4749 8.49352 16.9601ZM36.3782 23.0043C35.7706 26.3363 34.1784 29.3689 31.7737 31.7739C29.3686 34.1787 26.3361 35.7709 23.0039 36.3786C20.1295 36.9027 17.2045 36.6702 14.4756 35.7102L17.0479 33.1379C18.0188 33.3547 19.0099 33.4632 20.0014 33.4631C21.1575 33.4631 22.3141 33.3157 23.4374 33.021C25.7348 32.4184 27.8396 31.2095 29.5244 29.5248C31.2092 27.84 32.4181 25.7352 33.0207 23.4379C33.5681 21.3509 33.6071 19.1512 33.1375 17.0482L35.7098 14.4759C36.6699 17.2049 36.9024 20.1299 36.3782 23.0043ZM31.7887 18.3972C31.9971 19.944 31.9039 21.5259 31.5066 23.0408C30.9743 25.0699 29.9062 26.9293 28.4175 28.4179C26.9289 29.9066 25.0695 30.9747 23.0405 31.507C21.5256 31.9043 19.9436 31.9976 18.3969 31.7891L31.7887 18.3972ZM38.4349 9.53703L9.53665 38.4353L1.56508 30.4638L30.4634 1.56547L38.4356 9.53625C38.4356 9.53633 38.4353 9.53648 38.4349 9.53703Z" fill="#0B225C"/>
<path d="M16.0416 3.8266C16.4667 3.75371 16.7523 3.34988 16.6794 2.92464C16.6064 2.49941 16.2026 2.21386 15.7774 2.28683C15.3523 2.3598 15.0666 2.76355 15.1396 3.18879C15.2126 3.61394 15.6164 3.89957 16.0416 3.8266Z" fill="#0B225C"/>
</svg>
