<svg width="24" height="18" viewBox="0 0 24 18" fill="none" xmlns="http://www.w3.org/2000/svg">
<path d="M21.8568 18C22.3963 18 22.8637 17.83 23.2611 17.4943L16.4616 11.0035C16.2984 11.115 16.1403 11.2235 15.9909 11.3266C15.4821 11.6844 15.0691 11.9637 14.752 12.1638C14.4349 12.3643 14.013 12.5688 13.4864 12.7775C12.9594 12.9864 12.4685 13.0906 12.0131 13.0906H11.9997H11.9864C11.5309 13.0906 11.04 12.9865 10.5131 12.7775C9.98615 12.5688 9.56428 12.3643 9.2475 12.1638C8.93042 11.9637 8.51765 11.6845 8.00855 11.3266C7.86667 11.2273 7.70933 11.1184 7.53922 11.0018L0.738388 17.4943C1.13573 17.83 1.60349 18 2.14292 18H21.8568Z" fill="white"/>
<path d="M1.35281 6.91631C0.844008 6.59251 0.39281 6.22167 0 5.80396V15.6791L5.99307 9.9584C4.79411 9.1594 3.24932 8.14654 1.35281 6.91631Z" fill="white"/>
<path d="M22.6605 6.91631C20.8364 8.09488 19.286 9.10949 18.0092 9.96069L23.9998 15.6793V5.80396C23.6157 6.21327 23.1693 6.58386 22.6605 6.91631Z" fill="white"/>
<path d="M21.857 0H2.14318C1.45542 0 0.926661 0.221689 0.556247 0.664609C0.185528 1.10774 0.000473022 1.66192 0.000473022 2.32653C0.000473022 2.86337 0.24605 3.44504 0.736988 4.07172C1.22792 4.69814 1.75032 5.19019 2.30392 5.54809C2.6074 5.75277 3.52261 6.3601 5.04954 7.36989C5.87381 7.91513 6.59063 8.39037 7.20662 8.80047C7.73168 9.14968 8.18449 9.4521 8.55834 9.70307C8.60126 9.73182 8.66876 9.7779 8.75834 9.83904C8.85486 9.90522 8.97699 9.98919 9.12767 10.093C9.41782 10.2934 9.65887 10.4553 9.85085 10.579C10.0426 10.7027 10.2749 10.8409 10.5474 10.9944C10.8197 11.1477 11.0765 11.2629 11.3175 11.3396C11.5586 11.4162 11.7818 11.4546 11.9871 11.4546H12.0004H12.0138C12.219 11.4546 12.4423 11.4162 12.6834 11.3396C12.9244 11.2629 13.181 11.1479 13.4535 10.9944C13.7258 10.8409 13.9577 10.7024 14.1501 10.579C14.3421 10.4553 14.5831 10.2934 14.8733 10.093C15.0237 9.98919 15.1458 9.90517 15.2423 9.83925C15.3319 9.77786 15.3994 9.73206 15.4426 9.70307C15.7338 9.50963 16.1877 9.20845 16.7979 8.80401C17.9082 8.06761 19.5434 6.98375 21.7104 5.54809C22.3621 5.11357 22.9066 4.58921 23.3442 3.97576C23.781 3.36231 24 2.71883 24 2.04553C24 1.48299 23.7877 1.00164 23.3639 0.600723C22.9397 0.20031 22.4373 0 21.857 0Z" fill="white"/>
</svg>
