<svg width="40" height="40" viewBox="0 0 40 40" fill="none" xmlns="http://www.w3.org/2000/svg">
<g clip-path="url(#clip0_10:194)">
<path d="M16.9531 28.5157C17.3843 28.5157 17.7344 28.1656 17.7344 27.7344C17.7344 27.3032 17.3843 26.9532 16.9531 26.9532C16.5219 26.9532 16.1719 27.3032 16.1719 27.7344C16.1719 28.1656 16.5219 28.5157 16.9531 28.5157Z" fill="#0B225C"/>
<path d="M0.307007 30.318L9.68202 39.693C9.9872 39.9982 10.4816 39.9982 10.7868 39.693L15.943 34.5368C16.2482 34.2316 16.2482 33.7372 15.943 33.432L15.7141 33.2032H26.9758C27.9648 33.2032 28.9087 32.8324 29.6366 32.1567L39.1145 23.274C40.0217 22.4314 40.3223 21.0929 39.8621 19.9436C39.5295 19.1117 38.8502 18.4751 37.9987 18.197C37.147 17.9184 36.2232 18.0313 35.4633 18.5062C35.4584 18.5092 33.3591 19.8868 33.3591 19.8868C33.3448 15.6519 30.7853 11.1359 27.262 9.10279C27.4631 8.87178 27.6212 8.59834 27.7219 8.29225C28.1251 7.06574 27.4549 5.73823 26.2266 5.33265C26.1881 5.31983 26.1496 5.30854 26.1112 5.29664L28.1223 1.68396C28.238 1.47614 28.2529 1.22681 28.1623 1.00708C28.072 0.787049 27.8864 0.620118 27.6578 0.553895C26.2159 0.134583 24.7171 -0.078125 23.2032 -0.078125C21.6895 -0.078125 20.1905 0.134583 18.7485 0.55359C18.5199 0.620118 18.3344 0.786744 18.2437 1.00678C18.1534 1.22681 18.1681 1.47614 18.284 1.68396L20.2951 5.29664C20.2561 5.30884 20.217 5.32044 20.178 5.33326C18.9515 5.73823 18.2816 7.06544 18.6847 8.29286C18.7854 8.59834 18.9447 8.87086 19.1465 9.10218C15.5707 11.1655 13.0469 15.7279 13.0469 19.9219C13.0469 20.0363 13.0496 20.1493 13.0533 20.2613C11.6541 20.643 10.3531 21.3385 9.25905 22.2965L6.88478 24.3738L6.56801 24.057C6.26283 23.7519 5.76844 23.7519 5.46327 24.057L0.307007 29.2133C0.00183091 29.5185 0.00183091 30.0129 0.307007 30.318ZM20.1432 1.81122C21.1441 1.59394 22.1695 1.48438 23.2032 1.48438C24.2368 1.48438 25.2622 1.59394 26.2635 1.81122L24.5224 4.93836C23.6448 4.81598 22.761 4.81598 21.8842 4.93836L20.1432 1.81122ZM20.6656 6.81764C22.2687 6.29304 24.0165 6.25336 25.7386 6.81702C26.1484 6.95222 26.3721 7.39533 26.2375 7.80427C26.1362 8.11219 25.8616 8.32124 25.5433 8.33985C24.0027 7.85005 22.4027 7.84913 20.8628 8.33833C20.8628 8.33833 20.8628 8.33833 20.8625 8.33833C20.5414 8.31819 20.2689 8.10822 20.1688 7.80457C20.0342 7.39503 20.2579 6.95191 20.6656 6.81764ZM21.0978 9.90754C22.4524 9.41957 23.8559 9.40797 25.214 9.87458C28.8437 11.1228 31.7969 15.6299 31.7969 19.9219C31.7969 20.2857 31.774 20.6323 31.7289 20.9564L27.9737 23.4201C27.3923 22.6999 26.5113 22.2656 25.5469 22.2656H23.9844V21.3501C24.8938 21.0276 25.5469 20.159 25.5469 19.1406C25.5469 17.8482 24.4956 16.7969 23.2032 16.7969C22.7726 16.7969 22.4219 16.4466 22.4219 16.0156C22.4219 15.5847 22.7726 15.2344 23.2032 15.2344C23.48 15.2344 23.772 15.3757 24.0482 15.6427C24.3583 15.9427 24.853 15.9345 25.1529 15.6247C25.4529 15.3147 25.4447 14.82 25.1346 14.52C24.7382 14.1361 24.3415 13.9191 23.9844 13.8007V12.8906C23.9844 12.4591 23.6347 12.1094 23.2032 12.1094C22.7717 12.1094 22.4219 12.4591 22.4219 12.8906V13.8062C21.5128 14.1287 20.8594 14.9973 20.8594 16.0156C20.8594 17.3081 21.9107 18.3594 23.2032 18.3594C23.6341 18.3594 23.9844 18.7097 23.9844 19.1406C23.9844 19.5716 23.6341 19.9219 23.2032 19.9219C22.8693 19.9219 22.5092 19.7119 22.1888 19.3308C21.9111 19.0006 21.4182 18.9578 21.088 19.2356C20.7578 19.5133 20.7151 20.0061 20.9928 20.3363C21.4103 20.8332 21.9016 21.1792 22.4219 21.3538V22.2656H22.1619C21.778 22.2656 21.6056 22.0154 21.3352 21.8405C19.6845 20.6034 17.6398 19.9219 15.5774 19.9219C15.2549 19.9219 14.9317 19.9387 14.61 19.9713C14.61 19.9549 14.6094 19.9387 14.6094 19.9219C14.6094 15.69 17.5202 11.1978 21.0978 9.90754ZM10.2881 23.472C11.756 22.1866 13.6423 21.4844 15.5774 21.4844C17.3041 21.4844 19.0158 22.0548 20.3971 23.0902C20.5964 23.2068 21.1512 23.8282 22.1616 23.8282H25.5469C26.4362 23.8282 27.1094 24.5511 27.1094 25.3907C27.1094 26.2522 26.4084 26.9532 25.5469 26.9532H20.0782C19.6466 26.9532 19.2969 27.3029 19.2969 27.7344C19.2969 28.1659 19.6466 28.5157 20.0782 28.5157H25.5469C27.2699 28.5157 28.6719 27.1137 28.6719 25.3907C28.6719 25.2115 28.6561 25.0348 28.6262 24.8609L36.298 19.8273C36.663 19.6018 37.1058 19.549 37.5135 19.682C37.9237 19.8163 38.2511 20.123 38.4113 20.524C38.6369 21.0868 38.4953 21.7169 38.0485 22.1317L28.5709 31.0141C28.1357 31.4182 27.5693 31.6407 26.9758 31.6407H14.1516L7.99226 25.481L10.2881 23.472ZM6.01564 25.7141L14.2859 33.9844L10.2344 38.0359L1.96411 29.7657L6.01564 25.7141Z" fill="#0B225C"/>
</g>
<defs>
<clipPath id="clip0_10:194">
<rect width="40" height="40" fill="white"/>
</clipPath>
</defs>
</svg>
