<svg width="392" height="84" viewBox="0 0 392 84" fill="none" xmlns="http://www.w3.org/2000/svg">
<path d="M64.2492 40.0022C64.3907 41.0023 65.7247 41.2214 66.172 40.3172C66.2155 40.23 66.2358 40.1294 66.2504 40.0331C73.3577 -6.16228 7.07807 -15.7999 0.0166059 30.0708C0.00555519 30.1494 0 30.228 0 30.3075C0 31.845 1.88234 32.5666 2.89052 31.4144L10.9367 22.2209C11.2624 21.8485 11.7303 21.6352 12.2219 21.6352C13.1695 21.6352 13.9378 22.4121 13.9378 23.3701V23.4697C13.9378 23.9094 13.7816 24.3342 13.4975 24.6672L2.18121 37.9361C1.72578 38.4695 1.36112 39.0763 1.10207 39.7312C0.705698 40.7325 0.567216 41.8193 0.699599 42.8899L0.81946 43.8591C0.93628 44.8041 1.18382 45.7269 1.55481 46.6022L2.44465 48.7006C2.47386 48.7699 2.51586 48.8321 2.56832 48.8856C2.79841 49.1182 3.17224 49.115 3.39907 48.8797L19.992 31.6981C20.1035 31.5822 20.2308 31.4544 20.4047 31.3106C20.6332 31.1216 20.8973 30.9838 21.1685 30.866C22.3632 30.3487 23.658 31.351 23.4741 32.652C23.4232 33.0124 23.2577 33.3464 23.003 33.6041L7.056 50.1226C6.04241 51.1473 5.64225 52.5 5.79756 53.5991C5.91265 54.4134 6.24142 55.1821 6.74973 55.8239L7.96446 57.3585C9.3637 58.7734 11.6096 58.8448 13.0944 57.5226L28.6827 41.8324C29.0287 41.4841 29.4196 41.185 29.845 40.9429C30.4571 40.5942 31.1485 40.2974 31.828 40.4777C32.8523 40.7495 33.5047 41.6382 33.124 42.7924C32.9026 43.4636 32.4777 44.0366 31.9793 44.5335L14.9343 61.5237C14.3017 62.074 13.9378 62.8752 13.9378 63.7191C13.9378 64.1681 14.0413 64.6118 14.2403 65.0144L14.6582 65.8588C14.8412 66.2288 15.0569 66.5811 15.3025 66.9123L16.1758 68.0895C16.3422 68.3138 16.5393 68.5131 16.7612 68.6815C17.754 69.4339 19.1083 69.4724 20.1408 68.7758L22.8977 66.9183L29.3689 61.887L36.8355 55.8493L41.8135 51.3208L43.8381 49.2739C44.4751 48.63 45.0055 47.8863 45.4085 47.0721C45.9902 45.8961 46.2932 44.598 46.2932 43.2826V43.1296C46.2932 41.895 46.0451 40.6722 45.5637 39.537L45.4504 39.2694C45.0196 38.253 44.4332 37.3123 43.7131 36.48L41.3156 33.7107L40.3882 32.3984C39.3635 30.9484 38.7121 29.263 38.4935 27.4938C38.3842 26.6103 38.3842 25.7167 38.4935 24.8332L38.5856 24.0876C38.7442 22.8056 39.1958 21.5789 39.9044 20.5042L40.2125 20.0372C40.612 19.4314 41.1263 18.9112 41.7257 18.5077C43.8217 17.0959 46.6014 17.3172 48.4524 19.044L51.7687 22.1384L57.7424 27.6729L60.1136 30.0699C60.5232 30.4845 60.9035 30.9274 61.2508 31.3951C61.8956 32.2646 62.4244 33.2155 62.8235 34.224L63.2178 35.2202L63.7153 37.2328L64.2135 39.7486L64.2492 40.0022Z" fill="white"/>
<path d="M39.788 79.0472L36.8356 82.0129C34.8488 83.7345 31.9016 83.6791 29.9788 81.8849L26.4965 78.6355C23.4153 75.7617 23.8508 70.7205 27.3777 68.4279L33.3511 63.8994L40.3199 57.8617L46.2932 51.3212L47.7887 49.558C48.7695 48.4006 49.47 47.0293 49.8357 45.5522C50.1266 44.3766 50.1991 43.157 50.0506 41.9552L50.0157 41.6739C49.8585 40.3997 49.4873 39.1619 48.9192 38.0129L48.2846 36.7298L47.3203 35.0242C46.637 33.8156 45.8499 32.6703 44.9683 31.6008L44.2098 30.6811C43.9401 30.353 43.6955 30.0057 43.4787 29.6396L43.0451 28.9101C42.5649 28.1009 42.3109 27.175 42.3109 26.2311V25.9655C42.3109 25.1101 42.5614 24.2749 43.0306 23.5635L43.835 22.3439C44.127 21.9011 44.6182 21.6355 45.1439 21.6355C45.561 21.6355 45.9612 21.8025 46.256 22.1014L47.2889 23.1449L49.2799 25.1575L49.8083 25.6243C52.1078 27.6591 54.2602 29.8569 56.2489 32.2015L57.5507 33.7805C58.3394 34.7373 59.016 35.7829 59.5671 36.8969L59.5848 36.9322C60.0148 37.8016 60.3641 38.7091 60.6283 39.644C61.025 41.0487 61.2265 42.502 61.2265 43.9629V44.9745C61.2265 46.8502 60.9991 48.7188 60.5491 50.5391L60.2312 51.824L60.1532 52.0598C59.5432 53.9102 58.7349 55.6865 57.7424 57.3585L56.2489 59.8742L52.7644 64.4026L49.2799 68.4279L45.2976 72.956L42.3109 76.4784L39.788 79.0472Z" fill="white"/>
<path d="M99.8467 43.3669H94.4555L91.9342 56.593C91.4995 58.8463 91.1804 59.9237 90.4269 60.8382C89.9922 61.3608 89.1804 62.1116 87.7896 62.1116C86.8911 62.1116 86.1083 61.7851 85.6445 61.2954C85.2098 60.8382 84.8911 60.0215 84.8911 58.9442C84.8911 57.834 85.1232 56.7233 85.2098 56.3315L87.6735 43.3669H82.2828L80.0217 55.1234C79.848 56.005 79.5003 57.8665 79.5003 59.4339C79.5003 62.3078 80.4854 63.7774 81.2683 64.5607C83.0652 66.3572 85.6155 66.6183 87.2968 66.6183C89.1808 66.6183 91.8472 66.3243 93.9628 64.365C96.0788 62.4056 96.7166 59.8258 97.2089 57.2789L99.8467 43.3669ZM101.599 66.2264H106.816L108.294 58.3891C108.584 56.7887 108.99 55.7764 109.657 54.9601C110.178 54.3396 110.903 53.7192 112.178 53.7192C113.019 53.7192 113.482 53.9803 113.743 54.2743C114.062 54.6336 114.207 55.2212 114.207 55.7764C114.207 56.2665 114.091 56.9195 113.859 58.2583L112.41 66.2264H117.801L119.192 58.2908C119.395 57.0498 119.598 55.7439 119.598 54.699C119.598 53.458 119.395 51.8252 118.409 50.4863C117.743 49.5719 116.728 48.8206 114.787 48.8206C113.424 48.8206 112.381 49.18 111.54 49.6697C110.903 50.0291 110.178 50.5842 109.077 51.9884H109.019L109.424 49.2125H104.584C104.526 49.9312 104.353 51.4004 103.947 53.6538L101.599 66.2264ZM127.298 46.4369H132.515L133.326 42.1264H128.109L127.298 46.4369ZM123.559 66.2264H128.776L131.993 49.2125H126.776L123.559 66.2264ZM135.984 53.3273H138.766L137.868 58.0951C137.723 58.8788 137.404 60.348 137.404 61.7198C137.404 62.83 137.577 64.3325 138.679 65.4098C139.548 66.2264 140.911 66.6183 142.186 66.6183C142.997 66.6183 144.563 66.4222 145.432 66.2914L146.012 62.4056C145.374 62.765 144.679 62.8954 144.215 62.8954C143.838 62.8954 143.403 62.7975 143.114 62.5035C142.853 62.2749 142.621 61.818 142.621 61.0993C142.621 60.1523 142.94 58.6831 143.056 58.0622L143.954 53.3273H147.751L148.388 49.2125H144.795L145.838 43.8896L140.331 45.5553L139.606 49.2125H136.621L135.984 53.3273ZM169.628 49.2125H164.092L158.962 59.9566H158.904L157.542 49.2125H152.238L155.571 66.1611C155.368 66.814 154.992 67.5324 154.644 67.9572C154.093 68.6101 153.339 68.9695 152.528 68.9695C151.687 68.9695 150.934 68.8063 150.151 68.4798L149.05 72.7574C149.833 72.9861 150.412 73.1168 150.789 73.2147C151.194 73.3126 151.919 73.4758 152.963 73.4758C155.02 73.4758 156.296 72.7903 157.136 72.0716C157.948 71.3861 158.759 70.3737 159.716 68.4798L169.628 49.2125ZM182.981 66.2264H188.459L191.908 47.8736H196.98L197.85 43.3669H182.286L181.416 47.8736H186.43L182.981 66.2264ZM198.821 49.2125C198.763 49.9312 198.59 51.4004 198.184 53.6538L195.836 66.2264H201.053L202.531 58.3891C202.676 57.6053 203.024 56.2011 203.806 55.0905C204.357 54.3396 205.169 53.6863 206.734 53.6863C207.11 53.6863 207.459 53.7516 207.864 53.8824C208.212 54.0132 208.531 54.1764 208.821 54.4375L210.009 49.2454C209.197 48.886 208.415 48.8206 207.98 48.8206C206.473 48.8206 205.516 49.5065 204.995 49.9962C204.502 50.4535 203.661 51.4329 203.14 52.7068H203.082L203.661 49.2125H198.821ZM230.133 49.2125H224.916L223.438 57.0498C223.264 57.9318 223.003 59.2707 222.221 60.3155C221.351 61.4915 220.192 61.7198 219.554 61.7198C219.148 61.7198 218.569 61.6219 218.163 61.2625C217.671 60.8382 217.554 60.2177 217.554 59.7604C217.554 59.4993 217.555 58.9442 217.873 57.1806L219.322 49.2125H213.931L212.54 57.1481C212.25 58.7156 212.134 59.5647 212.134 60.7403C212.134 61.8505 212.192 63.5812 213.178 64.9201C213.787 65.7367 214.888 66.6183 216.83 66.6183C217.815 66.6183 219.148 66.3897 220.221 65.7367C220.482 65.5731 221.699 64.8222 222.656 63.4505H222.714L222.308 66.2264H227.147C227.235 65.312 227.38 64.0056 227.786 61.7851L230.133 49.2125ZM245.925 61.5565C244.709 62.1445 243.461 62.3078 242.679 62.3078C241.953 62.3078 240.708 62.1445 239.868 61.1971C239.113 60.348 238.97 59.1728 238.97 58.4216C238.97 57.0827 239.434 55.5152 240.274 54.5354C240.766 53.9478 241.81 53.1312 243.577 53.1312C244.129 53.1312 245.49 53.2294 246.94 54.0456L248.069 49.9637C246.882 49.4086 246.214 49.2454 245.607 49.1146C244.65 48.9189 243.954 48.8206 243.316 48.8206C241.405 48.8206 238.591 49.2454 236.273 51.7273C233.955 54.2089 233.578 57.0498 233.578 58.9442C233.578 60.6095 233.984 62.5689 235.52 64.3325C236.593 65.5731 238.186 66.6183 240.997 66.6183C241.839 66.6183 243.519 66.5529 245.172 65.9649L245.925 61.5565ZM250.116 66.2264H255.333L256.928 57.8011H256.986L260.087 66.2264H265.883L261.941 57.4092L268.202 49.2125H262.261L257.246 56.3644H257.188L259.943 41.7345H254.726L250.116 66.2264ZM273.383 46.4369H278.6L279.411 42.1264H274.194L273.383 46.4369ZM269.644 66.2264H274.861L278.078 49.2125H272.861L269.644 66.2264ZM280.88 66.2264H286.097L287.576 58.3891C287.867 56.7887 288.272 55.7764 288.938 54.9601C289.459 54.3396 290.185 53.7192 291.46 53.7192C292.3 53.7192 292.764 53.9803 293.025 54.2743C293.344 54.6336 293.489 55.2212 293.489 55.7764C293.489 56.2665 293.373 56.9195 293.14 58.2583L291.69 66.2264H297.082L298.473 58.2908C298.677 57.0498 298.879 55.7439 298.879 54.699C298.879 53.458 298.677 51.8252 297.691 50.4863C297.024 49.5719 296.009 48.8206 294.067 48.8206C292.705 48.8206 291.664 49.18 290.821 49.6697C290.185 50.0291 289.459 50.5842 288.358 51.9884H288.302L288.707 49.2125H283.866C283.808 49.9312 283.633 51.4004 283.228 53.6538L280.88 66.2264ZM303.565 72.3985C305.912 73.1493 307.072 73.4758 309.479 73.4758C312.173 73.4758 314.608 73.0189 316.174 71.6147C318.172 69.8186 318.781 66.7162 319.157 64.8876L321.476 53.2948L322.432 49.2125H317.594L316.927 52.3149H316.868C316.463 51.0086 315.681 50.1595 314.926 49.6372C313.97 48.9839 312.955 48.8206 311.94 48.8206C310.724 48.8206 308.26 48.9514 306.23 51.1393C304.579 52.9354 303.565 55.7764 303.565 58.7806C303.565 60.1198 303.74 62.471 305.274 64.2671C305.942 65.0179 307.332 66.2264 309.738 66.2264C310.782 66.2264 311.709 65.9978 312.637 65.4098C313.331 64.953 314.086 64.2671 314.666 63.2547L314.724 63.3197L314.579 63.9406C314.288 65.1162 313.94 66.7816 312.897 67.8593C312.231 68.5448 311.1 69.1656 309.129 69.1656C307.072 69.1656 305.623 68.5123 304.579 67.8264L303.565 72.3985ZM315.506 56.3969C315.506 57.5725 315.13 58.9767 314.608 59.8583C313.999 60.9035 313.013 61.7198 311.68 61.7198C310.811 61.7198 310.114 61.3608 309.68 60.8382C309.071 60.1198 308.956 59.2053 308.956 58.5848C308.956 57.1156 309.479 55.7764 309.884 55.058C310.782 53.523 311.969 53.3273 312.724 53.3273C313.448 53.3273 314.232 53.4905 314.809 54.1439C315.302 54.7315 315.506 55.5153 315.506 56.3969ZM338.345 43.3669L334.026 66.2264H339.418L343.737 43.3669H338.345ZM345.603 66.2264H350.82L352.298 58.3891C352.587 56.7887 352.992 55.7764 353.66 54.9601C354.182 54.3396 354.905 53.7192 356.182 53.7192C357.022 53.7192 357.486 53.9803 357.746 54.2743C358.066 54.6336 358.21 55.2212 358.21 55.7764C358.21 56.2665 358.095 56.9195 357.862 58.2583L356.413 66.2264H361.805L363.196 58.2908C363.4 57.0498 363.601 55.7439 363.601 54.699C363.601 53.458 363.4 51.8252 362.414 50.4863C361.747 49.5719 360.732 48.8206 358.79 48.8206C357.428 48.8206 356.384 49.18 355.544 49.6697C354.905 50.0291 354.182 50.5842 353.08 51.9884H353.022L353.43 49.2125H348.589C348.53 49.9312 348.356 51.4004 347.95 53.6538L345.603 66.2264ZM380.634 61.5565C379.416 62.1445 378.17 62.3078 377.389 62.3078C376.663 62.3078 375.417 62.1445 374.577 61.1971C373.822 60.348 373.679 59.1728 373.679 58.4216C373.679 57.0827 374.143 55.5152 374.983 54.5354C375.476 53.9478 376.519 53.1312 378.287 53.1312C378.838 53.1312 380.2 53.2294 381.649 54.0456L382.778 49.9637C381.591 49.4086 380.923 49.2454 380.316 49.1146C379.36 48.9189 378.663 48.8206 378.024 48.8206C376.111 48.8206 373.3 49.2454 370.982 51.7273C368.663 54.2089 368.287 57.0498 368.287 58.9442C368.287 60.6095 368.693 62.5689 370.229 64.3325C371.302 65.5731 372.895 66.6183 375.706 66.6183C376.546 66.6183 378.228 66.5529 379.879 65.9649L380.634 61.5565ZM385.058 66.2264H389.955L390.94 60.936H386.044L385.058 66.2264Z" fill="white"/>
<path d="M99.8467 43.367L100.414 43.5037L100.563 42.714H99.8467V43.367ZM94.4555 43.367V42.714H93.9875L93.8891 43.2303L94.4555 43.367ZM90.427 60.8382L90.8499 61.2847L90.8519 61.2828L90.427 60.8382ZM85.2102 56.3315L85.7724 56.49L85.7747 56.4793L85.7767 56.4682L85.2102 56.3315ZM87.6736 43.367L88.2404 43.5037L88.3905 42.714H87.6736V43.367ZM82.2828 43.367V42.714H81.8151L81.7163 43.2291L82.2828 43.367ZM80.0221 55.1234L80.5878 55.2649L80.5885 55.2617L80.0221 55.1234ZM97.209 57.2789L97.7758 57.4176L97.7762 57.4152L97.209 57.2789ZM99.8467 42.714H94.4555V44.0204H99.8467V42.714ZM93.8891 43.2303L91.3674 56.4555L92.5006 56.7317L95.0224 43.5045L93.8891 43.2303ZM91.3674 56.4555C90.9319 58.714 90.6367 59.6241 90.0024 60.3936L90.8519 61.2828C91.7249 60.2236 92.0667 58.9799 92.5006 56.7317L91.3674 56.4555ZM90.004 60.3916C89.6347 60.8358 88.9656 61.4587 87.7896 61.4587V62.765C89.3964 62.765 90.3501 61.8854 90.8499 61.2847L90.004 60.3916ZM87.7896 61.4587C87.0009 61.4587 86.3729 61.169 86.0413 60.8188L85.2482 61.7717C85.8441 62.4013 86.7814 62.765 87.7896 62.765V61.4587ZM86.0413 60.8188C85.7508 60.5133 85.4709 59.8861 85.4709 58.9442H84.3118C84.3118 60.1575 84.6697 61.1631 85.2482 61.7717L86.0413 60.8188ZM85.4709 58.9442C85.4709 57.918 85.6873 56.8728 85.7724 56.49L84.6477 56.1734C84.5587 56.5744 84.3118 57.7496 84.3118 58.9442H85.4709ZM85.7767 56.4682L88.2404 43.5037L87.1071 43.2307L84.6434 56.1948L85.7767 56.4682ZM87.6736 42.714H82.2828V44.0204H87.6736V42.714ZM81.7163 43.2291L79.4557 54.9851L80.5885 55.2617L82.8492 43.5053L81.7163 43.2291ZM79.4561 54.9816C79.2832 55.8596 78.9206 57.7861 78.9206 59.434H80.0801C80.0801 57.9469 80.4133 56.1504 80.5878 55.2649L79.4561 54.9816ZM78.9206 59.434C78.9206 62.5107 79.9884 64.1526 80.8833 65.0489L81.6536 64.0726C80.9833 63.4018 80.0801 62.1049 80.0801 59.434H78.9206ZM80.8833 65.0489C82.8516 67.0166 85.5967 67.2713 87.2968 67.2713V65.965C85.6348 65.965 83.2788 65.6975 81.6536 64.0726L80.8833 65.0489ZM87.2968 67.2713C89.2149 67.2713 92.0545 66.9781 94.3313 64.8694L93.5947 63.8602C91.6402 65.6706 89.1467 65.965 87.2968 65.965V67.2713ZM94.3313 64.8694C96.6115 62.7579 97.2803 59.9776 97.7758 57.4176L96.6429 57.1394C96.1525 59.6741 95.5461 62.0534 93.5947 63.8602L94.3313 64.8694ZM97.7762 57.4152L100.414 43.5037L99.2799 43.2307L96.6425 57.1422L97.7762 57.4152ZM101.599 66.2265L101.032 66.0918L100.885 66.8795H101.599V66.2265ZM106.816 66.2265V66.8795H107.286L107.383 66.3624L106.816 66.2265ZM108.294 58.3891L108.862 58.5246L108.862 58.5199L108.294 58.3891ZM109.657 54.9602L109.236 54.5108L109.233 54.5144L109.23 54.518L109.657 54.9602ZM113.859 58.2584L114.427 58.3895L114.428 58.3836L113.859 58.2584ZM112.41 66.2265L111.842 66.0953L111.7 66.8795H112.41V66.2265ZM117.801 66.2265V66.8795H118.277L118.37 66.3529L117.801 66.2265ZM119.192 58.2908L119.761 58.4176L119.762 58.4093L119.192 58.2908ZM118.409 50.4864L117.961 50.9008L117.963 50.9032L118.409 50.4864ZM111.54 49.6698L111.8 50.2538L111.807 50.2498L111.54 49.6698ZM109.077 51.9885V52.6414H109.338L109.511 52.4211L109.077 51.9885ZM109.019 51.9885L108.447 51.8823L108.336 52.6414H109.019V51.9885ZM109.425 49.2125L109.997 49.3187L110.108 48.5595H109.425V49.2125ZM104.584 49.2125V48.5595H104.055L104.007 49.1535L104.584 49.2125ZM103.947 53.6538L104.514 53.7881L104.515 53.7838L103.947 53.6538ZM101.599 66.8795H106.816V65.5731H101.599V66.8795ZM107.383 66.3624L108.862 58.5246L107.727 58.2532L106.249 66.0906L107.383 66.3624ZM108.862 58.5199C109.14 56.9865 109.513 56.1005 110.083 55.4024L109.23 54.518C108.467 55.4523 108.029 56.591 107.726 58.2584L108.862 58.5199ZM110.078 55.4091C110.53 54.8714 111.112 54.3722 112.178 54.3722V53.0662C110.693 53.0662 109.827 53.8079 109.236 54.5108L110.078 55.4091ZM112.178 54.3722C112.909 54.3722 113.209 54.596 113.333 54.7359L114.153 53.8127C113.756 53.365 113.128 53.0662 112.178 53.0662V54.3722ZM113.333 54.7359C113.503 54.9273 113.627 55.3168 113.627 55.7764H114.787C114.787 55.1258 114.621 54.3397 114.153 53.8127L113.333 54.7359ZM113.627 55.7764C113.627 56.1857 113.529 56.7555 113.29 58.1331L114.428 58.3836C114.653 57.0831 114.787 56.347 114.787 55.7764H113.627ZM113.292 58.1272L111.842 66.0953L112.978 66.3576L114.427 58.3895L113.292 58.1272ZM112.41 66.8795H117.801V65.5731H112.41V66.8795ZM118.37 66.3529L119.761 58.4176L118.624 58.1645L117.232 66.0997L118.37 66.3529ZM119.762 58.4093C119.963 57.1814 120.178 55.8144 120.178 54.6991H119.018C119.018 55.6734 118.827 56.9187 118.622 58.1728L119.762 58.4093ZM120.178 54.6991C120.178 53.3927 119.967 51.5784 118.856 50.0691L117.963 50.9032C118.823 52.0717 119.018 53.5231 119.018 54.6991H120.178ZM118.858 50.0715C118.076 49.0001 116.895 48.1677 114.787 48.1677V49.474C116.562 49.474 117.409 50.1436 117.961 50.9008L118.858 50.0715ZM114.787 48.1677C113.327 48.1677 112.192 48.5544 111.274 49.0897L111.807 50.2498C112.569 49.8053 113.522 49.474 114.787 49.474V48.1677ZM111.281 49.0857C110.564 49.4895 109.783 50.1024 108.642 51.5558L109.511 52.4211C110.574 51.0661 111.242 50.5684 111.8 50.2538L111.281 49.0857ZM109.077 51.3355H109.019V52.6414H109.077V51.3355ZM109.591 52.0947L109.997 49.3187L108.853 49.1063L108.447 51.8823L109.591 52.0947ZM109.425 48.5595H104.584V49.8655H109.425V48.5595ZM104.007 49.1535C103.952 49.8417 103.782 51.2868 103.379 53.5242L104.515 53.7838C104.924 51.5146 105.101 50.0204 105.162 49.2719L104.007 49.1535ZM103.38 53.5195L101.032 66.0918L102.167 66.3608L104.514 53.7881L103.38 53.5195ZM127.298 46.4369L126.731 46.3014L126.582 47.0899H127.298V46.4369ZM132.515 46.4369V47.0899H132.984L133.082 46.5724L132.515 46.4369ZM133.326 42.1264L133.893 42.2619L134.042 41.473H133.326V42.1264ZM128.109 42.1264V41.473H127.64L127.542 41.9909L128.109 42.1264ZM123.559 66.2265L122.992 66.0902L122.843 66.8795H123.559V66.2265ZM128.776 66.2265V66.8795H129.245L129.343 66.3624L128.776 66.2265ZM131.993 49.2125L132.56 49.3488L132.709 48.5595H131.993V49.2125ZM126.776 49.2125V48.5595H126.307L126.209 49.0766L126.776 49.2125ZM127.298 47.0899H132.515V45.784H127.298V47.0899ZM133.082 46.5724L133.893 42.2619L132.759 41.9909L131.948 46.3014L133.082 46.5724ZM133.326 41.473H128.109V42.7794H133.326V41.473ZM127.542 41.9909L126.731 46.3014L127.865 46.5724L128.676 42.2619L127.542 41.9909ZM123.559 66.8795H128.776V65.5731H123.559V66.8795ZM129.343 66.3624L132.56 49.3488L131.426 49.0766L128.209 66.0902L129.343 66.3624ZM131.993 48.5595H126.776V49.8655H131.993V48.5595ZM126.209 49.0766L122.992 66.0902L124.126 66.3624L127.343 49.3488L126.209 49.0766ZM135.984 53.3273L135.413 53.2152L135.294 53.9803H135.984V53.3273ZM138.766 53.3273L139.333 53.4628L139.482 52.6739H138.766V53.3273ZM137.868 58.0951L137.301 57.9592L137.3 57.962L137.868 58.0951ZM138.679 65.4098L138.299 65.9032L138.303 65.9075L138.308 65.9119L138.679 65.4098ZM145.432 66.2915L145.509 66.9393L145.933 66.8755L146.004 66.4L145.432 66.2915ZM146.012 62.4057L146.583 62.5138L146.773 61.2467L145.753 61.8216L146.012 62.4057ZM143.114 62.5035L143.501 62.0182L143.486 62.0023L143.47 61.988L143.114 62.5035ZM143.954 53.3273V52.6739H143.485L143.387 53.1906L143.954 53.3273ZM147.751 53.3273V53.9803H148.239L148.322 53.4395L147.751 53.3273ZM148.388 49.2125L148.96 49.325L149.078 48.5595H148.388V49.2125ZM144.795 49.2125L144.229 49.0718L144.073 49.8655H144.795V49.2125ZM145.838 43.8896L146.404 44.0307L146.61 42.9799L145.688 43.2588L145.838 43.8896ZM140.331 45.5553L140.181 44.9245L139.842 45.0268L139.766 45.4127L140.331 45.5553ZM139.607 49.2125V49.8655H140.071L140.172 49.3548L139.607 49.2125ZM136.621 49.2125V48.5595H136.134L136.05 49.1004L136.621 49.2125ZM135.984 53.9803H138.766V52.6739H135.984V53.9803ZM138.199 53.1918L137.301 57.9592L138.434 58.2306L139.333 53.4628L138.199 53.1918ZM137.3 57.962C137.162 58.7108 136.824 60.2637 136.824 61.7198H137.984C137.984 60.4332 138.284 59.0465 138.435 58.2282L137.3 57.962ZM136.824 61.7198C136.824 62.8859 137.003 64.6348 138.299 65.9032L139.06 64.9169C138.153 64.0298 137.984 62.7745 137.984 61.7198H136.824ZM138.308 65.9119C139.318 66.8604 140.832 67.2713 142.186 67.2713V65.965C140.99 65.965 139.779 65.5925 139.05 64.9082L138.308 65.9119ZM142.186 67.2713C143.041 67.2713 144.642 67.0692 145.509 66.9393L145.356 65.6444C144.483 65.7756 142.954 65.965 142.186 65.965V67.2713ZM146.004 66.4L146.583 62.5138L145.44 62.2975L144.86 66.1833L146.004 66.4ZM145.753 61.8216C145.205 62.1299 144.601 62.2424 144.215 62.2424V63.5488C144.757 63.5488 145.543 63.4002 146.271 62.9897L145.753 61.8216ZM144.215 62.2424C143.898 62.2424 143.636 62.1545 143.501 62.0182L142.726 62.9893C143.171 63.441 143.779 63.5488 144.215 63.5488V62.2424ZM143.47 61.988C143.377 61.9068 143.201 61.6584 143.201 61.0993H142.041C142.041 61.9773 142.329 62.643 142.758 63.0194L143.47 61.988ZM143.201 61.0993C143.201 60.2411 143.497 58.8717 143.623 58.1969L142.489 57.9259C142.383 58.4917 142.041 60.0636 142.041 61.0993H143.201ZM143.623 58.1969L144.521 53.464L143.387 53.1906L142.489 57.9259L143.623 58.1969ZM143.954 53.9803H147.751V52.6739H143.954V53.9803ZM148.322 53.4395L148.96 49.325L147.818 49.1004L147.18 53.2152L148.322 53.4395ZM148.388 48.5595H144.795V49.8655H148.388V48.5595ZM145.36 49.3536L146.404 44.0307L145.272 43.7489L144.229 49.0718L145.36 49.3536ZM145.688 43.2588L140.181 44.9245L140.481 46.1861L145.988 44.5204L145.688 43.2588ZM139.766 45.4127L139.041 49.0703L140.172 49.3548L140.897 45.6972L139.766 45.4127ZM139.607 48.5595H136.621V49.8655H139.607V48.5595ZM136.05 49.1004L135.413 53.2152L136.555 53.4395L137.192 49.325L136.05 49.1004ZM169.628 49.2125L170.13 49.5402L170.634 48.5595H169.628V49.2125ZM164.092 49.2125V48.5595H163.745L163.582 48.9031L164.092 49.2125ZM158.962 59.9566V60.6096H159.309L159.473 60.2656L158.962 59.9566ZM158.904 59.9566L158.33 60.0489L158.402 60.6096H158.904V59.9566ZM157.542 49.2125L158.116 49.1202L158.045 48.5595H157.542V49.2125ZM152.238 49.2125V48.5595H151.516L151.673 49.354L152.238 49.2125ZM155.571 66.1611L156.118 66.377L156.173 66.2011L156.137 66.02L155.571 66.1611ZM154.644 67.9572L155.064 68.4069L155.067 68.4037L155.07 68.4002L154.644 67.9572ZM150.151 68.4798L150.352 67.8672L149.768 67.6236L149.595 68.2975L150.151 68.4798ZM149.05 72.7575L148.494 72.5756L148.327 73.2211L148.904 73.3899L149.05 72.7575ZM150.789 73.2147L150.659 73.8511L150.663 73.8522L150.668 73.8534L150.789 73.2147ZM157.136 72.0716L156.789 71.5494L156.786 71.5514L157.136 72.0716ZM159.716 68.4798L159.215 68.1521L159.212 68.1565L159.716 68.4798ZM169.628 48.5595H164.092V49.8655H169.628V48.5595ZM163.582 48.9031L158.452 59.6471L159.473 60.2656L164.603 49.522L163.582 48.9031ZM158.962 59.3032H158.904V60.6096H158.962V59.3032ZM159.478 59.8643L158.116 49.1202L156.968 49.3052L158.33 60.0489L159.478 59.8643ZM157.542 48.5595H152.238V49.8655H157.542V48.5595ZM151.673 49.354L155.005 66.3022L156.137 66.02L152.804 49.0714L151.673 49.354ZM155.024 65.9452C154.844 66.5244 154.506 67.1632 154.218 67.5142L155.07 68.4002C155.477 67.9025 155.893 67.1037 156.118 66.377L155.024 65.9452ZM154.224 67.5075C153.785 68.0277 153.184 68.3166 152.528 68.3166V69.6225C153.495 69.6225 154.401 69.193 155.064 68.4069L154.224 67.5075ZM152.528 68.3166C151.76 68.3166 151.075 68.1688 150.352 67.8672L149.95 69.092C150.792 69.4438 151.615 69.6225 152.528 69.6225V68.3166ZM149.595 68.2975L148.494 72.5756L149.606 72.9397L150.708 68.6617L149.595 68.2975ZM148.904 73.3899C149.696 73.6212 150.301 73.7579 150.659 73.8511L150.919 72.5784C150.524 72.4754 149.969 72.3513 149.196 72.1255L148.904 73.3899ZM150.668 73.8534C151.093 73.9561 151.862 74.1292 152.963 74.1292V72.8229C151.977 72.8229 151.296 72.6691 150.911 72.5764L150.668 73.8534ZM152.963 74.1292C155.15 74.1292 156.548 73.3946 157.486 72.5922L156.786 71.5514C156.043 72.1857 154.891 72.8229 152.963 72.8229V74.1292ZM157.484 72.5942C158.377 71.8402 159.237 70.7498 160.22 68.8027L159.212 68.1565C158.282 69.9974 157.519 70.9321 156.789 71.5494L157.484 72.5942ZM160.217 68.8075L170.13 49.5402L169.127 48.8852L159.215 68.1521L160.217 68.8075ZM182.981 66.2265L182.414 66.091L182.266 66.8795H182.981V66.2265ZM188.46 66.2265V66.8795H188.929L189.027 66.362L188.46 66.2265ZM191.908 47.8737V47.2207H191.439L191.341 47.7385L191.908 47.8737ZM196.98 47.8737V48.527H197.448L197.547 48.0123L196.98 47.8737ZM197.85 43.367L198.417 43.5061L198.569 42.714H197.85V43.367ZM182.286 43.367V42.714H181.819L181.719 43.2287L182.286 43.367ZM181.416 47.8737L180.85 47.735L180.698 48.527H181.416V47.8737ZM186.431 47.8737L186.998 48.0092L187.146 47.2207H186.431V47.8737ZM182.981 66.8795H188.46V65.5731H182.981V66.8795ZM189.027 66.362L192.476 48.0092L191.341 47.7385L187.892 66.091L189.027 66.362ZM191.908 48.527H196.98V47.2207H191.908V48.527ZM197.547 48.0123L198.417 43.5061L197.283 43.2287L196.414 47.735L197.547 48.0123ZM197.85 42.714H182.286V44.0204H197.85V42.714ZM181.719 43.2287L180.85 47.735L181.983 48.0123L182.853 43.5061L181.719 43.2287ZM181.416 48.527H186.431V47.2207H181.416V48.527ZM185.864 47.7385L182.414 66.091L183.549 66.362L186.998 48.0092L185.864 47.7385ZM198.821 49.2125V48.5595H198.292L198.244 49.1535L198.821 49.2125ZM198.184 53.6538L198.751 53.7881L198.752 53.7838L198.184 53.6538ZM195.836 66.2265L195.269 66.0918L195.122 66.8795H195.836V66.2265ZM201.053 66.2265V66.8795H201.523L201.62 66.3624L201.053 66.2265ZM202.531 58.3891L203.098 58.5246L203.099 58.5222L202.531 58.3891ZM203.806 55.0905L203.359 54.6749L203.356 54.6796L203.353 54.6844L203.806 55.0905ZM207.864 53.8824L208.047 53.2627L208.036 53.2584L208.024 53.2544L207.864 53.8824ZM208.821 54.4375L208.458 54.9475L209.158 55.5783L209.382 54.6008L208.821 54.4375ZM210.009 49.2454L210.57 49.4082L210.698 48.8488L210.221 48.6372L210.009 49.2454ZM204.995 49.9962L205.363 50.5006L205.366 50.4979L204.995 49.9962ZM203.14 52.7068V53.3598H203.511L203.666 52.9806L203.14 52.7068ZM203.082 52.7068L202.512 52.5868L202.384 53.3598H203.082V52.7068ZM203.662 49.2125L204.231 49.3326L204.359 48.5595H203.662V49.2125ZM198.244 49.1535C198.188 49.8417 198.018 51.2868 197.616 53.5242L198.752 53.7838C199.16 51.5146 199.339 50.0204 199.399 49.2719L198.244 49.1535ZM197.617 53.5195L195.269 66.0918L196.403 66.3608L198.751 53.7881L197.617 53.5195ZM195.836 66.8795H201.053V65.5731H195.836V66.8795ZM201.62 66.3624L203.098 58.5246L201.964 58.2532L200.486 66.0906L201.62 66.3624ZM203.099 58.5222C203.238 57.7706 203.562 56.4868 204.261 55.4967L203.353 54.6844C202.486 55.9151 202.114 57.4398 201.964 58.2556L203.099 58.5222ZM204.254 55.5066C204.491 55.1836 204.769 54.9003 205.145 54.6939C205.52 54.4871 206.025 54.3397 206.734 54.3397V53.0333C205.878 53.0333 205.194 53.2124 204.635 53.5199C204.076 53.8278 203.673 54.247 203.359 54.6749L204.254 55.5066ZM206.734 54.3397C207.045 54.3397 207.338 54.392 207.705 54.5105L208.024 53.2544C207.579 53.1114 207.177 53.0333 206.734 53.0333V54.3397ZM207.681 54.5021C207.992 54.6186 208.242 54.7518 208.458 54.9475L209.183 53.9276C208.821 53.6007 208.432 53.4074 208.047 53.2627L207.681 54.5021ZM209.382 54.6008L210.57 49.4082L209.448 49.0821L208.259 54.2743L209.382 54.6008ZM210.221 48.6372C209.32 48.2382 208.458 48.1677 207.98 48.1677V49.474C208.372 49.474 209.076 49.5338 209.797 49.8532L210.221 48.6372ZM207.98 48.1677C206.299 48.1677 205.216 48.9383 204.624 49.4946L205.366 50.4979C205.817 50.0747 206.646 49.474 207.98 49.474V48.1677ZM204.626 49.4922C204.087 49.9927 203.182 51.0462 202.614 52.433L203.666 52.9806C204.141 51.8197 204.917 50.9143 205.363 50.5006L204.626 49.4922ZM203.14 52.0538H203.082V53.3598H203.14V52.0538ZM203.652 52.8269L204.231 49.3326L203.092 49.0928L202.512 52.5868L203.652 52.8269ZM203.662 48.5595H198.821V49.8655H203.662V48.5595ZM230.133 49.2125L230.7 49.3472L230.848 48.5595H230.133V49.2125ZM224.916 49.2125V48.5595H224.446L224.349 49.077L224.916 49.2125ZM223.438 57.0499L224.004 57.1917V57.1858L223.438 57.0499ZM222.221 60.3156L221.778 59.8944L221.776 59.8975L222.221 60.3156ZM218.163 61.2625L218.522 60.749L218.515 60.7439L218.163 61.2625ZM219.322 49.2125L219.89 49.3437L220.033 48.5595H219.322V49.2125ZM213.932 49.2125V48.5595H213.455L213.363 49.0861L213.932 49.2125ZM212.54 57.1481L213.108 57.2813L213.109 57.2745L212.54 57.1481ZM213.178 64.9201L212.732 65.3369L212.734 65.3401L213.178 64.9201ZM220.221 65.7367L220.496 66.3113L220.503 66.3073L220.221 65.7367ZM222.656 63.4505V62.7975H222.374L222.2 63.0472L222.656 63.4505ZM222.714 63.4505L223.286 63.5567L223.396 62.7975H222.714V63.4505ZM222.308 66.2265L221.736 66.1203L221.625 66.8795H222.308V66.2265ZM227.147 66.2265V66.8795H227.669L227.725 66.2958L227.147 66.2265ZM227.786 61.7852L227.219 61.6508L227.217 61.6536L227.786 61.7852ZM230.133 48.5595H224.916V49.8655H230.133V48.5595ZM224.349 49.077L222.871 56.9144L224.004 57.1858L225.483 49.3484L224.349 49.077ZM222.872 56.9084C222.695 57.8082 222.456 58.9894 221.778 59.8944L222.664 60.7368C223.551 59.552 223.834 58.0555 224.004 57.1917L222.872 56.9084ZM221.776 59.8975C221.054 60.8727 220.09 61.0668 219.555 61.0668V62.3732C220.294 62.3732 221.648 62.1097 222.666 60.734L221.776 59.8975ZM219.555 61.0668C219.197 61.0668 218.775 60.9741 218.522 60.749L217.805 61.7761C218.362 62.2698 219.1 62.3732 219.555 62.3732V61.0668ZM218.515 60.7439C218.223 60.4919 218.134 60.1115 218.134 59.7605H216.975C216.975 60.3239 217.118 61.1845 217.811 61.7816L218.515 60.7439ZM218.134 59.7605C218.134 59.554 218.128 59.0441 218.441 57.311L217.305 57.0495C216.981 58.8436 216.975 59.4443 216.975 59.7605H218.134ZM218.441 57.311L219.89 49.3437L218.754 49.0818L217.305 57.0495L218.441 57.311ZM219.322 48.5595H213.932V49.8655H219.322V48.5595ZM213.363 49.0861L211.972 57.0213L213.109 57.2745L214.5 49.3393L213.363 49.0861ZM211.973 57.0146C211.68 58.5979 211.555 59.4981 211.555 60.7403H212.714C212.714 59.6313 212.821 58.8329 213.108 57.2813L211.973 57.0146ZM211.555 60.7403C211.555 61.8494 211.601 63.8012 212.732 65.3369L213.624 64.5033C212.784 63.3614 212.714 61.8517 212.714 60.7403H211.555ZM212.734 65.3401C213.446 66.2946 214.706 67.2713 216.83 67.2713V65.965C215.07 65.965 214.128 65.1784 213.622 64.5001L212.734 65.3401ZM216.83 67.2713C217.875 67.2713 219.313 67.0324 220.496 66.3113L219.945 65.1622C218.985 65.747 217.756 65.965 216.83 65.965V67.2713ZM220.503 66.3073C220.774 66.1373 222.079 65.3342 223.111 63.8539L222.2 63.0472C221.319 64.3099 220.19 65.0089 219.939 65.1658L220.503 66.3073ZM222.656 64.1039H222.714V62.7975H222.656V64.1039ZM222.141 63.3447L221.736 66.1203L222.88 66.3327L223.286 63.5567L222.141 63.3447ZM222.308 66.8795H227.147V65.5731H222.308V66.8795ZM227.725 66.2958C227.81 65.3999 227.952 64.1146 228.353 61.9167L227.217 61.6536C226.807 63.8967 226.661 65.224 226.572 66.1567L227.725 66.2958ZM228.353 61.9199L230.7 49.3472L229.567 49.0782L227.219 61.6508L228.353 61.9199ZM245.925 61.5565L246.494 61.6802L246.7 60.4713L245.697 60.9563L245.925 61.5565ZM240.274 54.5354L240.69 54.9895L240.695 54.9839L240.274 54.5354ZM246.94 54.0457L246.68 54.6297L247.289 54.9732L247.493 54.2402L246.94 54.0457ZM248.069 49.9638L248.622 50.1583L248.781 49.5889L248.293 49.3607L248.069 49.9638ZM245.607 49.1146L245.715 48.4731L245.71 48.472L245.607 49.1146ZM235.52 64.3325L235.935 63.8768L235.933 63.8749L235.52 64.3325ZM245.172 65.965L245.345 66.5878L245.674 66.4705L245.739 66.0886L245.172 65.965ZM245.697 60.9563C244.568 61.5015 243.403 61.6548 242.679 61.6548V62.9608C243.519 62.9608 244.848 62.7872 246.154 62.1568L245.697 60.9563ZM242.679 61.6548C241.992 61.6548 240.948 61.4916 240.278 60.7356L239.458 61.6592C240.468 62.7975 241.916 62.9608 242.679 62.9608V61.6548ZM240.278 60.7356C239.684 60.0691 239.548 59.1091 239.548 58.4216H238.39C238.39 59.2362 238.542 60.6274 239.458 61.6592L240.278 60.7356ZM239.548 58.4216C239.548 57.2191 239.973 55.8255 240.69 54.9895L239.857 54.0817C238.891 55.205 238.39 56.9465 238.39 58.4216H239.548ZM240.695 54.9839C241.089 54.5136 241.985 53.7846 243.578 53.7846V52.4782C241.634 52.4782 240.442 53.382 239.853 54.0873L240.695 54.9839ZM243.578 53.7846C244.075 53.7846 245.341 53.8749 246.68 54.6297L247.2 53.4616C245.641 52.584 244.18 52.4782 243.578 52.4782V53.7846ZM247.493 54.2402L248.622 50.1583L247.515 49.7692L246.387 53.8511L247.493 54.2402ZM248.293 49.3607C247.059 48.7846 246.353 48.6098 245.715 48.4731L245.497 49.7561C246.078 49.8805 246.705 50.0327 247.847 50.5672L248.293 49.3607ZM245.71 48.472C244.742 48.2738 244.006 48.1677 243.316 48.1677V49.474C243.902 49.474 244.557 49.5636 245.502 49.7573L245.71 48.472ZM243.316 48.1677C241.336 48.1677 238.347 48.6055 235.874 51.2535L236.672 52.2008C238.835 49.8849 241.47 49.474 243.316 49.474V48.1677ZM235.874 51.2535C233.399 53.903 232.998 56.9472 232.998 58.9442H234.158C234.158 57.1529 234.51 54.5152 236.672 52.2008L235.874 51.2535ZM232.998 58.9442C232.998 60.7387 233.44 62.8772 235.106 64.7898L235.933 63.8749C234.528 62.2606 234.158 60.4804 234.158 58.9442H232.998ZM235.104 64.7882C236.289 66.1575 238.034 67.2713 240.997 67.2713V65.965C238.341 65.965 236.896 64.9891 235.935 63.8768L235.104 64.7882ZM240.997 67.2713C241.857 67.2713 243.609 67.2059 245.345 66.5878L244.996 65.3421C243.43 65.9 241.819 65.965 240.997 65.965V67.2713ZM245.739 66.0886L246.494 61.6802L245.356 61.4329L244.601 65.8417L245.739 66.0886ZM250.116 66.2265L249.55 66.091L249.402 66.8795H250.116V66.2265ZM255.333 66.2265V66.8795H255.804L255.9 66.3624L255.333 66.2265ZM256.928 57.8011V57.1481H256.458L256.361 57.6648L256.928 57.8011ZM256.986 57.8011L257.522 57.5507L257.374 57.1481H256.986V57.8011ZM260.087 66.2265L259.551 66.4765L259.699 66.8795H260.087V66.2265ZM265.883 66.2265V66.8795H266.824L266.401 65.9325L265.883 66.2265ZM261.941 57.4092L261.502 56.9833L261.249 57.3138L261.424 57.7028L261.941 57.4092ZM268.202 49.2125L268.641 49.6384L269.466 48.5595H268.202V49.2125ZM262.261 49.2125V48.5595H261.979L261.807 48.808L262.261 49.2125ZM257.246 56.3644V57.0174H257.526L257.701 56.7689L257.246 56.3644ZM257.188 56.3644L256.621 56.2289L256.473 57.0174H257.188V56.3644ZM259.943 41.7345L260.51 41.8696L260.658 41.0811H259.943V41.7345ZM254.726 41.7345V41.0811H254.256L254.157 41.599L254.726 41.7345ZM250.116 66.8795H255.333V65.5731H250.116V66.8795ZM255.9 66.3624L257.495 57.9374L256.361 57.6648L254.766 66.0902L255.9 66.3624ZM256.928 58.4541H256.986V57.1481H256.928V58.4541ZM256.451 58.0515L259.551 66.4765L260.622 65.9761L257.522 57.5507L256.451 58.0515ZM260.087 66.8795H265.883V65.5731H260.087V66.8795ZM266.401 65.9325L262.459 57.1156L261.424 57.7028L265.366 66.5205L266.401 65.9325ZM262.38 57.8352L268.641 49.6384L267.763 48.7866L261.502 56.9833L262.38 57.8352ZM268.202 48.5595H262.261V49.8655H268.202V48.5595ZM261.807 48.808L256.791 55.9595L257.701 56.7689L262.716 49.6174L261.807 48.808ZM257.246 55.7114H257.188V57.0174H257.246V55.7114ZM257.755 56.4999L260.51 41.8696L259.374 41.599L256.621 56.2289L257.755 56.4999ZM259.943 41.0811H254.726V42.3875H259.943V41.0811ZM254.157 41.599L249.55 66.091L250.683 66.362L255.293 41.8696L254.157 41.599ZM273.383 46.4369L272.816 46.3014L272.669 47.0899H273.383V46.4369ZM278.6 46.4369V47.0899H279.07L279.167 46.5724L278.6 46.4369ZM279.411 42.1264L279.98 42.2619L280.128 41.473H279.411V42.1264ZM274.194 42.1264V41.473H273.726L273.627 41.9909L274.194 42.1264ZM269.645 66.2265L269.078 66.0902L268.928 66.8795H269.645V66.2265ZM274.861 66.2265V66.8795H275.33L275.428 66.3624L274.861 66.2265ZM278.078 49.2125L278.645 49.3488L278.795 48.5595H278.078V49.2125ZM272.861 49.2125V48.5595H272.393L272.295 49.0766L272.861 49.2125ZM273.383 47.0899H278.6V45.784H273.383V47.0899ZM279.167 46.5724L279.98 42.2619L278.844 41.9909L278.033 46.3014L279.167 46.5724ZM279.411 41.473H274.194V42.7794H279.411V41.473ZM273.627 41.9909L272.816 46.3014L273.95 46.5724L274.761 42.2619L273.627 41.9909ZM269.645 66.8795H274.861V65.5731H269.645V66.8795ZM275.428 66.3624L278.645 49.3488L277.511 49.0766L274.295 66.0902L275.428 66.3624ZM278.078 48.5595H272.861V49.8655H278.078V48.5595ZM272.295 49.0766L269.078 66.0902L270.211 66.3624L273.428 49.3488L272.295 49.0766ZM280.881 66.2265L280.314 66.0918L280.166 66.8795H280.881V66.2265ZM286.097 66.2265V66.8795H286.568L286.664 66.3624L286.097 66.2265ZM287.576 58.3891L288.142 58.5246V58.5199L287.576 58.3891ZM288.938 54.9602L288.517 54.5108L288.514 54.5144L288.512 54.518L288.938 54.9602ZM293.14 58.2584L293.709 58.3895V58.3836L293.14 58.2584ZM291.691 66.2265L291.124 66.0953L290.98 66.8795H291.691V66.2265ZM297.082 66.2265V66.8795H297.559L297.651 66.3529L297.082 66.2265ZM298.474 58.2908L299.042 58.4176L299.045 58.4093L298.474 58.2908ZM297.691 50.4864L297.243 50.9008L297.246 50.9032L297.691 50.4864ZM290.822 49.6698L291.082 50.2538L291.088 50.2498L290.822 49.6698ZM288.358 51.9885V52.6414H288.62L288.792 52.4211L288.358 51.9885ZM288.302 51.9885L287.728 51.8823L287.616 52.6414H288.302V51.9885ZM288.707 49.2125L289.278 49.3187L289.39 48.5595H288.707V49.2125ZM283.866 49.2125V48.5595H283.335L283.288 49.1535L283.866 49.2125ZM283.228 53.6538L283.795 53.7881L283.797 53.7838L283.228 53.6538ZM280.881 66.8795H286.097V65.5731H280.881V66.8795ZM286.664 66.3624L288.142 58.5246L287.009 58.2532L285.53 66.0906L286.664 66.3624ZM288.142 58.5199C288.42 56.9865 288.794 56.1005 289.365 55.4024L288.512 54.518C287.748 55.4523 287.309 56.591 287.009 58.2584L288.142 58.5199ZM289.359 55.4091C289.811 54.8714 290.394 54.3722 291.46 54.3722V53.0662C289.975 53.0662 289.108 53.8079 288.517 54.5108L289.359 55.4091ZM291.46 54.3722C292.19 54.3722 292.49 54.596 292.616 54.7359L293.436 53.8127C293.037 53.365 292.41 53.0662 291.46 53.0662V54.3722ZM292.616 54.7359C292.784 54.9273 292.909 55.3168 292.909 55.7764H294.067C294.067 55.1258 293.902 54.3397 293.436 53.8127L292.616 54.7359ZM292.909 55.7764C292.909 56.1857 292.811 56.7555 292.571 58.1331L293.709 58.3836C293.935 57.0831 294.067 56.347 294.067 55.7764H292.909ZM292.573 58.1272L291.124 66.0953L292.26 66.3576L293.709 58.3895L292.573 58.1272ZM291.691 66.8795H297.082V65.5731H291.691V66.8795ZM297.651 66.3529L299.042 58.4176L297.904 58.1645L296.514 66.0997L297.651 66.3529ZM299.045 58.4093C299.244 57.1814 299.459 55.8144 299.459 54.6991H298.301C298.301 55.6734 298.108 56.9187 297.904 58.1728L299.045 58.4093ZM299.459 54.6991C299.459 53.3927 299.249 51.5784 298.138 50.0691L297.246 50.9032C298.106 52.0717 298.301 53.5231 298.301 54.6991H299.459ZM298.14 50.0715C297.358 49.0001 296.175 48.1677 294.067 48.1677V49.474C295.844 49.474 296.69 50.1436 297.243 50.9008L298.14 50.0715ZM294.067 48.1677C292.609 48.1677 291.474 48.5544 290.555 49.0897L291.088 50.2498C291.852 49.8053 292.804 49.474 294.067 49.474V48.1677ZM290.562 49.0857C289.845 49.4895 289.063 50.1024 287.923 51.5558L288.792 52.4211C289.856 51.0661 290.524 50.5684 291.082 50.2538L290.562 49.0857ZM288.358 51.3355H288.302V52.6414H288.358V51.3355ZM288.873 52.0947L289.278 49.3187L288.133 49.1063L287.728 51.8823L288.873 52.0947ZM288.707 48.5595H283.866V49.8655H288.707V48.5595ZM283.288 49.1535C283.233 49.8417 283.064 51.2868 282.661 53.5242L283.797 53.7838C284.205 51.5146 284.382 50.0204 284.444 49.2719L283.288 49.1535ZM282.661 53.5195L280.314 66.0918L281.447 66.3608L283.795 53.7881L282.661 53.5195ZM303.565 72.3985L303.003 72.24L302.866 72.8538L303.406 73.0269L303.565 72.3985ZM319.157 64.8876L319.722 65.0354L319.724 65.0311L319.157 64.8876ZM321.476 53.2948L320.916 53.128L320.914 53.1395L320.912 53.151L321.476 53.2948ZM322.433 49.2125L322.995 49.3793L323.185 48.5595H322.433V49.2125ZM317.594 49.2125V48.5595H317.137L317.03 49.0588L317.594 49.2125ZM316.927 52.315V52.9679H317.384L317.489 52.4687L316.927 52.315ZM316.868 52.315L316.322 52.5305L316.456 52.9679H316.868V52.315ZM314.926 49.6373L315.231 49.081L315.226 49.0786L314.926 49.6373ZM306.23 51.1394L305.829 50.6674V50.6694L306.23 51.1394ZM305.274 64.2671L304.857 64.7204L304.862 64.7248L304.864 64.7287L305.274 64.2671ZM312.637 65.4098L312.921 65.9792L312.926 65.9769L312.928 65.9741L312.637 65.4098ZM314.666 63.2548L315.076 62.7928L314.568 62.221L314.178 62.9005L314.666 63.2548ZM314.725 63.3198L315.284 63.4862L315.369 63.1232L315.134 62.8582L314.725 63.3198ZM314.579 63.9406L315.137 64.1154L315.139 64.1067L314.579 63.9406ZM304.58 67.8264L304.871 67.2626L304.203 66.824L304.018 67.6683L304.58 67.8264ZM314.608 59.8583L314.124 59.4962L314.122 59.5001L314.608 59.8583ZM309.68 60.8382L310.103 60.3916L310.099 60.3873L309.68 60.8382ZM309.884 55.058L309.4 54.6987L309.398 54.7026L309.393 54.7074L309.884 55.058ZM314.81 54.1439L315.233 53.6954L315.226 53.6883L315.22 53.6819L314.81 54.1439ZM303.406 73.0269C305.776 73.7845 306.994 74.1292 309.479 74.1292V72.8229C307.151 72.8229 306.049 72.5146 303.724 71.7701L303.406 73.0269ZM309.479 74.1292C312.195 74.1292 314.805 73.6767 316.535 72.1255L315.811 71.1036C314.411 72.3608 312.151 72.8229 309.479 72.8229V74.1292ZM316.535 72.1255C318.718 70.1638 319.355 66.8153 319.722 65.0354L318.593 64.7398C318.206 66.6172 317.627 69.4735 315.811 71.1036L316.535 72.1255ZM319.724 65.0311L322.043 53.4383L320.912 53.151L318.593 64.7438L319.724 65.0311ZM322.038 53.4612L322.995 49.3793L321.872 49.0457L320.916 53.128L322.038 53.4612ZM322.433 48.5595H317.594V49.8655H322.433V48.5595ZM317.03 49.0588L316.362 52.1612L317.489 52.4687L318.156 49.3662L317.03 49.0588ZM316.927 51.662H316.868V52.9679H316.927V51.662ZM317.415 52.0994C316.956 50.6199 316.068 49.6626 315.231 49.081L314.624 50.1936C315.291 50.6568 315.97 51.3977 316.322 52.5305L317.415 52.0994ZM315.226 49.0786C314.144 48.3392 313.009 48.1677 311.94 48.1677V49.474C312.901 49.474 313.797 49.6289 314.626 50.1959L315.226 49.0786ZM311.94 48.1677C310.69 48.1677 308.029 48.2964 305.829 50.6674L306.631 51.6113C308.491 49.6064 310.755 49.474 311.94 49.474V48.1677ZM305.829 50.6694C304.049 52.6042 302.985 55.6234 302.985 58.7806H304.145C304.145 55.9293 305.11 53.2663 306.634 51.6093L305.829 50.6694ZM302.985 58.7806C302.985 60.161 303.159 62.7341 304.857 64.7204L305.693 63.8138C304.317 62.2079 304.145 60.0786 304.145 58.7806H302.985ZM304.864 64.7287C305.606 65.5636 307.136 66.8795 309.738 66.8795V65.5731C307.53 65.5731 306.277 64.4728 305.684 63.8051L304.864 64.7287ZM309.738 66.8795C310.865 66.8795 311.893 66.6298 312.921 65.9792L312.352 64.8409C311.524 65.3659 310.697 65.5731 309.738 65.5731V66.8795ZM312.928 65.9741C313.683 65.478 314.512 64.7264 315.152 63.609L314.178 62.9005C313.658 63.8075 312.979 64.4276 312.346 64.8456L312.928 65.9741ZM314.256 63.7168L314.315 63.7818L315.134 62.8582L315.076 62.7928L314.256 63.7168ZM314.163 63.1537L314.019 63.7742L315.139 64.1067L315.284 63.4862L314.163 63.1537ZM314.019 63.7659C313.714 65.0033 313.401 66.4531 312.505 67.3779L313.289 68.3415C314.48 67.1105 314.863 65.2292 315.137 64.1154L314.019 63.7659ZM312.505 67.3779C311.965 67.933 310.986 68.5123 309.129 68.5123V69.8187C311.214 69.8187 312.496 69.1578 313.289 68.3415L312.505 67.3779ZM309.129 68.5123C307.192 68.5123 305.843 67.9005 304.871 67.2626L304.286 68.3907C305.404 69.1241 306.952 69.8187 309.129 69.8187V68.5123ZM304.018 67.6683L303.003 72.24L304.127 72.5566L305.142 67.9849L304.018 67.6683ZM314.926 56.3969C314.926 57.4501 314.581 58.7267 314.124 59.4962L315.09 60.2209C315.679 59.2267 316.086 57.6953 316.086 56.3969H314.926ZM314.122 59.5001C313.596 60.4051 312.776 61.0668 311.68 61.0668V62.3732C313.251 62.3732 314.402 61.4016 315.092 60.2169L314.122 59.5001ZM311.68 61.0668C310.952 61.0668 310.417 60.7681 310.103 60.3916L309.257 61.2847C309.814 61.9532 310.668 62.3732 311.68 62.3732V61.0668ZM310.099 60.3873C309.64 59.8449 309.535 59.132 309.535 58.5848H308.376C308.376 59.279 308.504 60.3948 309.261 61.2891L310.099 60.3873ZM309.535 58.5848C309.535 57.2737 310.007 56.0553 310.372 55.4087L309.393 54.7074C308.948 55.4975 308.376 56.9571 308.376 58.5848H309.535ZM310.368 55.4174C311.118 54.1356 312.077 53.9803 312.724 53.9803V52.6739C311.864 52.6739 310.446 52.9109 309.4 54.6987L310.368 55.4174ZM312.724 53.9803C313.387 53.9803 313.981 54.1328 314.4 54.6055L315.22 53.6819C314.48 52.8483 313.511 52.6739 312.724 52.6739V53.9803ZM314.389 54.5921C314.749 55.0228 314.926 55.625 314.926 56.3969H316.086C316.086 55.4055 315.856 54.4403 315.233 53.6954L314.389 54.5921ZM338.345 43.367V42.714H337.875L337.779 43.2311L338.345 43.367ZM334.027 66.2265L333.46 66.0902L333.31 66.8795H334.027V66.2265ZM339.418 66.2265V66.8795H339.886L339.985 66.3624L339.418 66.2265ZM343.737 43.367L344.304 43.5033L344.452 42.714H343.737V43.367ZM337.779 43.2311L333.46 66.0902L334.593 66.3624L338.912 43.5033L337.779 43.2311ZM334.027 66.8795H339.418V65.5731H334.027V66.8795ZM339.985 66.3624L344.304 43.5033L343.171 43.2311L338.851 66.0902L339.985 66.3624ZM343.737 42.714H338.345V44.0204H343.737V42.714ZM345.603 66.2265L345.036 66.0918L344.888 66.8795H345.603V66.2265ZM350.82 66.2265V66.8795H351.29L351.387 66.3624L350.82 66.2265ZM352.298 58.3891L352.865 58.5246L352.867 58.5199L352.298 58.3891ZM353.66 54.9602L353.239 54.5108L353.237 54.5144L353.235 54.518L353.66 54.9602ZM357.862 58.2584L358.432 58.3895V58.3836L357.862 58.2584ZM356.413 66.2265L355.847 66.0953L355.703 66.8795H356.413V66.2265ZM361.805 66.2265V66.8795H362.282L362.374 66.3529L361.805 66.2265ZM363.196 58.2908L363.765 58.4176V58.4093L363.196 58.2908ZM362.414 50.4864L361.966 50.9008V50.9032L362.414 50.4864ZM355.544 49.6698L355.804 50.2538L355.811 50.2498L355.544 49.6698ZM353.08 51.9885V52.6414H353.342L353.515 52.4211L353.08 51.9885ZM353.022 51.9885L352.451 51.8823L352.341 52.6414H353.022V51.9885ZM353.43 49.2125L354.001 49.3187L354.11 48.5595H353.43V49.2125ZM348.589 49.2125V48.5595H348.058L348.011 49.1535L348.589 49.2125ZM347.951 53.6538L348.517 53.7881L348.519 53.7838L347.951 53.6538ZM345.603 66.8795H350.82V65.5731H345.603V66.8795ZM351.387 66.3624L352.865 58.5246L351.731 58.2532L350.253 66.0906L351.387 66.3624ZM352.867 58.5199C353.143 56.9865 353.517 56.1005 354.088 55.4024L353.235 54.518C352.471 55.4523 352.032 56.591 351.729 58.2584L352.867 58.5199ZM354.081 55.4091C354.534 54.8714 355.116 54.3722 356.183 54.3722V53.0662C354.697 53.0662 353.831 53.8079 353.239 54.5108L354.081 55.4091ZM356.183 54.3722C356.913 54.3722 357.213 54.596 357.338 54.7359L358.156 53.8127C357.76 53.365 357.132 53.0662 356.183 53.0662V54.3722ZM357.338 54.7359C357.506 54.9273 357.632 55.3168 357.632 55.7764H358.79C358.79 55.1258 358.626 54.3397 358.156 53.8127L357.338 54.7359ZM357.632 55.7764C357.632 56.1857 357.533 56.7555 357.294 58.1331L358.432 58.3836C358.658 57.0831 358.79 56.347 358.79 55.7764H357.632ZM357.296 58.1272L355.847 66.0953L356.982 66.3576L358.432 58.3895L357.296 58.1272ZM356.413 66.8795H361.805V65.5731H356.413V66.8795ZM362.374 66.3529L363.765 58.4176L362.627 58.1645L361.236 66.0997L362.374 66.3529ZM363.765 58.4093C363.967 57.1814 364.181 55.8144 364.181 54.6991H363.021C363.021 55.6734 362.831 56.9187 362.625 58.1728L363.765 58.4093ZM364.181 54.6991C364.181 53.3927 363.971 51.5784 362.86 50.0691L361.966 50.9032C362.826 52.0717 363.021 53.5231 363.021 54.6991H364.181ZM362.862 50.0715C362.081 49.0001 360.898 48.1677 358.79 48.1677V49.474C360.566 49.474 361.413 50.1436 361.966 50.9008L362.862 50.0715ZM358.79 48.1677C357.332 48.1677 356.196 48.5544 355.277 49.0897L355.811 50.2498C356.572 49.8053 357.526 49.474 358.79 49.474V48.1677ZM355.284 49.0857C354.568 49.4895 353.786 50.1024 352.646 51.5558L353.515 52.4211C354.579 51.0661 355.246 50.5684 355.804 50.2538L355.284 49.0857ZM353.08 51.3355H353.022V52.6414H353.08V51.3355ZM353.595 52.0947L354.001 49.3187L352.856 49.1063L352.451 51.8823L353.595 52.0947ZM353.43 48.5595H348.589V49.8655H353.43V48.5595ZM348.011 49.1535C347.955 49.8417 347.785 51.2868 347.381 53.5242L348.519 53.7838C348.927 51.5146 349.106 50.0204 349.165 49.2719L348.011 49.1535ZM347.384 53.5195L345.036 66.0918L346.17 66.3608L348.517 53.7881L347.384 53.5195ZM380.634 61.5565L381.203 61.6802L381.409 60.4713L380.406 60.9563L380.634 61.5565ZM374.983 54.5354L375.4 54.9895L375.404 54.9839L374.983 54.5354ZM381.649 54.0457L381.389 54.6297L381.999 54.9732L382.202 54.2402L381.649 54.0457ZM382.778 49.9638L383.331 50.1583L383.49 49.5889L383 49.3607L382.778 49.9638ZM380.316 49.1146L380.424 48.4731L380.419 48.472L380.316 49.1146ZM370.23 64.3325L370.644 63.8768V63.8749L370.23 64.3325ZM379.879 65.965L380.054 66.5878L380.384 66.4705L380.451 66.0886L379.879 65.965ZM380.406 60.9563C379.277 61.5015 378.112 61.6548 377.389 61.6548V62.9608C378.229 62.9608 379.557 62.7872 380.863 62.1568L380.406 60.9563ZM377.389 61.6548C376.701 61.6548 375.657 61.4916 374.987 60.7356L374.168 61.6592C375.178 62.7975 376.625 62.9608 377.389 62.9608V61.6548ZM374.987 60.7356C374.396 60.0691 374.257 59.1091 374.257 58.4216H373.099C373.099 59.2362 373.251 60.6274 374.168 61.6592L374.987 60.7356ZM374.257 58.4216C374.257 57.2191 374.683 55.8255 375.4 54.9895L374.566 54.0817C373.601 55.205 373.099 56.9465 373.099 58.4216H374.257ZM375.404 54.9839C375.798 54.5136 376.694 53.7846 378.287 53.7846V52.4782C376.345 52.4782 375.153 53.382 374.562 54.0873L375.404 54.9839ZM378.287 53.7846C378.786 53.7846 380.05 53.8749 381.389 54.6297L381.907 53.4616C380.35 52.584 378.889 52.4782 378.287 52.4782V53.7846ZM382.202 54.2402L383.331 50.1583L382.225 49.7692L381.096 53.8511L382.202 54.2402ZM383 49.3607C381.768 48.7846 381.062 48.6098 380.424 48.4731L380.206 49.7561C380.785 49.8805 381.412 50.0327 382.556 50.5672L383 49.3607ZM380.419 48.472C379.452 48.2738 378.715 48.1677 378.025 48.1677V49.474C378.612 49.474 379.266 49.5636 380.211 49.7573L380.419 48.472ZM378.025 48.1677C376.047 48.1677 373.057 48.6055 370.584 51.2535L371.381 52.2008C373.545 49.8849 376.179 49.474 378.025 49.474V48.1677ZM370.584 51.2535C368.108 53.903 367.707 56.9472 367.707 58.9442H368.868C368.868 57.1529 369.219 54.5152 371.381 52.2008L370.584 51.2535ZM367.707 58.9442C367.707 60.7387 368.148 62.8772 369.815 64.7898L370.644 63.8749C369.237 62.2606 368.868 60.4804 368.868 58.9442H367.707ZM369.815 64.7898C370.998 66.1595 372.743 67.2713 375.706 67.2713V65.965C373.05 65.965 371.605 64.9891 370.644 63.8768L369.815 64.7898ZM375.706 67.2713C376.567 67.2713 378.318 67.2059 380.054 66.5878L379.707 65.3421C378.139 65.9 376.529 65.965 375.706 65.965V67.2713ZM380.451 66.0886L381.203 61.6802L380.066 61.4329L379.311 65.8417L380.451 66.0886ZM385.058 66.2265L384.492 66.0922L384.344 66.8795H385.058V66.2265ZM389.955 66.2265V66.8795H390.425L390.524 66.3604L389.955 66.2265ZM390.94 60.9361L391.51 61.0704L391.655 60.2831H390.94V60.9361ZM386.044 60.9361V60.2831H385.571L385.475 60.8021L386.044 60.9361ZM385.058 66.8795H389.955V65.5731H385.058V66.8795ZM390.524 66.3604L391.51 61.0704L390.374 60.8021L389.388 66.0922L390.524 66.3604ZM390.94 60.2831H386.044V61.589H390.94V60.2831ZM385.475 60.8021L384.492 66.0922L385.625 66.3604L386.611 61.0704L385.475 60.8021Z" fill="white"/>
</svg>
