<svg width="24" height="24" viewBox="0 0 24 24" fill="none" xmlns="http://www.w3.org/2000/svg">
<path d="M12 15.4286C10.1064 15.4285 8.57146 13.8935 8.57147 12C8.57149 10.1064 10.1064 8.57146 12 8.57142C13.8935 8.57137 15.4286 10.1064 15.4286 12C15.4286 13.8935 13.8935 15.4286 12 15.4286Z" fill="white"/>
<path fill-rule="evenodd" clip-rule="evenodd" d="M24 6.49677V17.5032C24 21.0855 21.0855 24 17.5032 24H6.49677C2.91449 24 0 21.0855 0 17.5032V6.49677C0 2.91449 2.91449 0 6.49677 0H17.5032C21.0855 0 24 2.91449 24 6.49677ZM12 5.43765C8.38162 5.43765 5.43765 8.38162 5.43765 12C5.43765 15.6183 8.38162 18.5623 12 18.5623C15.6183 18.5623 18.5623 15.6183 18.5623 12C18.5623 8.38162 15.6183 5.43765 12 5.43765ZM16.7801 5.04617C16.7801 3.97683 17.65 3.10708 18.7192 3.10708C19.7885 3.10708 20.6584 3.97683 20.6584 5.04617C20.6584 6.1155 19.7885 6.98544 18.7192 6.98544C17.65 6.98544 16.7801 6.1155 16.7801 5.04617Z" fill="white"/>
</svg>
