<svg width="40" height="40" viewBox="0 0 40 40" fill="none" xmlns="http://www.w3.org/2000/svg">
<path d="M19.9302 5.08281C20.3648 5.08281 20.717 4.73055 20.717 4.29602V0.786797C20.717 0.352266 20.3648 0 19.9302 0C19.4957 0 19.1434 0.352266 19.1434 0.786797V4.29602C19.1435 4.73055 19.4958 5.08281 19.9302 5.08281Z" fill="#0B225C"/>
<path d="M39.1625 27.0301L37.7726 25.644C37.2781 25.1502 36.6192 24.8782 35.917 24.8782C35.468 24.8782 35.037 24.9899 34.655 25.1992L32.0358 22.5831L32.1634 22.4557C33.2259 21.391 33.2256 19.6609 32.1633 18.5998C31.7837 18.2195 31.31 17.9659 30.7937 17.8592C30.8648 17.6138 30.9022 17.3568 30.9022 17.0937C30.9022 16.3629 30.6183 15.6776 30.1044 15.1658C29.7247 14.7854 29.2511 14.5319 28.7348 14.4251C28.8059 14.1797 28.8433 13.9228 28.8433 13.6597C28.8433 12.9287 28.5594 12.2435 28.0446 11.7309C27.6559 11.3426 27.178 11.0969 26.6762 10.9922C26.9446 10.0667 26.7152 9.02537 25.9871 8.296C25.381 7.69248 24.5586 7.4331 23.766 7.51717L18.5758 6.53475C17.7842 6.38459 16.7957 6.28529 16.1717 6.85443C16.1324 6.89037 16.0922 6.9317 16.0527 6.97771C15.0852 6.62506 13.9567 6.83506 13.182 7.60896C12.668 8.12232 12.3849 8.80732 12.3849 9.53779C12.3849 9.80092 12.4221 10.0579 12.4931 10.3033C11.9774 10.41 11.5043 10.6633 11.1259 11.0423C10.6109 11.5552 10.327 12.2394 10.3264 12.969C10.3262 13.2328 10.3636 13.4906 10.435 13.7367C9.91899 13.8431 9.44563 14.0959 9.0661 14.475C8.5511 14.9894 8.26751 15.6748 8.26751 16.4049C8.26751 16.9641 8.43446 17.4969 8.74383 17.9469C8.35321 18.0793 7.9954 18.2997 7.69579 18.599C6.63251 19.6609 6.63211 21.3911 7.69649 22.4573L7.8236 22.5839L5.20407 25.1987C4.23055 24.7403 3.0311 24.912 2.22774 25.7144L0.836957 27.1012C0.342269 27.5953 0.0699252 28.2544 0.0698471 28.9569C0.0698471 29.6596 0.342269 30.3187 0.836957 30.8129L2.57266 32.5465C2.88008 32.8536 3.37829 32.8533 3.68532 32.5458C3.99243 32.2384 3.99211 31.7402 3.68469 31.4332L1.94899 29.6996C1.75196 29.5028 1.64344 29.239 1.64344 28.957C1.64344 28.6751 1.75196 28.4114 1.94852 28.2151L3.33938 26.8281C3.68688 26.481 4.21875 26.4293 4.62266 26.6708C4.6511 26.7135 4.68399 26.7541 4.72165 26.7919C4.78907 26.8594 4.86602 26.9112 4.94774 26.9491L12.9238 34.9134C12.9616 34.996 13.0137 35.0737 13.0816 35.1417C13.1477 35.2079 13.2231 35.259 13.3031 35.2967C13.4717 35.4874 13.5649 35.731 13.5649 35.9908C13.5649 36.2729 13.4564 36.5365 13.2594 36.7333L11.8699 38.1212C11.4594 38.5299 10.7916 38.5298 10.3823 38.1224L8.64657 36.3865C8.3393 36.0793 7.84118 36.0793 7.53391 36.3865C7.22665 36.6938 7.22665 37.1919 7.53391 37.4992L9.27087 39.2363C9.78212 39.7454 10.4535 39.9999 11.1252 39.9999C11.7971 39.9999 12.4693 39.7451 12.9812 39.2354L14.3715 37.8468C14.8662 37.3526 15.1386 36.6936 15.1386 35.9908C15.1386 35.4894 14.9991 35.0104 14.7399 34.5975L17.688 31.6529C17.6911 31.6497 17.6942 31.6465 17.6974 31.6433C18.035 31.2944 18.9751 31.3597 19.8842 31.4228C20.5302 31.4677 21.2503 31.5176 21.9539 31.4365L25.1824 34.6612C24.9732 35.0425 24.8616 35.4729 24.8616 35.9212C24.8616 36.6232 25.134 37.2819 25.6287 37.776L27.0191 39.1647C27.5134 39.6585 28.1724 39.9305 28.8746 39.9305C29.5767 39.9305 30.2357 39.6586 30.7302 39.1647L39.1631 30.742C39.6577 30.2479 39.9302 29.5889 39.9302 28.8862C39.9301 28.1837 39.6577 27.5246 39.1625 27.0301ZM18.2828 8.08084L21.6959 8.72686L19.653 10.769C19.337 10.6171 18.9038 10.3338 18.4287 9.87928C17.7783 9.25709 17.3131 8.53873 17.2707 8.09068C17.2706 8.09045 17.2706 8.09021 17.2706 8.08998C17.2706 8.0899 17.2706 8.08982 17.2706 8.08975C17.2675 8.05756 17.2667 8.03185 17.2671 8.01225C17.37 7.98725 17.6433 7.95951 18.2828 8.08084ZM14.2939 8.72232C14.6925 8.32412 15.3117 8.27818 15.7621 8.58318C16.0174 9.65334 16.9302 10.6233 17.3409 11.0162C17.6453 11.3075 18.622 12.1807 19.6077 12.4207C19.7411 12.6119 19.8137 12.8397 19.8137 13.0802C19.8137 13.39 19.6945 13.6796 19.4774 13.8965C19.2609 14.1133 18.9709 14.2327 18.6606 14.2327C18.3502 14.2327 18.0601 14.1133 17.8426 13.8954L17.8425 13.8954L17.8421 13.895L14.2938 10.3531C14.0775 10.1371 13.9584 9.84748 13.9584 9.53779C13.9584 9.22803 14.0776 8.93842 14.2939 8.72232ZM12.238 12.1557C12.4545 11.9389 12.7442 11.8194 13.0541 11.8194C13.3643 11.8194 13.655 11.9391 13.8729 12.1568L16.7301 15.0083C17.18 15.4589 17.18 16.1922 16.7316 16.6412C16.514 16.858 16.2229 16.9774 15.912 16.9774C15.6012 16.9774 15.3101 16.858 15.0934 16.6422L15.0933 16.6421L12.9257 14.475C12.9224 14.4716 12.9187 14.4685 12.9152 14.4651L12.2371 13.7872C12.0195 13.5699 11.8998 13.2797 11.9 12.9702C11.9003 12.6617 12.0197 12.373 12.238 12.1557ZM10.1781 15.5883C10.3948 15.372 10.6852 15.2529 10.9959 15.2529C11.3041 15.2529 11.592 15.3703 11.8077 15.5829L13.982 17.7561C14.1988 17.972 14.3182 18.2613 14.3182 18.5707C14.3182 18.88 14.1988 19.1693 13.9811 19.3861C13.7645 19.6023 13.4745 19.7215 13.1642 19.7215C12.8535 19.7215 12.5625 19.602 12.3456 19.3861L11.5574 18.5988C11.5573 18.5986 11.557 18.5984 11.5569 18.5983L10.1782 17.2212C9.96087 17.0041 9.84118 16.7141 9.84118 16.4047C9.84118 16.0954 9.96087 15.8054 10.1781 15.5883ZM8.80782 19.7122C9.0254 19.4949 9.31618 19.3752 9.62657 19.3752C9.93688 19.3752 10.2276 19.4948 10.4451 19.712L11.2344 20.5004C11.4513 20.7163 11.5706 21.0056 11.5706 21.315C11.5706 21.6244 11.4512 21.9136 11.2327 22.1312C11.0163 22.348 10.7262 22.4675 10.4159 22.4675C10.1055 22.4675 9.8154 22.3481 9.59735 22.1297L9.49852 22.0312C9.49719 22.0299 9.49618 22.0285 9.49493 22.0272C9.49344 22.0258 9.49188 22.0246 9.4904 22.0232L8.8086 21.344C8.35868 20.8932 8.35829 20.1612 8.80782 19.7122ZM24.8417 28.6543C24.5346 28.3468 24.0364 28.3465 23.7291 28.6536L23.0291 29.3527C22.3639 30.0179 21.1587 29.9341 19.9931 29.8533C18.7274 29.7653 17.4186 29.6745 16.5716 30.544L13.6736 33.4386L6.42649 26.2021L8.99118 23.642C9.41508 23.9019 9.90423 24.0412 10.416 24.0412C11.1472 24.0412 11.8328 23.7577 12.3449 23.2447C12.8605 22.7312 13.1445 22.046 13.1445 21.3151C13.1445 21.3083 13.144 21.3015 13.144 21.2947C13.1508 21.2948 13.1576 21.2952 13.1644 21.2952C13.8945 21.2952 14.5796 21.0126 15.0924 20.5004C15.608 19.987 15.892 19.3017 15.892 18.5708C15.892 18.564 15.8915 18.5573 15.8915 18.5505C15.8984 18.5505 15.9052 18.551 15.9122 18.551C16.6421 18.551 17.3276 18.2687 17.8438 17.7546C18.3798 17.2178 18.6449 16.5111 18.6398 15.8058C18.6468 15.8059 18.6538 15.8063 18.6609 15.8063C19.392 15.8062 20.0776 15.5229 20.5905 15.009C21.1045 14.4957 21.3876 13.8107 21.3876 13.0802C21.3876 12.5694 21.2487 12.081 20.9897 11.6579L23.2376 9.411C23.4051 9.2442 23.6117 9.13951 23.8281 9.09631C23.8516 9.09381 23.8747 9.09006 23.8976 9.08553C24.2449 9.03764 24.6097 9.14482 24.8753 9.40936C25.3252 9.86006 25.3252 10.5933 24.877 11.0424L24.1924 11.7242C24.1901 11.7265 24.1877 11.7285 24.1854 11.7308L23.3969 12.5179C23.0894 12.825 23.0891 13.3232 23.3962 13.6306C23.7034 13.9381 24.2015 13.9383 24.5088 13.6313L25.1962 12.9449C25.1963 12.9447 25.1965 12.9446 25.1966 12.9444L25.3006 12.8409C25.7517 12.3939 26.4827 12.3948 26.9334 12.8449C27.1502 13.0608 27.2697 13.3501 27.2697 13.6595C27.2697 13.9688 27.1502 14.2581 26.9317 14.4758L26.2431 15.1657C26.2431 15.1658 26.243 15.1658 26.2429 15.166L25.4545 15.9512C25.1466 16.2579 25.1456 16.7561 25.4522 17.0639C25.7588 17.3718 26.257 17.3727 26.5649 17.0662L27.3569 16.2773C27.5734 16.0604 27.8634 15.9411 28.1738 15.9411C28.4841 15.9411 28.7743 16.0604 28.9924 16.2789C29.2092 16.4949 29.3286 16.7842 29.3286 17.0936C29.3286 17.4029 29.2092 17.6922 28.9911 17.9094L27.6184 19.2826C27.3113 19.5899 27.3113 20.088 27.6186 20.3952C27.7723 20.5488 27.9735 20.6255 28.1749 20.6255C28.3763 20.6255 28.5777 20.5487 28.7313 20.395L29.404 19.722C29.4078 19.7183 29.412 19.7151 29.4158 19.7113C29.6323 19.4944 29.9224 19.3751 30.2327 19.3751C30.5431 19.3751 30.8331 19.4944 31.0504 19.7121C31.4999 20.1611 31.4995 20.8931 31.0504 21.3429L30.3664 22.0262C30.3662 22.0264 30.3659 22.0266 30.3656 22.0269C30.3654 22.0271 30.3652 22.0274 30.3649 22.0276L29.2793 23.1119C28.9719 23.419 28.9716 23.9172 29.2786 24.2247C29.4323 24.3785 29.6338 24.4554 29.8353 24.4554C30.0365 24.4554 30.2377 24.3787 30.3913 24.2254L30.9224 23.695L33.4674 26.2371L26.2209 33.4747L23.6245 30.8815C23.8056 30.7651 23.9788 30.6282 24.1413 30.4656L24.8409 29.7669C25.1485 29.4599 25.1488 28.9617 24.8417 28.6543ZM38.0509 29.6287L29.6181 38.0513C29.4208 38.2483 29.1567 38.3569 28.8745 38.3569C28.5924 38.3569 28.3283 38.2483 28.1309 38.0512L26.7406 36.6626C26.5435 36.4658 26.435 36.2026 26.435 35.9212C26.435 35.64 26.5435 35.3767 26.7406 35.1799L35.1735 26.7572C35.3708 26.5601 35.6348 26.4516 35.917 26.4516C36.1992 26.4516 36.4633 26.5601 36.6611 26.7577L38.051 28.1437C38.2481 28.3405 38.3566 28.6041 38.3566 28.8862C38.3565 29.1683 38.248 29.4319 38.0509 29.6287Z" fill="#0B225C"/>
<path d="M9.48266 4.41957C9.63626 4.57285 9.83735 4.64941 10.0384 4.64941C10.24 4.64941 10.4416 4.57238 10.5953 4.41839C10.9023 4.11082 10.9018 3.61269 10.5942 3.30574L7.72719 0.44441C7.41969 0.137456 6.92149 0.137847 6.61454 0.445503C6.30759 0.753081 6.30805 1.25121 6.61563 1.55816L9.48266 4.41957Z" fill="#0B225C"/>
<path d="M29.822 4.64938C30.0232 4.64938 30.2245 4.57266 30.378 4.4193L33.2429 1.5579C33.5503 1.25086 33.5506 0.752661 33.2435 0.445239C32.9365 0.137818 32.4384 0.137505 32.1309 0.444614L29.266 3.30602C28.9586 3.61305 28.9583 4.11125 29.2654 4.41868C29.4191 4.5725 29.6205 4.64938 29.822 4.64938Z" fill="#0B225C"/>
<path d="M4.90773 33.8441C4.60312 34.1539 4.60734 34.6522 4.91726 34.9568L4.91952 34.959C5.07241 35.1093 5.27093 35.1841 5.46937 35.1841C5.67304 35.1841 5.87671 35.1053 6.03101 34.9483C6.33562 34.6385 6.33023 34.1392 6.02038 33.8346C5.71062 33.53 5.21249 33.5343 4.90773 33.8441Z" fill="#0B225C"/>
<path d="M26.7661 27.5209C26.8858 27.5209 27.0072 27.4936 27.1212 27.4362C27.5092 27.2405 27.665 26.7674 27.4694 26.3794C27.2737 25.9914 26.8005 25.8355 26.4126 26.0312L26.4082 26.0334C26.0203 26.2291 25.8666 26.7011 26.0622 27.0891C26.2003 27.3631 26.4781 27.5209 26.7661 27.5209Z" fill="#0B225C"/>
</svg>
