<svg width="139" height="40" viewBox="0 0 139 40" fill="none" xmlns="http://www.w3.org/2000/svg">
<path fill-rule="evenodd" clip-rule="evenodd" d="M50.5777 26.8509C50.5587 26.9342 50.5036 27.2329 50.4552 27.5148C50.3794 27.9564 50.3443 28.033 50.2014 28.069C50.1102 28.092 49.9649 28.2067 49.8786 28.324L49.7217 28.5371H45.6966V23.465V23.3815C45.6966 18.6764 45.6966 18.1229 45.4568 17.9815C45.4248 17.9626 45.3885 17.9511 45.3475 17.938L45.3419 17.9362C45.201 17.8913 45.199 17.8349 45.1987 14.0227C45.1985 10.3176 45.1926 10.1452 45.0602 9.92706C44.933 9.71747 44.591 9.54963 44.2887 9.54835C44.2134 9.54799 44.1982 8.84981 44.2082 5.84666C44.2176 2.99714 44.1999 2.10693 44.1313 1.97822C44.0158 1.76156 44.0169 1.29996 44.1331 1.15933C44.1832 1.09879 44.2114 1.03882 44.1962 1.02605C44.1155 0.959012 43.6878 1.15354 43.4992 1.34301C43.0807 1.76327 43.0664 1.91454 43.0664 5.92012C43.0664 8.77457 43.0475 9.54799 42.9775 9.54835C42.9287 9.54856 42.7671 9.58261 42.6184 9.62409C42.2793 9.71868 42.0718 10.0356 42.0715 10.4598L42.0712 10.7648L41.7158 10.5309V6.57354L41.7158 6.38553C41.7159 2.91315 41.7159 2.39208 41.4697 2.21207C41.4263 2.18028 41.3752 2.15913 41.315 2.13425L41.2967 2.12663C41.1632 2.07109 40.9702 2.05667 40.7779 2.08787C40.004 2.21323 35.2379 3.09073 33.5765 3.41376C26.1043 4.86665 22.6441 6.75636 21.6298 9.93841L21.4712 10.4361L20.9129 10.4162C20.2631 10.3931 19.2575 10.4987 18.6486 10.6541C18.0843 10.7981 17.159 11.2588 16.7826 11.5831C16.5349 11.7965 16.4805 11.8882 16.4805 12.0913C16.4805 12.4235 16.631 12.6958 16.9743 12.9847L17.2591 13.2244L16.8808 15.0448C16.6728 16.046 16.4263 17.3242 16.333 17.8853C16.1849 18.7767 16.1454 18.9093 16.0198 18.9377C15.9409 18.9555 14.5967 19.0518 13.0328 19.1517C6.08353 19.5955 5.03537 19.7224 4.10145 20.2328C3.71887 20.4419 3.27878 20.9 3.21495 21.1554C3.18111 21.2907 3.11528 21.3128 2.65643 21.3424C1.85942 21.3938 1.35635 21.7408 1.13691 22.3906C1.03561 22.6905 1.02125 28.296 1.12106 28.5598C1.18553 28.7299 1.17721 28.7353 0.796551 28.767C0.493799 28.7922 0.363002 28.8426 0.215073 28.991C0.0296114 29.1771 0.0236403 29.2092 0.0045894 30.1269C-0.0175892 31.1959 0.0284741 31.3558 0.416174 31.5568C0.624951 31.6651 0.809418 31.6819 1.58809 31.6639C2.66716 31.6389 2.94518 31.5374 3.29414 31.0408C3.48948 30.7627 3.50746 30.6875 3.50817 30.1445C3.50888 29.5707 3.51791 29.5385 3.79252 29.1367C4.22351 28.506 5.02108 27.7334 5.69988 27.2891C6.41272 26.8224 6.88181 26.6039 7.72709 26.3448C8.28618 26.1734 8.45259 26.1561 9.58519 26.1511C11.068 26.1446 11.6089 26.2597 12.7516 26.8251C15.2904 28.0812 16.8559 30.6885 16.7541 33.4913C16.7397 33.8882 16.7573 34.1769 16.7959 34.1769C16.8326 34.1768 17.9202 34.096 19.2129 33.9972C21.5227 33.8206 21.5658 33.8145 21.7196 33.6402C21.9033 33.4322 22.0799 33.4132 22.207 33.5878C22.2891 33.7007 22.4885 33.7148 24.2721 33.7339C26.1673 33.7542 26.2544 33.7492 26.4432 33.609C26.7113 33.4099 27.0182 33.4166 27.1087 33.6235C27.2356 33.9142 27.8768 33.8805 27.9521 33.5791C27.9755 33.4853 28.0571 33.3922 28.1333 33.3722C28.2663 33.3373 28.2728 33.3876 28.294 34.6188C28.3143 35.7921 28.328 35.9105 28.4542 36.0031C28.5577 36.0789 28.8403 36.1043 29.5837 36.1043C30.4374 36.1043 30.5876 36.1212 30.6642 36.2264C30.7297 36.3164 30.8879 36.3562 31.2652 36.3776C31.7031 36.4024 31.8068 36.3848 31.9809 36.2555C32.1796 36.108 32.2478 36.1043 34.7821 36.1043C36.2107 36.1043 37.3796 36.1312 37.3796 36.1642C37.3796 36.4102 38.4603 36.4756 38.7496 36.247C38.912 36.1187 39.038 36.1043 39.9896 36.1043C40.7914 36.1043 41.0824 36.0796 41.1868 36.0031C41.31 35.9128 41.3273 35.7939 41.348 34.8966L41.3711 33.8912L42.4853 33.8971C43.0982 33.9003 46.4122 33.9725 49.8499 34.0577L56.1003 34.2125L56.2227 34.7122H56.8444L57.2413 31.0217L59 28.0684H59.0409L58.5733 29.3954L58.307 30.1319C58.307 30.1319 57.604 31.4835 57.5 32.4278C57.5 32.4278 57.6043 34.9901 58 36.2562C58.3957 37.5224 60.1878 39.2718 62.3036 39.8011C63.4973 40.0998 64.623 40.03 65.4553 39.804C66.5507 39.5065 67.6428 38.5921 68.4608 37.8136C69.4001 36.9196 69.7814 35.8329 70.1165 34.3075C70.15 34.155 70.23 34.093 70.5168 33.9974C70.8464 33.8874 70.8946 33.8869 71.1141 33.9916C71.4252 34.1398 71.4512 34.1378 72.0012 33.9216C72.6448 33.6687 72.7176 33.5668 72.7176 32.9196C72.7176 32.4358 72.7296 32.3921 72.863 32.3921C72.943 32.3921 73.0884 32.3118 73.1861 32.2136C73.3228 32.0764 73.4374 32.0351 73.6819 32.0351H74L73.9616 29.0012L73.2193 28.9807C72.4572 28.9596 72.2911 28.9042 72.2911 28.6712C72.2911 28.5468 72.2234 28.5371 71.3566 28.5371H70.4221L70.0801 28.2159C69.8266 27.9777 69.681 27.8946 69.5171 27.8946C69.2037 27.8946 69.0246 28.0117 68.9076 28.293C68.8118 28.5234 68.7866 28.5371 68.4608 28.5371C68.1668 28.5371 68.0642 28.4961 67.7687 28.2599C67.2858 27.874 66.5411 27.4756 65.8633 27.2404L65.0427 26.6938H58L57.2413 28.3575C57.1785 28.1065 56.8829 27.8946 56.5955 27.8946C56.4065 27.8946 56.2782 27.9652 56.0113 28.2159L55.6693 28.5371H52.5955L52.4857 28.324C52.4254 28.2067 52.3001 28.0917 52.2073 28.0684C52.0586 28.0309 52.0294 27.963 51.9599 27.4933C51.9208 27.23 51.8872 26.9289 51.881 26.8209L50.5777 26.8509ZM43.8483 6.33546C43.8939 6.33546 43.9194 5.68104 43.9194 4.51506C43.9194 3.34908 43.8939 2.69467 43.8483 2.69467C43.8028 2.69467 43.7772 3.34908 43.7772 4.51506C43.7772 5.68104 43.8028 6.33546 43.8483 6.33546ZM41.0049 10.476V6.62101C41.0049 4.50079 40.997 2.76913 40.9872 2.77284C40.9773 2.77655 40.5375 2.85743 40.0097 2.95259C32.8232 4.24821 30.6732 4.70624 28.6199 5.37893C25.3648 6.44532 23.4641 7.73095 22.6242 9.43448C22.4482 9.79135 22.2974 10.1796 22.2891 10.2972L22.2739 10.5111L24.1723 10.6569C25.2164 10.7371 26.0873 10.8195 26.1077 10.8399C26.1888 10.9214 23.1523 11.1394 21.2432 11.1891C19.6185 11.2313 19.1398 11.2665 18.8264 11.3666C18.4201 11.4964 17.6151 11.8852 17.37 12.0699C17.2313 12.1745 17.2311 12.1791 17.3633 12.3257C17.4373 12.4078 17.6688 12.5562 17.8777 12.6555L18.2576 12.836V15.4884C18.2576 18.0329 18.2516 18.1533 18.109 18.4489C17.9133 18.8551 17.5973 19.1063 16.9259 19.3895C16.2275 19.684 16.0082 19.7096 11.8955 19.9762C6.54601 20.323 5.41035 20.4472 4.67106 20.7666C4.34677 20.9068 3.90732 21.2884 3.98295 21.3643C4.00421 21.3856 5.79129 21.4992 7.95428 21.6166C10.1173 21.734 11.8967 21.8399 11.9087 21.8519C11.9206 21.8639 9.81131 21.9154 7.22132 21.9664C3.67999 22.0362 2.45526 22.0824 2.28273 22.1528C2.15649 22.2043 1.98808 22.3527 1.90847 22.4827C1.76829 22.7114 1.76431 22.8095 1.78251 25.551L1.80134 28.383L1.97365 28.5671C2.06848 28.6684 2.17049 28.7513 2.20042 28.7513C2.23034 28.7513 2.26475 27.9081 2.27683 26.8774L2.29894 25.0034L2.49755 24.5972C2.75012 24.0807 3.34148 23.5317 3.8808 23.313L4.28933 23.1473H8.41228C12.4511 23.1473 12.548 23.1506 13.1609 23.3075C15.7227 23.9633 17.5625 26.0415 17.8698 28.6264L17.9185 29.0368H28.5715L28.9204 28.6864V20.2855C28.9204 13.8741 28.941 11.815 29.0073 11.5908C29.1216 11.2044 29.6458 10.678 30.0305 10.5632C30.2497 10.4979 31.6627 10.476 35.664 10.476H41.0049ZM44.4881 27.8277V10.3332H42.7815L42.8176 27.7876L44.4881 27.8277ZM42.0357 11.7633L41.5002 11.2255L35.939 11.2086L35.164 11.2062C30.6737 11.1917 30.1239 11.19 29.8965 11.4617C29.8648 11.4996 29.8394 11.5428 29.8104 11.5921C29.7989 11.6115 29.787 11.6318 29.7739 11.6532C29.6333 11.8816 29.6313 12.0011 29.6313 20.0158C29.6313 27.7541 29.6375 28.1585 29.7611 28.3899C29.8326 28.5237 30.0001 28.6919 30.1333 28.7636C30.3618 28.8867 30.6838 28.8941 35.8512 28.8941C41.0187 28.8941 41.3407 28.8867 41.5692 28.7636C41.7024 28.6919 41.8702 28.5232 41.942 28.3889C42.067 28.1551 42.0719 27.7873 42.0542 19.9539L42.0357 11.7633ZM17.2525 28.8584C17.1119 26.4336 15.4507 24.4147 13.1103 23.8245C12.5821 23.6914 12.3039 23.6828 8.52531 23.6835L4.50259 23.6842L4.1355 23.8558C3.67913 24.0692 3.26506 24.478 3.03986 24.9375C2.87345 25.2771 2.86684 25.3508 2.84473 27.1099L2.82177 28.931L3.25859 29.2553V27.3591C3.25859 25.316 3.2753 25.2042 3.65617 24.7028C3.75512 24.5725 4.00207 24.3781 4.20488 24.2706L4.57367 24.0754H8.55445L8.78532 24.0754C11.9934 24.0753 12.7196 24.0752 13.3647 24.3056C13.5534 24.373 13.7352 24.4602 13.9702 24.5728L14.028 24.6005C15.7575 25.4284 16.7724 27.0589 16.8967 29.2093L16.9425 30.0006L28.2639 30.0371L28.3318 29.6802L17.298 29.6436L17.2525 28.8584ZM5.84702 25.0948C5.90055 24.9412 5.8874 24.8704 5.78404 24.7557C5.67905 24.6392 5.56538 24.6108 5.20406 24.6108C4.80555 24.6108 4.74172 24.6306 4.64049 24.7858C4.4991 25.0024 4.56273 25.2389 4.77683 25.2928C4.86384 25.3147 5.12501 25.3228 5.35718 25.3108C5.74409 25.2908 5.78497 25.2728 5.84702 25.0948ZM56.5181 28.9965C56.7634 28.7269 56.8606 28.5643 56.8444 28.45C56.8051 28.172 56.5322 28.2008 56.2406 28.5139C55.099 29.7397 54.5086 31.152 54.3914 32.9373C54.3503 33.563 54.3552 33.5933 54.5092 33.6761C54.7701 33.8162 54.8477 33.6523 54.9328 32.7813C55.0902 31.1703 55.5594 30.0499 56.5181 28.9965ZM71.6983 32.8548C71.596 31.1771 70.9912 29.7361 69.8937 28.555C69.7386 28.3881 69.5668 28.2542 69.512 28.2572C69.1503 28.2776 69.1407 28.5617 69.4901 28.8979C70.4284 29.8006 71.0628 31.3125 71.1891 32.947C71.2317 33.4997 71.2631 33.6212 71.3792 33.6836C71.481 33.7383 71.5482 33.7334 71.6301 33.6651C71.724 33.5869 71.7349 33.4566 71.6983 32.8548ZM66.7511 30.3218C66.253 29.8275 65.675 29.4792 65.0427 29.2927C64.4743 29.1251 63.5986 29.0906 63.0551 29.2145C62.02 29.4504 60.9862 30.1646 60.439 31.0217C59.2348 32.9082 59.7436 35.4241 61.5788 36.6568C62.2644 37.1173 62.8463 37.316 63.6542 37.3653C64.7942 37.435 65.8432 37.0517 66.6896 36.2562C67.5622 35.4361 67.9902 34.4264 67.9795 33.213C67.9691 32.05 67.5877 31.1523 66.7511 30.3218ZM2.73086 30.875C3.16903 30.4718 3.11912 29.7475 2.63048 29.4167C2.38581 29.2511 0.720419 29.1816 0.575121 29.331C0.482283 29.4264 0.445248 30.774 0.529413 30.9942C0.565808 31.0894 0.722125 31.1071 1.52567 31.1071H2.47872L2.73086 30.875ZM31.6217 35.8187V29.8221H31.053V35.8187H31.6217ZM38.3748 35.8187V29.8221H38.1378C38.0075 29.8221 37.8795 29.8435 37.8535 29.8697C37.8274 29.8959 37.8061 31.2451 37.8061 32.868V35.8187H38.3748ZM30.5554 31.2499V29.8935H28.7782V35.6045H30.5554V31.6068H29.8521C29.1478 31.6068 29.0356 31.5661 29.1145 31.3391C29.1365 31.2758 29.3504 31.2499 29.8504 31.2499H30.5554ZM37.3085 31.2404V29.8935H32.1903V31.2477L34.3051 31.2667C36.3662 31.2851 36.4199 31.2892 36.4199 31.4283C36.4199 31.5675 36.3662 31.5716 34.3051 31.59L32.1903 31.609V35.6045H37.3085V31.6163L37.113 31.5937C36.9724 31.5775 36.9175 31.531 36.9175 31.4283C36.9175 31.3257 36.9724 31.2792 37.113 31.263L37.3085 31.2404ZM40.8628 31.2499V29.8935H38.9434V31.2499H40.8628ZM40.8628 35.6045V31.6068H38.9434V35.6045H40.8628ZM70.4924 32.6993C70.8003 32.6244 70.8225 32.473 70.5665 32.1958C70.4849 32.1074 70.3443 32.0351 70.2542 32.0351C70.0998 32.0351 70.0927 32.0549 70.1344 32.3742C70.1587 32.5608 70.1883 32.725 70.2002 32.7392C70.2121 32.7534 70.3436 32.7355 70.4924 32.6993ZM42.222 32.6776L42.1778 32.1422L41.3603 32.0994V32.6776H42.222ZM53.0183 32.5349C52.8124 32.5349 52.5208 32.3256 52.5208 32.1779C52.5208 32.1311 51.0516 32.1065 48.2556 32.1065H43.9905V32.749L44.5059 32.7492C45.1053 32.7493 49.9533 32.8666 51.8988 32.928L53.2316 32.97V32.7525C53.2316 32.5583 53.2086 32.5349 53.0183 32.5349ZM56.0424 32.8024C56.0504 32.7926 56.0789 32.6322 56.1058 32.4456L56.1548 32.1065H55.8714C55.6243 32.1065 55.5734 32.1355 55.476 32.3317C55.4145 32.4555 55.3642 32.5649 55.3642 32.5748C55.3642 32.6012 56.0255 32.8231 56.0424 32.8024Z" fill="#0B225C"/>
<path fill-rule="evenodd" clip-rule="evenodd" d="M19.4305 12.3338C19.2741 12.4132 19.0822 12.5658 19.004 12.6729C18.8643 12.8641 18.8615 12.9972 18.8407 20.3275C18.826 25.5144 18.843 27.8686 18.8963 28.0534C18.9443 28.2195 19.0701 28.3936 19.2318 28.5174L19.4905 28.7156H23.4183C27.2709 28.7156 27.3499 28.7128 27.5468 28.5686C27.6572 28.4878 27.8201 28.2791 27.9087 28.1047L28.0699 27.7878L28.0509 20.399C28.0321 13.1302 28.0295 13.0062 27.888 12.7604C27.8029 12.6124 27.6156 12.445 27.4287 12.3499C27.1135 12.1894 27.1093 12.1893 23.414 12.1893C19.8422 12.1894 19.705 12.1943 19.4305 12.3338ZM27.5007 13.1797L27.0831 12.7604H23.4264C19.8345 12.7604 19.7663 12.763 19.5823 12.9084L19.395 13.0563V27.8891L19.5506 28.0346C19.703 28.1773 19.7808 28.1802 23.4168 28.1802C26.9644 28.1802 27.1349 28.1742 27.2953 28.0438L27.4632 27.9073L27.5007 13.1797Z" fill="#0B225C"/>
<path d="M20.1993 13.4034C20.1139 13.4379 20.0099 13.5302 19.9683 13.6083C19.9198 13.6993 19.8926 14.481 19.8926 15.7817C19.8926 17.6752 19.9018 17.8246 20.0284 17.9816L20.1643 18.1502L26.5769 18.1901L26.93 17.8354V13.6819L26.5811 13.3315L23.4678 13.336C21.7556 13.3385 20.2847 13.3688 20.1993 13.4034Z" fill="#0B225C"/>
<path d="M43.9545 11.987C43.9346 12.0394 43.9266 15.3107 43.9366 19.2567C43.9528 25.5782 43.9676 26.4312 44.0616 26.4312C44.1556 26.4312 44.1682 25.5792 44.1682 19.1912C44.1682 13.4644 44.1497 11.9451 44.0794 11.9216C44.0305 11.9052 43.9743 11.9347 43.9545 11.987Z" fill="#0B225C"/>
<path d="M16.1428 21.7624C15.3869 22.1867 15.4386 22.255 16.516 22.255H17.4046V22.0824C17.4046 21.8132 17.3329 21.6872 17.1151 21.5742C16.8213 21.4215 16.7127 21.4425 16.1428 21.7624Z" fill="#0B225C"/>
<path d="M24.595 21.8898C24.5423 21.9234 24.5107 22.0113 24.5248 22.0851C24.5483 22.2081 24.6377 22.2209 25.5981 22.2391L26.6457 22.2588V22.0861C26.6457 21.9911 26.5951 21.8938 26.5332 21.87C26.3611 21.8037 24.7038 21.8207 24.595 21.8898Z" fill="#0B225C"/>
<path d="M15.6274 23.0403H17.4046V22.6119H15.6274V23.0403Z" fill="#0B225C"/>
<path d="M15.6274 23.4638C15.6274 23.5759 16.5725 24.0487 16.8163 24.0586C17.0934 24.0698 17.4046 23.8077 17.4046 23.5632C17.4046 23.3983 17.3987 23.3972 16.516 23.3972C16.0135 23.3972 15.6274 23.4261 15.6274 23.4638Z" fill="#0B225C"/>
<path fill-rule="evenodd" clip-rule="evenodd" d="M63.4296 31.7065C62.3286 32.0625 61.9166 33.4001 62.6375 34.2784C63.6026 35.4542 65.4916 34.7767 65.4902 33.2552C65.4892 32.1908 64.4191 31.3866 63.4296 31.7065ZM64.9256 33.2615C64.9256 32.8872 64.7563 32.5736 64.443 32.3675C64.0086 32.0816 63.455 32.1783 63.0998 32.6023C62.775 32.99 62.7539 33.4737 63.0442 33.8831C63.618 34.6923 64.9256 34.2602 64.9256 33.2615Z" fill="#0B225C"/>
<path fill-rule="evenodd" clip-rule="evenodd" d="M44.3712 1.16547C44.3052 1.26669 44.2512 1.44088 44.2512 1.55246C44.2512 1.81838 44.4546 2.12357 44.6319 2.12357C45.0506 2.12357 45.2217 1.40754 44.8695 1.12934C44.6234 0.934954 44.5166 0.942665 44.3712 1.16547ZM5.78404 24.7557C5.8874 24.8704 5.90055 24.9412 5.84702 25.0948C5.78497 25.2728 5.74409 25.2908 5.35718 25.3108C5.12501 25.3228 4.86384 25.3147 4.77683 25.2928C4.56273 25.2389 4.4991 25.0024 4.64049 24.7858C4.74172 24.6306 4.80555 24.6108 5.20406 24.6108C5.56538 24.6108 5.67905 24.6392 5.78404 24.7557ZM8.69662 26.7582C7.59132 26.9131 6.22299 27.5399 5.34402 28.2941C4.25293 29.2302 3.41967 30.7399 3.18388 32.2076C3.06588 32.9423 3.13299 34.3568 3.31461 34.9621C4.16671 37.8018 6.67841 39.1627 9.5 39.3064C11.3481 39.4005 13 38.8088 14.1183 38.0042C15.8969 36.3074 16.5699 33.8568 15.9109 31.4765C15.0393 28.328 11.9434 26.3033 8.69662 26.7582ZM10.8835 29.572C11.1479 29.6628 11.5194 29.8371 11.7091 29.9592C12.5091 30.4748 13.2229 31.4915 13.425 32.4032C13.5647 33.0331 13.4857 34.1095 13.2593 34.6628C12.5548 36.3842 10.8252 37.3905 9.04004 37.1173C7.19182 36.8346 5.74374 35.1499 5.74765 33.2873C5.74992 32.1991 6.12056 31.3022 6.89198 30.5186C7.95023 29.4437 9.46435 29.0845 10.8835 29.572ZM9.08759 31.7435C7.92755 32.152 7.6452 33.6694 8.57983 34.4727C9.63787 35.3822 11.2128 34.661 11.2186 33.2643C11.2234 32.1199 10.1646 31.3643 9.08759 31.7435ZM10.0635 32.3181C10.844 32.6739 10.8548 33.8043 10.0814 34.1945C9.15221 34.6633 8.1932 33.589 8.74318 32.6955C8.89737 32.4448 9.34741 32.1811 9.62073 32.1811C9.69893 32.1811 9.89818 32.2427 10.0635 32.3181Z" fill="#0B225C"/>
<path fill-rule="evenodd" clip-rule="evenodd" d="M127.63 32.3813C126.597 32.7076 126.21 33.9337 126.887 34.7388C127.793 35.8167 129.565 35.1956 129.564 33.8009C129.563 32.8253 128.559 32.088 127.63 32.3813ZM129.034 33.8067C129.034 33.4636 128.875 33.1761 128.581 32.9872C128.173 32.7251 127.654 32.8138 127.321 33.2024C127.016 33.5578 126.996 34.0012 127.269 34.3765C127.807 35.1182 129.034 34.7222 129.034 33.8067Z" fill="#0B225C"/>
<path fill-rule="evenodd" clip-rule="evenodd" d="M113.586 32.3813C112.553 32.7076 112.167 33.9337 112.843 34.7388C113.749 35.8167 115.521 35.1956 115.52 33.8009C115.519 32.8253 114.515 32.088 113.586 32.3813ZM114.99 33.8067C114.99 33.4636 114.831 33.1761 114.537 32.9872C114.13 32.7251 113.61 32.8138 113.277 33.2024C112.972 33.5578 112.952 34.0012 113.225 34.3765C113.763 35.1182 114.99 34.7222 114.99 33.8067Z" fill="#0B225C"/>
<path fill-rule="evenodd" clip-rule="evenodd" d="M129.034 33.8067C129.034 33.4636 128.875 33.1761 128.581 32.9872C128.173 32.7251 127.654 32.8138 127.321 33.2024C127.016 33.5578 126.996 34.0012 127.269 34.3765C127.807 35.1182 129.034 34.7222 129.034 33.8067ZM126.887 34.7388C126.21 33.9337 126.597 32.7076 127.63 32.3813C128.559 32.088 129.563 32.8253 129.564 33.8009C129.565 35.1956 127.793 35.8167 126.887 34.7388Z" fill="#0B225C"/>
<path fill-rule="evenodd" clip-rule="evenodd" d="M107.262 29.15L106.935 29.967C106.482 31.0972 106.102 33.1738 106.046 34.8236L106 36.209L107.269 36.275C108.356 36.3316 108.558 36.3786 108.686 36.6043C110.31 39.4736 113.874 40.6063 116.714 39.1557C117.632 38.6865 118.765 37.63 119.19 36.847L119.501 36.275H122.476L122.913 36.9887C123.393 37.774 124.486 38.8028 125.232 39.173C125.496 39.3039 126.19 39.5145 126.774 39.641C127.682 39.8375 127.977 39.8484 128.799 39.7162C130.63 39.4217 131.984 38.5765 132.969 37.1126L133.532 36.275H135.365V37.3804C135.365 38.5651 135.558 38.993 135.907 38.5824C136.039 38.4269 136.06 37.8351 136 36.0409C135.914 33.4565 135.661 31.6072 135.229 30.4035C135.073 29.9681 134.752 29.0379 134.752 29.0379H137.916V32.2569H139V27.9858L137.916 26.8662H109.098L106.935 27.9858L107.262 29.15ZM134.318 29.8429C133.961 29.1045 133.26 28.3475 132.597 27.9858C132.229 27.7844 131.206 27.7626 121.189 27.7421C114.896 27.7291 110.006 27.7708 109.767 27.8394C109.164 28.0127 108.21 28.8848 107.781 29.6541C107.292 30.5328 106.949 31.9042 106.742 33.8107C106.613 35.0008 106.611 35.4072 106.731 35.5248C106.979 35.7671 107.098 35.4575 107.274 34.1147C107.749 30.4933 108.809 28.3631 110.276 28.0833C110.597 28.0219 115.539 27.9722 121.256 27.9726C121.89 27.9726 122.488 27.9725 123.053 27.9723L123.065 27.9723C131.088 27.9704 132.29 27.9702 132.831 28.5545C132.927 28.6575 133.001 28.7787 133.089 28.9212C133.125 28.9784 133.162 29.0391 133.204 29.1035C133.927 30.2181 134.527 32.2052 134.752 34.2299C134.883 35.4174 134.945 35.6153 135.183 35.6153C135.374 35.6153 135.389 35.4559 135.306 34.2628C135.195 32.6521 134.781 30.7997 134.318 29.8429ZM117.274 34.0393C117.274 32.6468 116.381 31.3512 115.136 30.9367C113.111 30.2624 111.048 31.4969 110.719 33.5795C110.534 34.7543 111.268 36.1139 112.423 36.7349C114.589 37.8995 117.274 36.4075 117.274 34.0393ZM130.94 32.4957C130.552 31.7674 129.68 31.0582 128.952 30.879C127.328 30.4795 125.819 31.1079 125.07 32.4957C124.615 33.3382 124.647 34.6905 125.141 35.5118C126.448 37.6841 129.482 37.7129 130.835 35.5655C131.187 35.0057 131.239 34.8 131.235 33.9822C131.232 33.2832 131.156 32.9024 130.94 32.4957Z" fill="#0B225C"/>
<path fill-rule="evenodd" clip-rule="evenodd" d="M74.2395 30.7158V26.8662H109V27.9953H98.4865V28.6001L103.605 28.6365L103.677 34.5427L78.1497 34.4579V28.57H80.2306L82.2205 28.6001V28.0386H79.3474L75.3851 27.9953V33.3812H75.1471V34.0837H75.5525V34.552H74V34.0837H74.4631V33.3812H74.2251L74.2395 30.7158ZM98.7519 33.3372V29.9307L102.255 29.9651L102.294 33.3812L98.7519 33.3372ZM83.7194 31.7669L83.7579 33.2868H97.5291V29.9651L90.8028 30.0143H83.7194C83.7194 30.0143 83.6983 30.9311 83.7194 31.7669ZM97.3577 28.57C97.3577 28.57 89.7058 28.508 83.7579 28.538V28.0386C83.7579 28.0386 90.6135 28.0046 97.3577 28.0386V28.57ZM82.4078 33.2868V30.0143H79.505V33.3623L82.4078 33.2868Z" fill="#0B225C"/>
<path fill-rule="evenodd" clip-rule="evenodd" d="M47.0216 0C47.0216 0 46.9745 5.8529 47.0216 13.3015L47.107 26.844H139V0.0230623L47.0216 0ZM48 26H137.916V1.02605H48V26Z" fill="#0B225C"/>
</svg>
