<svg width="139" height="40" viewBox="0 0 139 40" fill="none" xmlns="http://www.w3.org/2000/svg">
<path fill-rule="evenodd" clip-rule="evenodd" d="M50.5777 26.8508C50.5587 26.9341 50.5036 27.2328 50.4552 27.5147C50.3794 27.9563 50.3443 28.0329 50.2014 28.0689C50.1102 28.0919 49.9649 28.2066 49.8786 28.3239L49.7217 28.537H45.6966V23.4649V23.3814C45.6966 18.6763 45.6966 18.1228 45.4568 17.9814C45.4248 17.9625 45.3885 17.951 45.3475 17.9379L45.3419 17.9361C45.201 17.8912 45.199 17.8348 45.1987 14.0226C45.1985 10.3175 45.1926 10.145 45.0602 9.92695C44.933 9.71736 44.591 9.54952 44.2887 9.54824C44.2134 9.54788 44.1982 8.8497 44.2082 5.84655C44.2176 2.99703 44.1999 2.10682 44.1313 1.97811C44.0158 1.76145 44.0169 1.29985 44.1331 1.15922C44.1832 1.09868 44.2114 1.03871 44.1962 1.02593C44.1155 0.958902 43.6878 1.15343 43.4992 1.3429C43.0807 1.76316 43.0664 1.91443 43.0664 5.92001C43.0664 8.77446 43.0475 9.54788 42.9775 9.54824C42.9287 9.54845 42.7671 9.5825 42.6184 9.62398C42.2793 9.71857 42.0718 10.0355 42.0715 10.4596L42.0712 10.7647L41.7158 10.5308V6.57343L41.7158 6.38542C41.7159 2.91304 41.7159 2.39197 41.4697 2.21196C41.4263 2.18017 41.3752 2.15902 41.315 2.13414L41.2967 2.12652C41.1632 2.07098 40.9702 2.05656 40.7779 2.08776C40.004 2.21312 35.2379 3.09062 33.5765 3.41365C26.1043 4.86654 22.6441 6.75625 21.6298 9.9383L21.4712 10.4359L20.9129 10.4161C20.2631 10.393 19.2575 10.4986 18.6486 10.654C18.0843 10.798 17.159 11.2587 16.7826 11.583C16.5349 11.7964 16.4805 11.8881 16.4805 12.0912C16.4805 12.4234 16.631 12.6957 16.9743 12.9846L17.2591 13.2243L16.8808 15.0447C16.6728 16.0459 16.4263 17.3241 16.333 17.8851C16.1849 18.7766 16.1454 18.9092 16.0198 18.9375C15.9409 18.9554 14.5967 19.0517 13.0328 19.1516C6.08353 19.5954 5.03537 19.7223 4.10145 20.2327C3.71887 20.4418 3.27878 20.8999 3.21495 21.1553C3.18111 21.2906 3.11528 21.3127 2.65643 21.3422C1.85942 21.3936 1.35635 21.7407 1.13691 22.3904C1.03561 22.6903 1.02125 28.2959 1.12106 28.5596C1.18553 28.7298 1.17721 28.7352 0.796551 28.7669C0.493799 28.7921 0.363002 28.8425 0.215073 28.9909C0.0296114 29.1769 0.0236403 29.2091 0.0045894 30.1268C-0.0175892 31.1958 0.0284741 31.3557 0.416174 31.5567C0.624951 31.665 0.809418 31.6818 1.58809 31.6637C2.66716 31.6388 2.94518 31.5372 3.29414 31.0407C3.48948 30.7626 3.50746 30.6874 3.50817 30.1444C3.50888 29.5706 3.51791 29.5384 3.79252 29.1366C4.22351 28.5059 5.02108 27.7333 5.69988 27.2889C6.41272 26.8223 6.88181 26.6038 7.72709 26.3447C8.28618 26.1733 8.45259 26.1559 9.58519 26.1509C11.068 26.1444 11.6089 26.2596 12.7516 26.825C15.2904 28.0811 16.8559 30.6884 16.7541 33.4912C16.7397 33.8881 16.7573 34.1767 16.7959 34.1767C16.8326 34.1767 17.9202 34.0959 19.2129 33.9971C21.5227 33.8205 21.5658 33.8144 21.7196 33.6401C21.9033 33.4321 22.0799 33.4131 22.207 33.5877C22.2891 33.7006 22.4885 33.7147 24.2721 33.7338C26.1673 33.7541 26.2544 33.7491 26.4432 33.6089C26.7113 33.4098 27.0182 33.4165 27.1087 33.6234C27.2356 33.9141 27.8768 33.8803 27.9521 33.579C27.9755 33.4852 28.0571 33.3921 28.1333 33.3721C28.2663 33.3372 28.2728 33.3875 28.294 34.6187C28.3143 35.792 28.328 35.9104 28.4542 36.003C28.5577 36.0788 28.8403 36.1041 29.5837 36.1041C30.4374 36.1041 30.5876 36.1211 30.6642 36.2263C30.7297 36.3163 30.8879 36.3561 31.2652 36.3775C31.7031 36.4023 31.8068 36.3847 31.9809 36.2553C32.1796 36.1079 32.2478 36.1041 34.7821 36.1041C36.2107 36.1041 37.3796 36.1311 37.3796 36.164C37.3796 36.4101 38.4603 36.4755 38.7496 36.2469C38.912 36.1186 39.038 36.1041 39.9896 36.1041C40.7914 36.1041 41.0824 36.0795 41.1868 36.003C41.31 35.9127 41.3273 35.7938 41.348 34.8965L41.3711 33.8911L42.4853 33.897C43.0982 33.9002 46.4122 33.9724 49.8499 34.0576L56.1003 34.2124L56.2227 34.7121H56.8444L57.2413 31.0215L59 28.0683H59.0409L58.5733 29.3953L58.307 30.1318C58.307 30.1318 57.604 31.4834 57.5 32.4277C57.5 32.4277 57.6043 34.99 58 36.2561C58.3957 37.5223 60.1878 39.2717 62.3036 39.801C63.4973 40.0996 64.623 40.0299 65.4553 39.8039C66.5507 39.5064 67.6428 38.592 68.4608 37.8134C69.4001 36.9195 69.7814 35.8328 70.1165 34.3074C70.15 34.1549 70.23 34.0929 70.5168 33.9973C70.8464 33.8873 70.8946 33.8868 71.1141 33.9915C71.4252 34.1397 71.4512 34.1377 72.0012 33.9215C72.6448 33.6686 72.7176 33.5667 72.7176 32.9195C72.7176 32.4357 72.7296 32.392 72.863 32.392C72.943 32.392 73.0884 32.3117 73.1861 32.2135C73.3228 32.0763 73.4374 32.035 73.6819 32.035H74L73.9616 29.001L73.2193 28.9805C72.4572 28.9595 72.2911 28.9041 72.2911 28.6711C72.2911 28.5467 72.2234 28.537 71.3566 28.537H70.4221L70.0801 28.2158C69.8266 27.9775 69.681 27.8945 69.5171 27.8945C69.2037 27.8945 69.0246 28.0116 68.9076 28.2929C68.8118 28.5233 68.7866 28.537 68.4608 28.537C68.1668 28.537 68.0642 28.496 67.7687 28.2597C67.2858 27.8739 66.5411 27.4755 65.8633 27.2403L65.0427 26.6937H58L57.2413 28.3574C57.1785 28.1064 56.8829 27.8945 56.5955 27.8945C56.4065 27.8945 56.2782 27.9651 56.0113 28.2158L55.6693 28.537H52.5955L52.4857 28.3239C52.4254 28.2066 52.3001 28.0916 52.2073 28.0683C52.0586 28.0308 52.0294 27.9628 51.9599 27.4932C51.9208 27.2299 51.8872 26.9288 51.881 26.8208L50.5777 26.8508ZM43.8483 6.33535C43.8939 6.33535 43.9194 5.68093 43.9194 4.51495C43.9194 3.34897 43.8939 2.69456 43.8483 2.69456C43.8028 2.69456 43.7772 3.34897 43.7772 4.51495C43.7772 5.68093 43.8028 6.33535 43.8483 6.33535ZM41.0049 10.4759V6.6209C41.0049 4.50067 40.997 2.76902 40.9872 2.77273C40.9773 2.77644 40.5375 2.85732 40.0097 2.95248C32.8232 4.2481 30.6732 4.70613 28.6199 5.37882C25.3648 6.44521 23.4641 7.73084 22.6242 9.43437C22.4482 9.79124 22.2974 10.1795 22.2891 10.2971L22.2739 10.511L24.1723 10.6567C25.2164 10.737 26.0873 10.8194 26.1077 10.8398C26.1888 10.9213 23.1523 11.1393 21.2432 11.1889C19.6185 11.2312 19.1398 11.2664 18.8264 11.3665C18.4201 11.4963 17.6151 11.8851 17.37 12.0698C17.2313 12.1744 17.2311 12.179 17.3633 12.3256C17.4373 12.4077 17.6688 12.5561 17.8777 12.6554L18.2576 12.8359V15.4883C18.2576 18.0328 18.2516 18.1532 18.109 18.4488C17.9133 18.855 17.5973 19.1062 16.9259 19.3894C16.2275 19.6839 16.0082 19.7095 11.8955 19.9761C6.54601 20.3229 5.41035 20.4471 4.67106 20.7665C4.34677 20.9066 3.90732 21.2883 3.98295 21.3642C4.00421 21.3855 5.79129 21.4991 7.95428 21.6164C10.1173 21.7339 11.8967 21.8398 11.9087 21.8517C11.9206 21.8637 9.81131 21.9153 7.22132 21.9663C3.67999 22.0361 2.45526 22.0823 2.28273 22.1526C2.15649 22.2042 1.98808 22.3526 1.90847 22.4826C1.76829 22.7113 1.76431 22.8093 1.78251 25.5509L1.80134 28.3829L1.97365 28.567C2.06848 28.6683 2.17049 28.7512 2.20042 28.7512C2.23034 28.7512 2.26475 27.9079 2.27683 26.8772L2.29894 25.0033L2.49755 24.5971C2.75012 24.0806 3.34148 23.5316 3.8808 23.3129L4.28933 23.1472H8.41228C12.4511 23.1472 12.548 23.1505 13.1609 23.3073C15.7227 23.9632 17.5625 26.0414 17.8698 28.6263L17.9185 29.0367H28.5715L28.9204 28.6863V20.2853C28.9204 13.874 28.941 11.8149 29.0073 11.5906C29.1216 11.2043 29.6458 10.6779 30.0305 10.5631C30.2497 10.4978 31.6627 10.4759 35.664 10.4759H41.0049ZM44.4881 27.8276V10.3331H42.7815L42.8176 27.7874L44.4881 27.8276ZM42.0357 11.7632L41.5002 11.2254L35.939 11.2085L35.164 11.2061C30.6737 11.1916 30.1239 11.1899 29.8965 11.4616C29.8648 11.4995 29.8394 11.5427 29.8104 11.592C29.7989 11.6114 29.787 11.6317 29.7739 11.653C29.6333 11.8815 29.6313 12.001 29.6313 20.0157C29.6313 27.754 29.6375 28.1584 29.7611 28.3898C29.8326 28.5236 30.0001 28.6918 30.1333 28.7635C30.3618 28.8866 30.6838 28.894 35.8512 28.894C41.0187 28.894 41.3407 28.8866 41.5692 28.7635C41.7024 28.6918 41.8702 28.5231 41.942 28.3887C42.067 28.155 42.0719 27.7872 42.0542 19.9538L42.0357 11.7632ZM17.2525 28.8583C17.1119 26.4335 15.4507 24.4146 13.1103 23.8244C12.5821 23.6913 12.3039 23.6827 8.52531 23.6833L4.50259 23.6841L4.1355 23.8557C3.67913 24.0691 3.26506 24.4779 3.03986 24.9374C2.87345 25.2769 2.86684 25.3507 2.84473 27.1098L2.82177 28.9309L3.25859 29.2552V27.359C3.25859 25.3159 3.2753 25.2041 3.65617 24.7027C3.75512 24.5724 4.00207 24.3779 4.20488 24.2705L4.57367 24.0753H8.55445L8.78532 24.0753C11.9934 24.0751 12.7196 24.0751 13.3647 24.3055C13.5534 24.3729 13.7352 24.46 13.9702 24.5727L14.028 24.6004C15.7575 25.4283 16.7724 27.0588 16.8967 29.2092L16.9425 30.0005L28.2639 30.037L28.3318 29.6801L17.298 29.6435L17.2525 28.8583ZM5.84702 25.0947C5.90055 24.9411 5.8874 24.8703 5.78404 24.7556C5.67905 24.6391 5.56538 24.6107 5.20406 24.6107C4.80555 24.6107 4.74172 24.6304 4.64049 24.7856C4.4991 25.0023 4.56273 25.2387 4.77683 25.2927C4.86384 25.3146 5.12501 25.3227 5.35718 25.3107C5.74409 25.2907 5.78497 25.2727 5.84702 25.0947ZM56.5181 28.9964C56.7634 28.7268 56.8606 28.5642 56.8444 28.4499C56.8051 28.1719 56.5322 28.2007 56.2406 28.5137C55.099 29.7395 54.5086 31.1519 54.3914 32.9372C54.3503 33.5629 54.3552 33.5931 54.5092 33.676C54.7701 33.8161 54.8477 33.6522 54.9328 32.7812C55.0902 31.1702 55.5594 30.0498 56.5181 28.9964ZM71.6983 32.8547C71.596 31.177 70.9912 29.736 69.8937 28.5549C69.7386 28.388 69.5668 28.254 69.512 28.2571C69.1503 28.2775 69.1407 28.5616 69.4901 28.8978C70.4284 29.8004 71.0628 31.3124 71.1891 32.9469C71.2317 33.4996 71.2631 33.6211 71.3792 33.6835C71.481 33.7382 71.5482 33.7333 71.6301 33.665C71.724 33.5868 71.7349 33.4565 71.6983 32.8547ZM66.7511 30.3217C66.253 29.8274 65.675 29.4791 65.0427 29.2926C64.4743 29.125 63.5986 29.0905 63.0551 29.2143C62.02 29.4503 60.9862 30.1645 60.439 31.0215C59.2348 32.9081 59.7436 35.424 61.5788 36.6567C62.2644 37.1172 62.8463 37.3159 63.6542 37.3652C64.7942 37.4349 65.8432 37.0516 66.6896 36.2561C67.5622 35.436 67.9902 34.4262 67.9795 33.2129C67.9691 32.0499 67.5877 31.1522 66.7511 30.3217ZM2.73086 30.8749C3.16903 30.4717 3.11912 29.7474 2.63048 29.4166C2.38581 29.251 0.720419 29.1815 0.575121 29.3309C0.482283 29.4263 0.445248 30.7739 0.529413 30.9941C0.565808 31.0893 0.722125 31.107 1.52567 31.107H2.47872L2.73086 30.8749ZM31.6217 35.8186V29.822H31.053V35.8186H31.6217ZM38.3748 35.8186V29.822H38.1378C38.0075 29.822 37.8795 29.8434 37.8535 29.8696C37.8274 29.8957 37.8061 31.245 37.8061 32.8679V35.8186H38.3748ZM30.5554 31.2498V29.8934H28.7782V35.6044H30.5554V31.6067H29.8521C29.1478 31.6067 29.0356 31.566 29.1145 31.339C29.1365 31.2757 29.3504 31.2498 29.8504 31.2498H30.5554ZM37.3085 31.2403V29.8934H32.1903V31.2476L34.3051 31.2665C36.3662 31.285 36.4199 31.2891 36.4199 31.4282C36.4199 31.5674 36.3662 31.5715 34.3051 31.5899L32.1903 31.6088V35.6044H37.3085V31.6162L37.113 31.5936C36.9724 31.5774 36.9175 31.5309 36.9175 31.4282C36.9175 31.3256 36.9724 31.2791 37.113 31.2629L37.3085 31.2403ZM40.8628 31.2498V29.8934H38.9434V31.2498H40.8628ZM40.8628 35.6044V31.6067H38.9434V35.6044H40.8628ZM70.4924 32.6992C70.8003 32.6243 70.8225 32.4729 70.5665 32.1957C70.4849 32.1073 70.3443 32.035 70.2542 32.035C70.0998 32.035 70.0927 32.0548 70.1344 32.3741C70.1587 32.5607 70.1883 32.7249 70.2002 32.7391C70.2121 32.7533 70.3436 32.7354 70.4924 32.6992ZM42.222 32.6775L42.1778 32.1421L41.3603 32.0993V32.6775H42.222ZM53.0183 32.5348C52.8124 32.5348 52.5208 32.3255 52.5208 32.1778C52.5208 32.131 51.0516 32.1064 48.2556 32.1064H43.9905V32.7489L44.5059 32.7491C45.1053 32.7492 49.9533 32.8665 51.8988 32.9279L53.2316 32.9699V32.7523C53.2316 32.5582 53.2086 32.5348 53.0183 32.5348ZM56.0424 32.8022C56.0504 32.7925 56.0789 32.632 56.1058 32.4455L56.1548 32.1064H55.8714C55.6243 32.1064 55.5734 32.1354 55.476 32.3316C55.4145 32.4554 55.3642 32.5648 55.3642 32.5747C55.3642 32.6011 56.0255 32.823 56.0424 32.8022Z" fill="#0B225C"/>
<path fill-rule="evenodd" clip-rule="evenodd" d="M19.4305 12.3337C19.2741 12.4131 19.0822 12.5657 19.004 12.6727C18.8643 12.864 18.8615 12.9971 18.8407 20.3274C18.826 25.5143 18.843 27.8685 18.8963 28.0533C18.9443 28.2194 19.0701 28.3935 19.2318 28.5173L19.4905 28.7155H23.4183C27.2709 28.7155 27.3499 28.7127 27.5468 28.5685C27.6572 28.4877 27.8201 28.2789 27.9087 28.1046L28.0699 27.7877L28.0509 20.3989C28.0321 13.1301 28.0295 13.0061 27.888 12.7603C27.8029 12.6123 27.6156 12.4449 27.4287 12.3498C27.1135 12.1893 27.1093 12.1892 23.414 12.1892C19.8422 12.1893 19.705 12.1942 19.4305 12.3337ZM27.5007 13.1796L27.0831 12.7603H23.4264C19.8345 12.7603 19.7663 12.7629 19.5823 12.9083L19.395 13.0562V27.889L19.5506 28.0345C19.703 28.1771 19.7808 28.1801 23.4168 28.1801C26.9644 28.1801 27.1349 28.1741 27.2953 28.0437L27.4632 27.9072L27.5007 13.1796Z" fill="#0B225C"/>
<path d="M20.1993 13.4033C20.1139 13.4378 20.0099 13.53 19.9683 13.6082C19.9198 13.6992 19.8926 14.4809 19.8926 15.7816C19.8926 17.6751 19.9018 17.8245 20.0284 17.9815L20.1643 18.1501L26.5769 18.19L26.93 17.8353V13.6818L26.5811 13.3314L23.4678 13.3359C21.7556 13.3384 20.2847 13.3687 20.1993 13.4033Z" fill="#0B225C"/>
<path d="M43.9545 11.9869C43.9346 12.0393 43.9266 15.3106 43.9366 19.2566C43.9528 25.5781 43.9676 26.4311 44.0616 26.4311C44.1556 26.4311 44.1682 25.5791 44.1682 19.1911C44.1682 13.4643 44.1497 11.945 44.0794 11.9215C44.0305 11.9051 43.9743 11.9346 43.9545 11.9869Z" fill="#0B225C"/>
<path d="M16.1428 21.7623C15.3869 22.1866 15.4386 22.2549 16.516 22.2549H17.4046V22.0823C17.4046 21.8131 17.3329 21.6871 17.1151 21.574C16.8213 21.4214 16.7127 21.4424 16.1428 21.7623Z" fill="#0B225C"/>
<path d="M24.595 21.8897C24.5423 21.9233 24.5107 22.0112 24.5248 22.085C24.5483 22.208 24.6377 22.2208 25.5981 22.239L26.6457 22.2587V22.086C26.6457 21.9909 26.5951 21.8937 26.5332 21.8699C26.3611 21.8036 24.7038 21.8205 24.595 21.8897Z" fill="#0B225C"/>
<path d="M15.6274 23.0401H17.4046V22.6118H15.6274V23.0401Z" fill="#0B225C"/>
<path d="M15.6274 23.4637C15.6274 23.5758 16.5725 24.0486 16.8163 24.0585C17.0934 24.0697 17.4046 23.8076 17.4046 23.5631C17.4046 23.3981 17.3987 23.3971 16.516 23.3971C16.0135 23.3971 15.6274 23.426 15.6274 23.4637Z" fill="#0B225C"/>
<path fill-rule="evenodd" clip-rule="evenodd" d="M63.4296 31.7064C62.3286 32.0624 61.9166 33.4 62.6375 34.2783C63.6026 35.4541 65.4916 34.7766 65.4902 33.2551C65.4892 32.1907 64.4191 31.3865 63.4296 31.7064ZM64.9256 33.2613C64.9256 32.8871 64.7563 32.5735 64.443 32.3673C64.0086 32.0815 63.455 32.1782 63.0998 32.6022C62.775 32.9898 62.7539 33.4736 63.0442 33.883C63.618 34.6922 64.9256 34.2601 64.9256 33.2613Z" fill="#0B225C"/>
<path fill-rule="evenodd" clip-rule="evenodd" d="M44.3712 1.16536C44.3052 1.26658 44.2512 1.44077 44.2512 1.55235C44.2512 1.81827 44.4546 2.12345 44.6319 2.12345C45.0506 2.12345 45.2217 1.40743 44.8695 1.12923C44.6234 0.934844 44.5166 0.942554 44.3712 1.16536ZM5.78404 24.7556C5.8874 24.8703 5.90055 24.9411 5.84702 25.0947C5.78497 25.2727 5.74409 25.2907 5.35718 25.3107C5.12501 25.3227 4.86384 25.3146 4.77683 25.2927C4.56273 25.2387 4.4991 25.0023 4.64049 24.7856C4.74172 24.6304 4.80555 24.6107 5.20406 24.6107C5.56538 24.6107 5.67905 24.6391 5.78404 24.7556ZM8.69662 26.7581C7.59132 26.913 6.22299 27.5398 5.34402 28.2939C4.25293 29.23 3.41967 30.7398 3.18388 32.2075C3.06588 32.9422 3.13299 34.3566 3.31461 34.9619C4.16671 37.8017 6.67841 39.1626 9.5 39.3063C11.3481 39.4004 13 38.8087 14.1183 38.0041C15.8969 36.3073 16.5699 33.8566 15.9109 31.4763C15.0393 28.3279 11.9434 26.3031 8.69662 26.7581ZM10.8835 29.5719C11.1479 29.6627 11.5194 29.837 11.7091 29.9591C12.5091 30.4747 13.2229 31.4914 13.425 32.4031C13.5647 33.033 13.4857 34.1094 13.2593 34.6627C12.5548 36.3841 10.8252 37.3903 9.04004 37.1172C7.19182 36.8344 5.74374 35.1498 5.74765 33.2872C5.74992 32.1989 6.12056 31.3021 6.89198 30.5185C7.95023 29.4436 9.46435 29.0844 10.8835 29.5719ZM9.08759 31.7434C7.92755 32.1519 7.6452 33.6692 8.57983 34.4726C9.63787 35.3821 11.2128 34.6609 11.2186 33.2642C11.2234 32.1198 10.1646 31.3642 9.08759 31.7434ZM10.0635 32.318C10.844 32.6738 10.8548 33.8042 10.0814 34.1944C9.15221 34.6632 8.1932 33.5889 8.74318 32.6954C8.89737 32.4447 9.34741 32.181 9.62073 32.181C9.69893 32.181 9.89818 32.2426 10.0635 32.318Z" fill="#0B225C"/>
<path fill-rule="evenodd" clip-rule="evenodd" d="M127.63 32.3811C126.597 32.7075 126.21 33.9336 126.887 34.7387C127.793 35.8166 129.565 35.1955 129.564 33.8008C129.563 32.8252 128.559 32.0879 127.63 32.3811ZM129.034 33.8065C129.034 33.4635 128.875 33.176 128.581 32.987C128.173 32.725 127.654 32.8137 127.321 33.2023C127.016 33.5577 126.996 34.0011 127.269 34.3764C127.807 35.1181 129.034 34.7221 129.034 33.8065Z" fill="#0B225C"/>
<path fill-rule="evenodd" clip-rule="evenodd" d="M113.586 32.3811C112.553 32.7075 112.167 33.9336 112.843 34.7387C113.749 35.8166 115.521 35.1955 115.52 33.8008C115.519 32.8252 114.515 32.0879 113.586 32.3811ZM114.99 33.8065C114.99 33.4635 114.831 33.176 114.537 32.987C114.13 32.725 113.61 32.8137 113.277 33.2023C112.972 33.5577 112.952 34.0011 113.225 34.3764C113.763 35.1181 114.99 34.7221 114.99 33.8065Z" fill="#0B225C"/>
<path fill-rule="evenodd" clip-rule="evenodd" d="M129.034 33.8065C129.034 33.4635 128.875 33.176 128.581 32.987C128.173 32.725 127.654 32.8137 127.321 33.2023C127.016 33.5577 126.996 34.0011 127.269 34.3764C127.807 35.1181 129.034 34.7221 129.034 33.8065ZM126.887 34.7387C126.21 33.9336 126.597 32.7075 127.63 32.3811C128.559 32.0879 129.563 32.8252 129.564 33.8008C129.565 35.1955 127.793 35.8166 126.887 34.7387Z" fill="#0B225C"/>
<path fill-rule="evenodd" clip-rule="evenodd" d="M107.262 29.1499L106.935 29.9669C106.482 31.0971 106.102 33.1737 106.046 34.8235L106 36.2089L107.269 36.2749C108.356 36.3315 108.558 36.3785 108.686 36.6042C110.31 39.4735 113.874 40.6062 116.714 39.1556C117.632 38.6864 118.765 37.6299 119.19 36.8469L119.501 36.2749H122.476L122.913 36.9886C123.393 37.7739 124.486 38.8027 125.232 39.1729C125.496 39.3038 126.19 39.5144 126.774 39.6409C127.682 39.8374 127.977 39.8483 128.799 39.7161C130.63 39.4216 131.984 38.5764 132.969 37.1125L133.532 36.2749H135.365V37.3803C135.365 38.565 135.558 38.9929 135.907 38.5823C136.039 38.4267 136.06 37.835 136 36.0408C135.914 33.4564 135.661 31.6071 135.229 30.4034C135.073 29.968 134.752 29.0378 134.752 29.0378H137.916V32.2568H139V27.9856L137.916 26.8661H109.098L106.935 27.9856L107.262 29.1499ZM134.318 29.8427C133.961 29.1044 133.26 28.3474 132.597 27.9856C132.229 27.7843 131.206 27.7625 121.189 27.7419C114.896 27.729 110.006 27.7707 109.767 27.8393C109.164 28.0126 108.21 28.8847 107.781 29.6539C107.292 30.5327 106.949 31.9041 106.742 33.8106C106.613 35.0007 106.611 35.4071 106.731 35.5246C106.979 35.767 107.098 35.4574 107.274 34.1146C107.749 30.4932 108.809 28.363 110.276 28.0831C110.597 28.0218 115.539 27.972 121.256 27.9724C121.89 27.9725 122.488 27.9724 123.053 27.9722L123.065 27.9722C131.088 27.9703 132.29 27.9701 132.831 28.5544C132.927 28.6574 133.001 28.7786 133.089 28.9211C133.125 28.9783 133.162 29.039 133.204 29.1033C133.927 30.218 134.527 32.2051 134.752 34.2298C134.883 35.4172 134.945 35.6152 135.183 35.6152C135.374 35.6152 135.389 35.4558 135.306 34.2627C135.195 32.652 134.781 30.7996 134.318 29.8427ZM117.274 34.0392C117.274 32.6467 116.381 31.3511 115.136 30.9366C113.111 30.2623 111.048 31.4968 110.719 33.5794C110.534 34.7542 111.268 36.1138 112.423 36.7348C114.589 37.8994 117.274 36.4073 117.274 34.0392ZM130.94 32.4956C130.552 31.7673 129.68 31.0581 128.952 30.8789C127.328 30.4794 125.819 31.1078 125.07 32.4956C124.615 33.3381 124.647 34.6904 125.141 35.5117C126.448 37.684 129.482 37.7128 130.835 35.5654C131.187 35.0056 131.239 34.7999 131.235 33.9821C131.232 33.2831 131.156 32.9023 130.94 32.4956Z" fill="#0B225C"/>
<path fill-rule="evenodd" clip-rule="evenodd" d="M74.2395 30.7157V26.8661H109V27.9952H98.4865V28.6L103.605 28.6364L103.677 34.5425L78.1497 34.4578V28.5699H80.2306L82.2205 28.6V28.0385H79.3474L75.3851 27.9952V33.3811H75.1471V34.0836H75.5525V34.5519H74V34.0836H74.4631V33.3811H74.2251L74.2395 30.7157ZM98.7519 33.3371V29.9306L102.255 29.965L102.294 33.3811L98.7519 33.3371ZM83.7194 31.7668L83.7579 33.2867H97.5291V29.965L90.8028 30.0142H83.7194C83.7194 30.0142 83.6983 30.931 83.7194 31.7668ZM97.3577 28.5699C97.3577 28.5699 89.7058 28.5079 83.7579 28.5379V28.0385C83.7579 28.0385 90.6135 28.0045 97.3577 28.0385V28.5699ZM82.4078 33.2867V30.0142H79.505V33.3622L82.4078 33.2867Z" fill="#0B225C"/>
<path fill-rule="evenodd" clip-rule="evenodd" d="M47 0C47 0 46.9745 5.85279 47.0216 13.3014L47.107 26.8439H139V0.0229511L47 0ZM138 26V1H48V26H138Z" fill="#0B225C"/>
<path d="M96.8874 15.8474L95.4655 15.0264L96.6977 14.2998C96.925 14.1658 97.0006 13.8729 96.8666 13.6456C96.7325 13.4183 96.4398 13.3428 96.2123 13.4767L94.515 14.4777L93.516 13.9009V12.099L94.5144 11.5226L96.2124 12.5234C96.2886 12.5683 96.3721 12.5896 96.4546 12.5896C96.6182 12.5896 96.7775 12.5055 96.8666 12.3544C97.0006 12.1271 96.9249 11.8342 96.6977 11.7002L95.4651 10.9737L96.8874 10.1525C97.1159 10.0206 97.1941 9.7284 97.0622 9.4999C96.9304 9.27141 96.638 9.19313 96.4096 9.32505L94.9876 10.1461L94.9747 8.71531C94.9724 8.45147 94.7561 8.23789 94.4927 8.2419C94.2288 8.24426 94.0169 8.46007 94.0192 8.72392L94.0369 10.6948L93.0381 11.2715L91.4777 10.3706V9.21752L93.1936 8.24776C93.4232 8.11794 93.5042 7.82651 93.3744 7.59675C93.2446 7.36705 92.953 7.28602 92.7234 7.4159L91.4777 8.11998V6.47773C91.4777 6.21389 91.2639 5.99998 91 5.99998C90.7361 5.99998 90.5222 6.21389 90.5222 6.47773V8.11998L89.2765 7.41597C89.0468 7.28602 88.7553 7.36711 88.6255 7.59681C88.4957 7.82651 88.5767 8.118 88.8064 8.24782L90.5222 9.21759V10.3707L88.9619 11.2716L87.963 10.6948L87.9807 8.72398C87.983 8.46013 87.7711 8.24432 87.5072 8.24196H87.5029C87.2411 8.24196 87.0275 8.453 87.0252 8.71544L87.0123 10.1461L85.5905 9.32511C85.3618 9.19313 85.0697 9.27148 84.9379 9.49997C84.8059 9.72846 84.8842 10.0207 85.1127 10.1526L86.5349 10.9737L85.3022 11.7002C85.0749 11.8342 84.9992 12.1271 85.1332 12.3544C85.2223 12.5056 85.3816 12.5897 85.5452 12.5897C85.6277 12.5897 85.7112 12.5683 85.7874 12.5235L87.4855 11.5226L88.4841 12.0992V13.901L87.485 14.4779L85.7874 13.4768C85.5602 13.3428 85.2674 13.4184 85.1332 13.6457C84.9992 13.873 85.0749 14.1658 85.3021 14.2999L86.5345 15.0265L85.1127 15.8474C84.8842 15.9793 84.8059 16.2715 84.9379 16.5C85.0264 16.6533 85.1869 16.7389 85.352 16.7389C85.4331 16.7389 85.5153 16.7182 85.5905 16.6749L87.0123 15.854L87.0252 17.2847C87.0275 17.5471 87.241 17.7582 87.5029 17.7582L87.5072 17.7581C87.771 17.7558 87.983 17.54 87.9807 17.2761L87.9629 15.3051L88.9618 14.7283L90.5222 15.6293V16.7826L88.8064 17.7523C88.5767 17.8822 88.4957 18.1736 88.6255 18.4034C88.7134 18.5588 88.8752 18.6461 89.0418 18.6461C89.1215 18.6461 89.2022 18.6262 89.2765 18.5842L90.5222 17.8802V19.5223C90.5222 19.7861 90.7361 20 91 20C91.2639 20 91.4777 19.7861 91.4777 19.5223V17.8802L92.7234 18.5842C92.7977 18.6262 92.8785 18.6461 92.9581 18.6461C93.1248 18.6461 93.2866 18.5588 93.3745 18.4034C93.5043 18.1736 93.4233 17.8822 93.1936 17.7523L91.4778 16.7826V15.6294L93.0382 14.7283L94.0371 15.3049L94.0188 17.2759C94.0164 17.5398 94.2283 17.7557 94.4922 17.7581L94.4967 17.7581C94.7585 17.7581 94.9719 17.5471 94.9743 17.2848L94.9876 15.8537L96.4097 16.6748C96.485 16.7182 96.5671 16.7389 96.6481 16.7389C96.8132 16.7389 96.9738 16.6531 97.0623 16.4999C97.1941 16.2715 97.1158 15.9793 96.8874 15.8474ZM89.4396 12.0991L91.0001 11.1981L92.5605 12.0991V13.9009L91.0001 14.8019L89.4396 13.9009V12.0991Z" fill="#0B225C"/>
<path d="M117.887 15.8474L116.465 15.0264L117.698 14.2998C117.925 14.1658 118.001 13.8729 117.867 13.6456C117.733 13.4183 117.44 13.3428 117.212 13.4767L115.515 14.4777L114.516 13.9009V12.099L115.514 11.5226L117.212 12.5234C117.289 12.5683 117.372 12.5896 117.455 12.5896C117.618 12.5896 117.777 12.5055 117.867 12.3544C118.001 12.1271 117.925 11.8342 117.698 11.7002L116.465 10.9737L117.887 10.1525C118.116 10.0206 118.194 9.7284 118.062 9.4999C117.93 9.27141 117.638 9.19313 117.41 9.32505L115.988 10.1461L115.975 8.71531C115.972 8.45147 115.756 8.23789 115.493 8.2419C115.229 8.24426 115.017 8.46007 115.019 8.72392L115.037 10.6948L114.038 11.2715L112.478 10.3706V9.21752L114.194 8.24776C114.423 8.11794 114.504 7.82651 114.374 7.59675C114.245 7.36705 113.953 7.28602 113.723 7.4159L112.478 8.11998V6.47773C112.478 6.21389 112.264 5.99998 112 5.99998C111.736 5.99998 111.522 6.21389 111.522 6.47773V8.11998L110.277 7.41597C110.047 7.28602 109.755 7.36711 109.626 7.59681C109.496 7.82651 109.577 8.118 109.806 8.24782L111.522 9.21759V10.3707L109.962 11.2716L108.963 10.6948L108.981 8.72398C108.983 8.46013 108.771 8.24432 108.507 8.24196H108.503C108.241 8.24196 108.028 8.453 108.025 8.71544L108.012 10.1461L106.59 9.32511C106.362 9.19313 106.07 9.27148 105.938 9.49997C105.806 9.72846 105.884 10.0207 106.113 10.1526L107.535 10.9737L106.302 11.7002C106.075 11.8342 105.999 12.1271 106.133 12.3544C106.222 12.5056 106.382 12.5897 106.545 12.5897C106.628 12.5897 106.711 12.5683 106.787 12.5235L108.486 11.5226L109.484 12.0992V13.901L108.485 14.4779L106.787 13.4768C106.56 13.3428 106.267 13.4184 106.133 13.6457C105.999 13.873 106.075 14.1658 106.302 14.2999L107.535 15.0265L106.113 15.8474C105.884 15.9793 105.806 16.2715 105.938 16.5C106.026 16.6533 106.187 16.7389 106.352 16.7389C106.433 16.7389 106.515 16.7182 106.59 16.6749L108.012 15.854L108.025 17.2847C108.028 17.5471 108.241 17.7582 108.503 17.7582L108.507 17.7581C108.771 17.7558 108.983 17.54 108.981 17.2761L108.963 15.3051L109.962 14.7283L111.522 15.6293V16.7826L109.806 17.7523C109.577 17.8822 109.496 18.1736 109.626 18.4034C109.713 18.5588 109.875 18.6461 110.042 18.6461C110.121 18.6461 110.202 18.6262 110.277 18.5842L111.522 17.8802V19.5223C111.522 19.7861 111.736 20 112 20C112.264 20 112.478 19.7861 112.478 19.5223V17.8802L113.723 18.5842C113.798 18.6262 113.878 18.6461 113.958 18.6461C114.125 18.6461 114.287 18.5588 114.374 18.4034C114.504 18.1736 114.423 17.8822 114.194 17.7523L112.478 16.7826V15.6294L114.038 14.7283L115.037 15.3049L115.019 17.2759C115.016 17.5398 115.228 17.7557 115.492 17.7581L115.497 17.7581C115.758 17.7581 115.972 17.5471 115.974 17.2848L115.988 15.8537L117.41 16.6748C117.485 16.7182 117.567 16.7389 117.648 16.7389C117.813 16.7389 117.974 16.6531 118.062 16.4999C118.194 16.2715 118.116 15.9793 117.887 15.8474ZM110.44 12.0991L112 11.1981L113.561 12.0991V13.9009L112 14.8019L110.44 13.9009V12.0991Z" fill="#0B225C"/>
<path d="M75.8874 15.8474L74.4655 15.0264L75.6977 14.2998C75.925 14.1658 76.0006 13.8729 75.8666 13.6456C75.7325 13.4183 75.4398 13.3428 75.2123 13.4767L73.515 14.4777L72.516 13.9009V12.099L73.5144 11.5226L75.2124 12.5234C75.2886 12.5683 75.3721 12.5896 75.4546 12.5896C75.6182 12.5896 75.7775 12.5055 75.8666 12.3544C76.0006 12.1271 75.9249 11.8342 75.6977 11.7002L74.4651 10.9737L75.8874 10.1525C76.1159 10.0206 76.1941 9.7284 76.0622 9.4999C75.9304 9.27141 75.638 9.19313 75.4096 9.32505L73.9876 10.1461L73.9747 8.71531C73.9724 8.45147 73.7561 8.23789 73.4927 8.2419C73.2288 8.24426 73.0169 8.46007 73.0192 8.72392L73.0369 10.6948L72.0381 11.2715L70.4777 10.3706V9.21752L72.1935 8.24776C72.4232 8.11794 72.5042 7.82651 72.3744 7.59675C72.2446 7.36705 71.953 7.28602 71.7234 7.4159L70.4777 8.11998V6.47773C70.4777 6.21389 70.2639 5.99998 70 5.99998C69.7361 5.99998 69.5222 6.21389 69.5222 6.47773V8.11998L68.2765 7.41597C68.0468 7.28602 67.7553 7.36711 67.6255 7.59681C67.4957 7.82651 67.5767 8.118 67.8064 8.24782L69.5222 9.21759V10.3707L67.9619 11.2716L66.963 10.6948L66.9807 8.72398C66.983 8.46013 66.7711 8.24432 66.5072 8.24196H66.5029C66.2411 8.24196 66.0275 8.453 66.0252 8.71544L66.0123 10.1461L64.5905 9.32511C64.3618 9.19313 64.0697 9.27148 63.9379 9.49997C63.8059 9.72846 63.8842 10.0207 64.1127 10.1526L65.5349 10.9737L64.3022 11.7002C64.0749 11.8342 63.9992 12.1271 64.1332 12.3544C64.2223 12.5056 64.3816 12.5897 64.5452 12.5897C64.6277 12.5897 64.7112 12.5683 64.7874 12.5235L66.4855 11.5226L67.4841 12.0992V13.901L66.485 14.4779L64.7874 13.4768C64.5602 13.3428 64.2674 13.4184 64.1332 13.6457C63.9992 13.873 64.0749 14.1658 64.3021 14.2999L65.5345 15.0265L64.1127 15.8474C63.8842 15.9793 63.8059 16.2715 63.9379 16.5C64.0264 16.6533 64.1869 16.7389 64.352 16.7389C64.4331 16.7389 64.5153 16.7182 64.5905 16.6749L66.0123 15.854L66.0252 17.2847C66.0275 17.5471 66.241 17.7582 66.5029 17.7582L66.5072 17.7581C66.771 17.7558 66.983 17.54 66.9807 17.2761L66.9629 15.3051L67.9618 14.7283L69.5222 15.6293V16.7826L67.8064 17.7523C67.5767 17.8822 67.4957 18.1736 67.6255 18.4034C67.7134 18.5588 67.8752 18.6461 68.0418 18.6461C68.1215 18.6461 68.2022 18.6262 68.2765 18.5842L69.5222 17.8802V19.5223C69.5222 19.7861 69.7361 20 70 20C70.2639 20 70.4777 19.7861 70.4777 19.5223V17.8802L71.7234 18.5842C71.7977 18.6262 71.8785 18.6461 71.9581 18.6461C72.1248 18.6461 72.2866 18.5588 72.3745 18.4034C72.5043 18.1736 72.4233 17.8822 72.1936 17.7523L70.4778 16.7826V15.6294L72.0382 14.7283L73.0371 15.3049L73.0188 17.2759C73.0164 17.5398 73.2283 17.7557 73.4922 17.7581L73.4967 17.7581C73.7585 17.7581 73.9719 17.5471 73.9743 17.2848L73.9876 15.8537L75.4097 16.6748C75.485 16.7182 75.5671 16.7389 75.6481 16.7389C75.8132 16.7389 75.9738 16.6531 76.0623 16.4999C76.1941 16.2715 76.1158 15.9793 75.8874 15.8474ZM68.4396 12.0991L70.0001 11.1981L71.5605 12.0991V13.9009L70.0001 14.8019L68.4396 13.9009V12.0991Z" fill="#0B225C"/>
</svg>
