<svg width="174" height="40" viewBox="0 0 174 40" fill="none" xmlns="http://www.w3.org/2000/svg">
<path fill-rule="evenodd" clip-rule="evenodd" d="M146.279 32.489C145.246 32.8192 144.86 34.0599 145.536 34.8745C146.442 35.9651 148.215 35.3367 148.213 33.9255C148.212 32.9383 147.208 32.1923 146.279 32.489ZM147.683 33.9313C147.683 33.5842 147.524 33.2933 147.23 33.1021C146.823 32.837 146.303 32.9267 145.97 33.32C145.665 33.6795 145.645 34.1281 145.918 34.5079C146.456 35.2584 147.683 34.8577 147.683 33.9313Z" fill="#0B225C"/>
<path fill-rule="evenodd" clip-rule="evenodd" d="M73.4697 28.1619L69.0287 27.9179L67.6061 27.8397C67.8815 27.8699 68.2287 27.9564 68.8168 28.1353C69.3763 28.3055 69.8341 28.4675 69.8341 28.4952C69.8341 28.523 69.747 28.5647 69.6406 28.5879C69.5037 28.6178 69.0903 28.5218 68.2264 28.2599C67.555 28.0563 66.9916 27.8758 66.9744 27.8588L64.2643 27.8369L63.1402 27.8279L63.3852 28.4224C63.5199 28.7493 63.6301 29.0323 63.6301 29.0514C63.6301 29.0704 63.3698 29.086 63.0517 29.086C62.5998 29.086 62.4456 29.1107 62.3473 29.199C62.246 29.2901 62.1994 29.2966 62.1085 29.2326C60.8493 28.345 59.2883 27.9165 57.9218 28.0832C56.8006 28.2199 55.8603 28.5822 54.9926 29.2117C54.5606 29.5252 54.4996 29.5494 54.1434 29.5494C53.7891 29.5494 53.7565 29.5367 53.7176 29.3829C53.6587 29.15 53.3812 28.9535 53.1115 28.9535C52.9341 28.9535 52.8137 29.0189 52.5632 29.2515L52.2424 29.5494H49.3577L49.2547 29.3517C49.1981 29.243 49.0805 29.1363 48.9935 29.1147C48.8539 29.0799 48.8265 29.0169 48.7613 28.5813C48.7246 28.3371 48.6772 27.0584 48.6772 27.0584L47.4541 27.0863C47.4363 27.1635 47.3946 28.3397 47.3492 28.6012C47.278 29.0108 47.2452 29.0818 47.111 29.1153C47.0254 29.1366 46.8891 29.243 46.8081 29.3517L46.6609 29.5494H42.8835V24.845V24.7675C42.8835 20.4035 42.8835 19.8901 42.6585 19.7589C42.6284 19.7414 42.5944 19.7307 42.5559 19.7186L42.5507 19.717C42.4185 19.6753 42.4165 19.623 42.4163 16.0872C42.4161 12.6506 42.4106 12.4906 42.2863 12.2884C42.1669 12.094 41.846 11.9383 41.5623 11.9371C41.4917 11.9368 41.4774 7.25665 41.4867 4.47119C41.4956 1.82822 41.479 1.00254 41.4146 0.883153C41.3062 0.682196 41.3072 0.254061 41.4163 0.12362L41.4755 0C41.4755 0 40.9984 0.118257 40.8214 0.293987C40.4287 0.683785 40.4152 0.824091 40.4152 4.53932C40.4152 7.18686 40.3975 11.9368 40.3319 11.9371C40.286 11.9373 40.1343 11.9689 39.9948 12.0074C39.6766 12.0951 39.4819 12.3891 39.4816 12.7824L39.4813 13.0654L39.1478 12.8485V9.17793L39.1478 9.00355C39.1478 5.78287 39.1479 5.29958 38.9169 5.13261C38.8761 5.10313 38.8281 5.08351 38.7717 5.06043L38.7545 5.05337C38.6292 5.00186 38.4481 4.98848 38.2677 5.01742C37.5414 5.13369 33.0687 5.94758 31.5095 6.2472C24.4973 7.59477 21.2502 9.3475 20.2982 12.2989L20.1494 12.7605L19.6255 12.7421C19.0157 12.7206 18.072 12.8186 17.5006 12.9627C16.971 13.0962 16.1027 13.5236 15.7495 13.8244C15.517 14.0223 15.4659 14.1073 15.4659 14.2958C15.4659 14.6038 15.6072 14.8564 15.9294 15.1243L16.1967 15.3467L15.8416 17.0351C15.6465 17.9638 15.4151 19.1493 15.3276 19.6697C15.1886 20.4965 15.1515 20.6195 15.0337 20.6458C14.9595 20.6624 13.6981 20.7517 12.2305 20.8443C5.70903 21.256 4.7254 21.3737 3.84897 21.8471C3.48994 22.0411 3.07694 22.4659 3.01704 22.7028C2.98528 22.8283 2.92351 22.8488 2.4929 22.8762C1.74495 22.9239 1.27285 23.2457 1.06692 23.8484C0.97186 24.1266 0.958384 29.3258 1.05204 29.5704C1.11255 29.7283 1.10474 29.7333 0.747516 29.7627C0.463401 29.786 0.340656 29.8328 0.201833 29.9704C0.0277886 30.143 0.022185 30.1728 0.00430688 31.024C-0.0165064 32.0155 0.0267213 32.1638 0.390554 32.3502C0.58648 32.4506 0.75959 32.4663 1.49032 32.4495C2.50297 32.4264 2.76387 32.3322 3.09135 31.8716C3.27467 31.6137 3.29154 31.5439 3.29221 31.0403C3.29288 30.5081 3.30135 30.4782 3.55905 30.1056C3.96351 29.5206 4.71199 28.8039 5.349 28.3918C6.01796 27.959 6.45817 27.7563 7.25141 27.516C7.77608 27.3571 7.93225 27.341 8.99513 27.3363C10.3866 27.3303 10.8943 27.4371 11.9666 27.9615C14.3492 29.1266 15.8182 31.5448 15.7228 34.1445C15.7092 34.5127 15.7258 34.7804 15.762 34.7804C15.7964 34.7803 16.817 34.7053 18.0301 34.6137C20.1978 34.45 20.2382 34.4443 20.3826 34.2826C20.5549 34.0897 20.7207 34.0721 20.8399 34.234C20.917 34.3387 21.1041 34.3518 22.778 34.3695C24.5565 34.3884 24.6381 34.3837 24.8153 34.2536C25.067 34.069 25.355 34.0752 25.4399 34.2671C25.559 34.5368 26.1607 34.5054 26.2314 34.226C26.2534 34.1389 26.3299 34.0526 26.4014 34.034C26.5262 34.0016 26.5323 34.0483 26.5522 35.1903C26.5713 36.2785 26.5841 36.3883 26.7025 36.4742C26.7997 36.5445 27.0649 36.568 27.7625 36.568C28.5637 36.568 28.7046 36.5838 28.7765 36.6813C28.838 36.7648 28.9865 36.8017 29.3405 36.8216C29.7515 36.8446 29.8487 36.8283 30.0122 36.7083C30.1986 36.5715 30.2626 36.568 32.6409 36.568C33.9816 36.568 35.0785 36.5931 35.0785 36.6236C35.0785 36.8518 36.0927 36.9125 36.3642 36.7005C36.5166 36.5815 36.6348 36.568 37.5279 36.568C38.2803 36.568 38.5534 36.5452 38.6514 36.4742C38.767 36.3905 38.7832 36.2802 38.8026 35.4479L38.8243 34.5154L39.87 34.5209C40.4451 34.5238 43.5551 34.5909 46.7811 34.6698L52.6467 34.8134L52.7617 35.2769C53.2544 37.2637 54.7039 38.8521 56.5929 39.4756C57.414 39.7466 58.061 39.8367 58.8604 39.7914C60.7621 39.6837 62.5028 38.67 63.5284 37.073C63.8769 36.5304 64.0869 36.0371 64.2643 35.3439L64.4167 34.7488L64.8221 34.6302C65.2112 34.5166 65.2484 34.5165 65.7398 34.6295L66.2521 34.7472L66.4104 35.3431C66.9775 37.4777 68.5369 39.0456 70.668 39.6242C71.4452 39.8352 72.8446 39.8365 73.6256 39.6268C74.6536 39.3509 75.495 38.8833 76.2627 38.1611C77.1442 37.332 77.6854 36.3164 77.9999 34.9015C78.0313 34.7601 78.1064 34.7026 78.3756 34.6139C78.6849 34.5119 78.73 34.5115 78.9361 34.6085C79.228 34.746 79.2524 34.7441 79.7686 34.5436C80.3725 34.3091 80.4409 34.2145 80.4409 33.6142C80.4409 33.1655 80.4521 33.125 80.5773 33.125C80.6523 33.125 80.7888 33.0505 80.8805 32.9594C81.0088 32.8322 81.1164 32.7939 81.3458 32.7939H81.6443L81.6083 29.9798L80.9117 29.9608C80.1965 29.9413 80.0406 29.8899 80.0406 29.6738C80.0406 29.5585 79.9771 29.5494 79.1637 29.5494H78.2866L77.9658 29.2515C77.7278 29.0305 77.5912 28.9535 77.4374 28.9535C77.1433 28.9535 76.9752 29.0621 76.8654 29.323C76.7755 29.5367 76.7518 29.5494 76.4461 29.5494C76.1702 29.5494 76.0739 29.5114 75.7966 29.2923C75.3434 28.9344 74.6446 28.5649 74.0086 28.3467L73.4697 28.1619ZM41.5271 0.488257C41.5271 0.384765 41.5 4.36604e-05 42 4.36604e-05C42.5 4.36604e-05 42.2773 1.01796 41.8844 1.01796C41.718 1.01796 41.5271 0.734902 41.5271 0.488257ZM41.1491 4.92455C41.1918 4.92455 41.2158 4.31757 41.2158 3.23611C41.2158 2.15465 41.1918 1.54767 41.1491 1.54767C41.1063 1.54767 41.0823 2.15465 41.0823 3.23611C41.0823 4.31757 41.1063 4.92455 41.1491 4.92455ZM38.4807 12.7975V9.22196C38.4807 7.25543 38.4732 5.64929 38.464 5.65273C38.4548 5.65618 38.0421 5.7312 37.5467 5.81946C30.8026 7.02116 28.785 7.44599 26.858 8.06992C23.8033 9.05901 22.0197 10.2514 21.2314 11.8315C21.0663 12.1625 20.9248 12.5226 20.917 12.6317L20.9028 12.8301L22.6842 12.9653C23.6641 13.0397 24.4814 13.1161 24.5005 13.135C24.5766 13.2107 21.727 13.4128 19.9355 13.4589C18.4108 13.4981 17.9616 13.5307 17.6675 13.6236C17.2862 13.7439 16.5307 14.1045 16.3007 14.2759C16.1705 14.3729 16.1704 14.3771 16.2944 14.5131C16.3638 14.5893 16.5811 14.7269 16.7772 14.819L17.1337 14.9864V17.4466C17.1337 19.8066 17.128 19.9183 16.9943 20.1925C16.8105 20.5693 16.514 20.8022 15.8839 21.0649C15.2285 21.3381 15.0227 21.3618 11.1632 21.6091C6.14304 21.9307 5.07729 22.046 4.38351 22.3422C4.07918 22.4722 3.66679 22.8261 3.73776 22.8965C3.75771 22.9163 5.43478 23.0217 7.46462 23.1305C9.49445 23.2395 11.1644 23.3376 11.1756 23.3488C11.1868 23.3599 9.20733 23.4077 6.77678 23.455C3.45345 23.5197 2.30411 23.5626 2.14221 23.6279C2.02373 23.6757 1.8657 23.8133 1.79098 23.9339C1.65943 24.146 1.6557 24.237 1.67278 26.7797L1.69045 29.4065L1.85216 29.5773C1.94115 29.6712 2.03687 29.7481 2.06496 29.7481C2.09304 29.7481 2.12533 28.966 2.13667 28.01L2.15742 26.2719L2.3438 25.8951C2.58082 25.4161 3.13578 24.9068 3.6419 24.704L4.02528 24.5503H7.89442C11.6846 24.5503 11.7756 24.5534 12.3507 24.6989C14.7548 25.3072 16.4814 27.2347 16.7697 29.6322L16.8155 30.0129H26.8126L27.1401 29.6879V21.8959C27.1401 15.9493 27.1594 14.0394 27.2216 13.8315C27.3289 13.4731 27.8208 12.9849 28.1818 12.8784C28.3875 12.8178 29.7136 12.7975 33.4685 12.7975H38.4807ZM41.7494 28.8915V12.6651H40.1479L40.1818 28.8542L41.7494 28.8915ZM39.448 13.9915L38.9454 13.4927L33.7266 13.477L32.9993 13.4748C28.7854 13.4614 28.2694 13.4597 28.0561 13.7118C28.0263 13.7469 28.0025 13.787 27.9752 13.8327C27.9645 13.8507 27.9533 13.8696 27.941 13.8893C27.8091 14.1012 27.8072 14.2121 27.8072 21.6458C27.8072 28.8232 27.813 29.1983 27.9291 29.4129C27.9961 29.537 28.1533 29.693 28.2783 29.7595C28.4927 29.8737 28.7949 29.8805 33.6442 29.8805C38.4936 29.8805 38.7957 29.8737 39.0102 29.7595C39.1352 29.693 39.2927 29.5365 39.3601 29.4119C39.4774 29.1951 39.482 28.8539 39.4654 21.5884L39.448 13.9915ZM41.2319 20.9417C41.2225 17.2818 41.23 14.2476 41.2486 14.199C41.2673 14.1505 41.32 14.1231 41.3659 14.1383C41.4318 14.1601 41.4492 15.5693 41.4492 20.881C41.4492 26.8059 41.4374 27.5962 41.3492 27.5962C41.261 27.5962 41.247 26.805 41.2319 20.9417ZM17.8341 14.8351C17.9075 14.7358 18.0876 14.5943 18.2344 14.5206C18.492 14.3913 18.6207 14.3867 21.9726 14.3867C25.4405 14.3866 25.4444 14.3867 25.7402 14.5356C25.9156 14.6238 26.0913 14.779 26.1713 14.9163C26.304 15.1443 26.3065 15.2593 26.3241 22.0013L26.342 28.8544L26.1907 29.1484C26.1075 29.3101 25.9547 29.5037 25.8511 29.5786C25.6663 29.7124 25.5922 29.715 21.9767 29.715H18.2907L18.0479 29.5312C17.8962 29.4163 17.7781 29.2549 17.7331 29.1008C17.683 28.9294 17.6671 26.7458 17.6809 21.9349C17.7004 15.1359 17.703 15.0125 17.8341 14.8351ZM25.8078 15.3052L25.4159 14.9163H21.9842C18.6135 14.9163 18.5494 14.9188 18.3768 15.0536L18.201 15.1908V28.9484L18.3471 29.0834C18.4901 29.2157 18.5631 29.2184 21.9753 29.2184C25.3044 29.2184 25.4645 29.2128 25.615 29.0918L25.7725 28.9652L25.8078 15.3052ZM18.739 15.7028C18.7781 15.6303 18.8757 15.5447 18.9558 15.5127C19.036 15.4806 20.4163 15.4525 22.0231 15.4502L24.9447 15.446L25.2722 15.7711V19.6235L24.9408 19.9524L18.923 19.9154L18.7955 19.7591C18.6767 19.6134 18.668 19.4749 18.668 17.7186C18.668 16.5122 18.6935 15.7872 18.739 15.7028ZM15.4993 23.7227C14.4882 23.7227 14.4397 23.6594 15.1491 23.2658C15.6839 22.9691 15.7857 22.9496 16.0615 23.0912C16.2659 23.1961 16.3332 23.3129 16.3332 23.5626V23.7227H15.4993ZM23.015 23.5651C23.0018 23.4966 23.0315 23.4151 23.0809 23.384C23.183 23.3198 24.7383 23.3041 24.8998 23.3656C24.9579 23.3877 25.0054 23.4779 25.0054 23.566V23.7262L24.0223 23.7079C23.121 23.6911 23.0371 23.6792 23.015 23.5651ZM14.6654 24.451V24.0537H16.3332V24.451H14.6654ZM15.7811 25.3956C15.5523 25.3864 14.6654 24.9479 14.6654 24.8439C14.6654 24.8089 15.0277 24.7821 15.4993 24.7821C16.3276 24.7821 16.3332 24.7831 16.3332 24.9361C16.3332 25.1629 16.0411 25.406 15.7811 25.3956ZM16.1904 29.8474C16.0585 27.5984 14.4995 25.7258 12.3032 25.1784C11.8076 25.055 11.5465 25.047 8.00049 25.0476L4.22541 25.0483L3.88092 25.2074C3.45265 25.4054 3.06407 25.7846 2.85273 26.2108C2.69656 26.5257 2.69036 26.5941 2.66961 28.2257L2.64807 29.9147L3.058 30.2156V28.4568C3.058 26.5618 3.07367 26.4581 3.4311 25.9931C3.52396 25.8722 3.75571 25.6919 3.94603 25.5922L4.29212 25.4111H8.02784L8.2445 25.4111C11.2551 25.411 11.9366 25.411 12.542 25.6247C12.7191 25.6872 12.8897 25.768 13.1102 25.8725L13.1645 25.8982C14.7875 26.6661 15.7399 28.1784 15.8566 30.1729L15.8996 30.9068L26.524 30.9407L26.5877 30.6097L16.2331 30.5758L16.1904 29.8474ZM5.48708 26.3566C5.53732 26.2141 5.52497 26.1485 5.42798 26.0421C5.32945 25.9341 5.22278 25.9077 4.8837 25.9077C4.50972 25.9077 4.44982 25.9261 4.35483 26.07C4.22214 26.271 4.28185 26.4903 4.48277 26.5403C4.56443 26.5606 4.80952 26.5681 5.02739 26.557C5.39049 26.5385 5.42885 26.5217 5.48708 26.3566ZM5.01505 29.324C5.83991 28.6245 7.124 28.0432 8.16126 27.8995C11.2082 27.4775 14.1135 29.3554 14.9315 32.2757C15.5499 34.4835 14.9183 36.7565 13.2492 38.3302C12.0044 39.5039 10.4293 40.0782 8.69494 39.9909C6.04704 39.8577 3.91021 38.1425 3.11056 35.5086C2.94012 34.9472 2.87715 33.6353 2.98788 32.9539C3.20916 31.5925 3.99113 30.1922 5.01505 29.324ZM53.0389 29.9755C53.2691 29.7255 53.3603 29.5747 53.3451 29.4686C53.3082 29.2108 53.0521 29.2375 52.7785 29.5279C51.7071 30.6648 51.1531 31.9748 51.043 33.6307C51.0046 34.211 51.0091 34.2391 51.1537 34.3159C51.3985 34.4458 51.4713 34.2938 51.5511 33.486C51.6989 31.9917 52.1392 30.9526 53.0389 29.9755ZM79.4843 33.5541C79.3883 31.9981 78.8208 30.6615 77.7908 29.566C77.6452 29.4113 77.484 29.287 77.4325 29.2898C77.0932 29.3088 77.0841 29.5722 77.4121 29.8841C78.2926 30.7213 78.8879 32.1236 79.0064 33.6396C79.0464 34.1523 79.0759 34.265 79.1849 34.3229C79.2804 34.3736 79.3434 34.369 79.4203 34.3057C79.5084 34.2332 79.5187 34.1123 79.4843 33.5541ZM62.2607 32.9629C61.941 31.7446 60.9417 30.6931 59.7151 30.2843C59.2342 30.124 58.3441 30.0594 57.8431 30.1483C56.4066 30.4033 55.1626 31.5544 54.7904 32.9729C54.664 33.4546 54.6638 34.4411 54.7901 34.9122C55.1403 36.2184 56.3105 37.3486 57.6331 37.6581C59.6494 38.1298 61.736 36.8753 62.2607 34.8762C62.3914 34.3781 62.3914 33.4609 62.2607 32.9629ZM74.8416 31.2048C74.3743 30.7463 73.8318 30.4233 73.2384 30.2502C72.7051 30.0948 71.8832 30.0628 71.3732 30.1777C70.4018 30.3965 69.4316 31.0589 68.9182 31.8539C67.788 33.6037 68.2655 35.9372 69.9877 37.0805C70.6312 37.5077 71.1772 37.6919 71.9354 37.7377C73.0052 37.8023 73.9897 37.4468 74.7839 36.709C75.6028 35.9484 76.0045 35.0118 75.9944 33.8864C75.9847 32.8077 75.6268 31.975 74.8416 31.2048ZM2.56274 31.7179C2.97394 31.3439 2.92711 30.6721 2.46855 30.3653C2.23894 30.2116 0.67607 30.1472 0.539716 30.2858C0.452594 30.3743 0.417838 31.6242 0.496822 31.8284C0.530977 31.9167 0.677671 31.9331 1.43175 31.9331H2.32613L2.56274 31.7179ZM66.9174 31.0286C67.2832 30.6226 67.3267 30.5038 67.1672 30.3455C67.0395 30.2187 66.9492 30.2116 65.472 30.2116C64.0436 30.2116 63.8986 30.2221 63.7567 30.3363C63.5663 30.4892 63.6066 30.5871 64.0989 31.17C64.4516 31.5873 64.8806 32.273 65.0322 32.6615C65.1836 33.0494 65.3024 33.1912 65.4761 33.1912C65.6143 33.1912 65.6741 33.1147 65.8707 32.6866C66.1365 32.1077 66.5844 31.3982 66.9174 31.0286ZM10.9883 30.8685C10.8103 30.7552 10.4617 30.5935 10.2135 30.5093C8.88172 30.0572 7.46081 30.3903 6.46771 31.3873C5.74378 32.1141 5.39596 32.9459 5.39382 33.9553C5.39016 35.6829 6.74909 37.2454 8.48354 37.5077C10.1588 37.761 11.7819 36.8277 12.4431 35.2311C12.6555 34.7178 12.7297 33.7196 12.5986 33.1353C12.4089 32.2897 11.739 31.3467 10.9883 30.8685ZM29.675 36.3032V30.7413H29.1414V36.3032H29.675ZM36.0124 36.3032V30.7413H35.7901C35.6677 30.7413 35.5477 30.7612 35.5233 30.7855C35.4988 30.8097 35.4788 32.0611 35.4788 33.5664V36.3032H36.0124ZM28.6744 32.0655V30.8075H27.0067V36.1045H28.6744V32.3966H28.0144C27.3535 32.3966 27.2482 32.3589 27.3223 32.1483C27.3429 32.0896 27.5436 32.0655 28.0128 32.0655H28.6744ZM35.0118 32.0567V30.8075H30.2087V32.0636L32.1933 32.0811C34.1276 32.0982 34.1779 32.102 34.1779 32.2311C34.1779 32.3601 34.1276 32.364 32.1933 32.3811L30.2087 32.3986V36.1045H35.0118V32.4054L34.8283 32.3844C34.6964 32.3694 34.6449 32.3263 34.6449 32.2311C34.6449 32.1359 34.6964 32.0928 34.8283 32.0777L35.0118 32.0567ZM38.3473 32.0655V30.8075H36.5461V32.0655H38.3473ZM8.05166 35.0547C7.17456 34.3096 7.43953 32.9023 8.52816 32.5234C9.53888 32.1717 10.5324 32.8725 10.528 33.9339C10.5226 35.2294 9.04456 35.8984 8.05166 35.0547ZM38.3473 36.1045V32.3966H36.5461V36.1045H38.3473ZM57.5017 35.0257C56.6188 34.1932 57.009 32.7447 58.1933 32.4585C58.5006 32.3843 58.5751 32.3885 58.965 32.5027C60.0669 32.8253 60.3941 34.2317 59.552 35.0257C59.3017 35.2619 58.8574 35.4424 58.5268 35.4424C58.1963 35.4424 57.7519 35.2619 57.5017 35.0257ZM70.9813 34.8745C70.3048 34.0599 70.6914 32.8193 71.7246 32.489C72.6532 32.1923 73.6575 32.9383 73.6584 33.9255C73.6597 35.3367 71.887 35.9651 70.9813 34.8745ZM78.3526 33.4099C78.6416 33.3404 78.6625 33.2 78.4222 32.9429C78.3456 32.8609 78.2136 32.7939 78.1291 32.7939C77.9842 32.7939 77.9776 32.8122 78.0167 33.1084C78.0395 33.2814 78.0673 33.4337 78.0784 33.4469C78.0896 33.4601 78.213 33.4434 78.3526 33.4099ZM39.6228 33.3898L39.5814 32.8932L38.8142 32.8535V33.3898H39.6228ZM49.7546 33.2574C49.5613 33.2574 49.2876 33.0633 49.2876 32.9263C49.2876 32.8829 47.9089 32.8601 45.285 32.8601H41.2825V33.456L41.7661 33.4562C42.3286 33.4563 46.8782 33.5651 48.7039 33.622L49.9547 33.661V33.4592C49.9547 33.2791 49.9331 33.2574 49.7546 33.2574ZM52.5924 33.5055C52.5999 33.4965 52.6267 33.3476 52.6519 33.1746L52.698 32.8601H52.4319C52.2001 32.8601 52.1524 32.887 52.0609 33.0689C52.0032 33.1838 51.956 33.2853 51.956 33.2945C51.956 33.319 52.5766 33.5248 52.5924 33.5055ZM9.46076 34.7967C10.1866 34.4348 10.1765 33.3864 9.44402 33.0564C9.28885 32.9864 9.10186 32.9292 9.02848 32.9292C8.77199 32.9292 8.34965 33.1739 8.20496 33.4064C7.68883 34.2352 8.5888 35.2315 9.46076 34.7967ZM58.9591 34.7967C59.6843 34.4351 59.6689 33.3839 58.9334 33.0524C58.5896 32.8974 58.4627 32.898 58.1113 33.0564C57.7529 33.2178 57.5602 33.5219 57.5598 33.9263C57.5592 34.6547 58.3088 35.121 58.9591 34.7967ZM73.1285 33.9313C73.1285 33.5842 72.9696 33.2933 72.6756 33.1021C72.268 32.837 71.7484 32.9267 71.4151 33.32C71.1103 33.6795 71.0906 34.1282 71.363 34.5079C71.9014 35.2584 73.1285 34.8577 73.1285 33.9313Z" fill="#0B225C"/>
<path d="M67.6061 27.1761V27.8397L69.0287 27.9179V27.1761H67.6061Z" fill="#0B225C"/>
<path d="M63.1402 27.1761V27.8279L64.2643 27.8369V27.1761H63.1402Z" fill="#0B225C"/>
<path fill-rule="evenodd" clip-rule="evenodd" d="M47.4541 27.0863L48.6772 27.0584L78.4356 27.2114L84.7387 29.1761L84.7531 31.9097L84.7387 34.5878H84.9767V35.2937H84.5136V35.7643H86.0661V35.2937H85.6607V34.5878H85.8987V29.1761L89.861 29.2196H92.7341V29.7838L90.7442 29.7536H88.6633V35.6697L114.191 35.7549L114.118 29.8204L111.789 29.7838V29.1761L117.686 29.2196H125.912L125.584 30.0462C125.131 31.1898 124.751 33.2909 124.696 34.9603L124.649 36.3621L125.918 36.4288C127.005 36.4861 127.208 36.5336 127.335 36.7621C128.96 39.6653 132.524 40.8114 135.363 39.3436C136.281 38.8689 137.414 37.7999 137.84 37.0076L138.15 36.4288H141.125L141.562 37.151C142.043 37.9456 143.135 38.9865 143.882 39.3611C144.145 39.4936 144.839 39.7066 145.423 39.8347C146.331 40.0335 146.626 40.0445 147.449 39.9108C149.28 39.6128 150.633 38.7576 151.618 37.2763L152.182 36.4288H154.014V37.5473C154.014 38.7461 154.207 39.179 154.556 38.7636C154.688 38.6062 154.71 38.0074 154.65 36.192C154.563 33.577 154.31 31.7058 153.878 30.4879C153.722 30.0473 153.401 29.1061 153.401 29.1061H162.987H172.916V32.3632H174V28.0415L172.916 26.9087H127.747L125.584 28.0415H85.8987L79.4203 25.882H46.2532V27.0863H47.4541ZM152.968 29.9206C152.611 29.1735 151.909 28.4076 151.247 28.0415C150.878 27.8378 149.855 27.8158 139.838 27.795C133.546 27.7819 128.656 27.8241 128.416 27.8935C127.814 28.0688 126.859 28.9512 126.431 29.7296C125.941 30.6187 125.599 32.0064 125.392 33.9354C125.263 35.1396 125.26 35.5508 125.38 35.6697C125.628 35.915 125.748 35.6016 125.924 34.243C126.399 30.5788 127.459 28.4234 128.925 28.1402C129.247 28.0781 134.188 28.0278 139.906 28.0282C140.544 28.0282 141.146 28.0281 141.714 28.028C149.737 28.026 150.94 28.0258 151.481 28.6171C151.576 28.7213 151.651 28.8439 151.739 28.9881C151.774 29.046 151.811 29.1074 151.853 29.1725C152.576 30.3003 153.176 32.3109 153.401 34.3595C153.532 35.5611 153.594 35.7613 153.832 35.7613C154.024 35.7613 154.038 35.6 153.956 34.3929C153.844 32.7631 153.43 30.8888 152.968 29.9206ZM94.2715 29.7214C100.219 29.6913 107.871 29.7536 107.871 29.7536V29.2196C101.127 29.1854 94.2715 29.2196 94.2715 29.2196V29.7214ZM135.923 34.1667C135.923 32.7577 135.03 31.4468 133.785 31.0274C131.76 30.3452 129.698 31.5942 129.369 33.7015C129.183 34.8902 129.917 36.2658 131.072 36.8942C133.238 38.0725 135.923 36.5629 135.923 34.1667ZM149.589 32.6049C149.202 31.8679 148.329 31.1503 147.601 30.969C145.978 30.5648 144.468 31.2007 143.719 32.6049C143.264 33.4573 143.296 34.8256 143.79 35.6566C145.097 37.8547 148.132 37.8838 149.484 35.711C149.836 35.1445 149.888 34.9364 149.885 34.1089C149.881 33.4016 149.806 33.0163 149.589 32.6049ZM94.233 32.9659L94.2715 34.493H108.043V31.1554L101.316 31.2048H94.233C94.233 31.2048 94.2119 32.126 94.233 32.9659ZM109.265 31.1208V34.5436L112.808 34.5878L112.768 31.1554L109.265 31.1208ZM92.9214 34.493V31.2048H90.0186V34.5688L92.9214 34.493Z" fill="#0B225C"/>
<path fill-rule="evenodd" clip-rule="evenodd" d="M132.236 32.489C131.202 32.8192 130.816 34.0599 131.492 34.8745C132.398 35.9651 134.171 35.3367 134.169 33.9255C134.168 32.9383 133.164 32.1923 132.236 32.489ZM133.64 33.9313C133.64 33.5842 133.481 33.2933 133.187 33.1021C132.779 32.837 132.259 32.9267 131.926 33.32C131.621 33.6795 131.602 34.1281 131.874 34.5079C132.412 35.2584 133.64 34.8577 133.64 33.9313Z" fill="#0B225C"/>
<path fill-rule="evenodd" clip-rule="evenodd" d="M147.683 33.9313C147.683 33.5842 147.524 33.2933 147.23 33.1021C146.823 32.837 146.303 32.9267 145.97 33.32C145.665 33.6795 145.645 34.1281 145.918 34.5079C146.456 35.2584 147.683 34.8577 147.683 33.9313ZM145.536 34.8745C144.86 34.0599 145.246 32.8192 146.279 32.489C147.208 32.1923 148.212 32.9383 148.213 33.9255C148.215 35.3367 146.442 35.9651 145.536 34.8745Z" fill="#0B225C"/>
</svg>
