<svg width="36" height="40" viewBox="0 0 36 40" fill="none" xmlns="http://www.w3.org/2000/svg">
<path d="M35.5392 35.2854L29.6643 25.1097C29.8753 24.8638 30.162 24.682 30.4967 24.6031C31.4222 24.385 32.1896 23.7686 32.6021 22.912C33.0146 22.0554 33.018 21.0711 32.6115 20.2117C32.3003 19.5539 32.4781 18.7748 33.0439 18.3172C33.7831 17.7191 34.2071 16.8309 34.2071 15.8801C34.2071 14.9294 33.7831 14.0411 33.0439 13.4431C32.4781 12.9855 32.3003 12.2063 32.6115 11.5486C33.0181 10.689 33.0146 9.70478 32.6021 8.84817C32.1896 7.99156 31.4222 7.37517 30.4966 7.15713C29.7884 6.99026 29.2901 6.36551 29.285 5.6378C29.2785 4.68705 28.8483 3.80176 28.1049 3.20897C27.3616 2.61618 26.4026 2.39376 25.4744 2.59891C24.7637 2.75578 24.0438 2.40915 23.7235 1.75573C23.305 0.902012 22.5334 0.291015 21.6064 0.0794591C20.6793 -0.132175 19.719 0.0835996 18.9715 0.671159C18.3995 1.12091 17.6004 1.12091 17.0283 0.671159C16.2808 0.0835996 15.3206 -0.132019 14.3936 0.0794591C13.4666 0.291015 12.6949 0.902012 12.2764 1.75573C11.9561 2.40915 11.2359 2.75602 10.5256 2.59891C9.59722 2.39392 8.63835 2.61618 7.89509 3.20897C7.15175 3.80176 6.72161 4.68705 6.71497 5.6378C6.70989 6.36543 6.21163 6.99026 5.50329 7.15713C4.57785 7.37517 3.81045 7.99156 3.39796 8.84817C2.9854 9.70478 2.98204 10.689 3.38851 11.5485C3.69967 12.2063 3.52187 12.9854 2.9561 13.443C2.21691 14.0411 1.79294 14.9293 1.79294 15.8801C1.79294 16.8308 2.21691 17.7191 2.9561 18.3171C3.52187 18.7747 3.69967 19.5539 3.38851 20.2116C2.98196 21.0711 2.9854 22.0554 3.39796 22.912C3.81045 23.7686 4.57785 24.385 5.50337 24.6031C5.83804 24.6819 6.12483 24.8638 6.33584 25.1097L0.460946 35.2854C0.302747 35.5594 0.325481 35.9019 0.518444 36.1525C0.711485 36.4032 1.03663 36.5127 1.34201 36.43L5.43384 35.3198L6.51841 39.4185C6.59935 39.7245 6.85684 39.9513 7.1705 39.9931C7.20511 39.9977 7.23964 39.9999 7.27394 39.9999C7.55026 39.9999 7.80947 39.8531 7.95024 39.6093L12.9632 30.9267C13.3602 31.2942 13.8498 31.5567 14.3937 31.6808C15.3206 31.8922 16.281 31.6767 17.0286 31.0891C17.6006 30.6394 18.3997 30.6394 18.9718 31.0891C19.5311 31.5288 20.2095 31.7603 20.9041 31.7603C21.1377 31.7603 21.3733 31.7341 21.6065 31.6808C22.1504 31.5567 22.6401 31.2942 23.037 30.9267L28.05 39.6093C28.1908 39.8531 28.45 39.9999 28.7263 39.9999C28.7605 39.9999 28.7951 39.9977 28.8297 39.9931C29.1434 39.9513 29.4009 39.7244 29.4818 39.4185L30.5664 35.3198L34.6582 36.43C34.9636 36.5129 35.2888 36.4032 35.4818 36.1525C35.6748 35.9019 35.6975 35.5594 35.5392 35.2854ZM7.54432 37.1875L6.74325 34.1603C6.68997 33.9592 6.5588 33.7875 6.37865 33.6836C6.19842 33.5795 5.98429 33.5517 5.78351 33.6061L2.76126 34.426L6.9216 27.2202C7.11847 27.7361 7.45018 28.1963 7.89524 28.5513C8.63858 29.1441 9.59754 29.3665 10.5258 29.1614C11.0501 29.0456 11.579 29.2046 11.9493 29.5581L7.54432 37.1875ZM21.2588 30.1576C20.7937 30.2636 20.3122 30.1555 19.9374 29.8609C19.367 29.4124 18.6837 29.1883 18.0001 29.1883C17.3167 29.1883 16.633 29.4125 16.0628 29.8609C15.688 30.1556 15.2065 30.2638 14.7414 30.1576C14.2765 30.0515 13.8894 29.745 13.6795 29.3168C13.0409 28.0141 11.6053 27.3227 10.1887 27.6357C9.723 27.7386 9.24216 27.627 8.86935 27.3297C8.49655 27.0324 8.28078 26.5884 8.27742 26.1115C8.26734 24.6607 7.27394 23.4151 5.86171 23.0823C5.39751 22.973 5.01268 22.6638 4.80573 22.2342C4.59886 21.8045 4.59714 21.3109 4.80104 20.8797C5.42134 19.5682 5.06682 18.0149 3.93881 17.1024C3.56804 16.8025 3.35546 16.357 3.35546 15.8801C3.35546 15.4033 3.56811 14.9577 3.93888 14.6578C5.06682 13.7454 5.42142 12.192 4.80104 10.8804C4.59714 10.4494 4.59886 9.95571 4.80581 9.52612C5.01268 9.09644 5.39759 8.78731 5.86171 8.67794C7.27394 8.34522 8.26734 7.09955 8.27742 5.64874C8.28078 5.17188 8.49648 4.72783 8.86935 4.43057C9.24216 4.13324 9.72292 4.0216 10.1888 4.12457C11.6052 4.43729 13.0409 3.74622 13.6795 2.44345C13.8894 2.01526 14.2765 1.70878 14.7414 1.60269C15.2064 1.49668 15.688 1.60472 16.0628 1.8994C17.2035 2.79617 18.7967 2.79617 19.9374 1.8994C20.3123 1.60472 20.7937 1.49668 21.2588 1.60269C21.7237 1.70878 22.1107 2.01526 22.3207 2.44345C22.9592 3.74622 24.3948 4.43729 25.8115 4.12457C26.277 4.02152 26.758 4.13324 27.1308 4.43057C27.5036 4.72791 27.7194 5.17188 27.7227 5.64874C27.7328 7.09955 28.7262 8.34522 30.1385 8.67794C30.6027 8.78731 30.9875 9.09644 31.1944 9.52612C31.4013 9.95579 31.403 10.4494 31.1991 10.8805C30.5788 12.192 30.9334 13.7454 32.0614 14.6578C32.4321 14.9577 32.6447 15.4033 32.6447 15.8801C32.6447 16.357 32.4321 16.8025 32.0613 17.1024C30.9334 18.0149 30.5788 19.5682 31.1991 20.8798C31.403 21.3109 31.4013 21.8046 31.1944 22.2342C30.9875 22.6638 30.6026 22.973 30.1385 23.0823C28.7262 23.4151 27.7328 24.6607 27.7227 26.1115C27.7194 26.5884 27.5037 27.0324 27.1308 27.3297C26.758 27.627 26.2772 27.7385 25.8114 27.6357C24.3948 27.3227 22.9592 28.0141 22.3207 29.3168C22.1107 29.745 21.7237 30.0514 21.2588 30.1576ZM30.2167 33.6061C30.0158 33.5517 29.8017 33.5796 29.6215 33.6836C29.4414 33.7876 29.3101 33.9592 29.2569 34.1603L28.4559 37.1875L24.051 29.5581C24.4213 29.2046 24.9503 29.0454 25.4744 29.1614C26.4029 29.3664 27.3616 29.1441 28.1049 28.5513C28.55 28.1964 28.8817 27.7361 29.0786 27.2202L33.2389 34.426L30.2167 33.6061Z" fill="#0B225C"/>
<path d="M28.8743 15.9372C28.8743 9.90641 23.9679 5 17.9372 5C11.9064 5 7 9.90641 7 15.9372C7 20.5251 9.89655 24.6581 14.2077 26.2218C14.6133 26.3688 15.0614 26.1593 15.2086 25.7537C15.3557 25.3481 15.1462 24.9001 14.7405 24.7529C11.0453 23.4127 8.56253 19.8699 8.56253 15.9372C8.56253 10.7679 12.768 6.56245 17.9372 6.56245C23.1065 6.56245 27.3119 10.7679 27.3119 15.9372C27.3119 19.8702 24.829 23.413 21.1335 24.7531C20.7279 24.9002 20.5183 25.3483 20.6654 25.7539C20.7806 26.0715 21.0803 26.269 21.3998 26.269C21.4882 26.269 21.5781 26.2539 21.6661 26.222C25.9775 24.6585 28.8743 20.5254 28.8743 15.9372Z" fill="#0B225C"/>
<path d="M18 25.2547C17.7946 25.2547 17.593 25.3383 17.4477 25.4836C17.3024 25.6289 17.2188 25.8305 17.2188 26.0359C17.2188 26.2414 17.3024 26.443 17.4477 26.5883C17.593 26.7336 17.7946 26.8172 18 26.8172C18.2055 26.8172 18.4071 26.7336 18.5524 26.5883C18.6977 26.443 18.7813 26.2414 18.7813 26.0359C18.7813 25.8305 18.6977 25.6289 18.5524 25.4836C18.4071 25.3383 18.2055 25.2547 18 25.2547Z" fill="#0B225C"/>
<path d="M15.5691 12.1418V20.4145H13.6545V13.6782H12V12.1418H15.5691Z" fill="#0B225C"/>
<path d="M20.6107 20.5564C19.9253 20.5564 19.3147 20.387 18.7789 20.0482C18.2432 19.7094 17.8217 19.2209 17.5144 18.5827C17.215 17.9367 17.0653 17.1685 17.0653 16.2782C17.0653 15.3879 17.215 14.6236 17.5144 13.9855C17.8217 13.3394 18.2432 12.847 18.7789 12.5082C19.3147 12.1694 19.9253 12 20.6107 12C21.2962 12 21.9068 12.1694 22.4426 12.5082C22.9783 12.847 23.3959 13.3394 23.6953 13.9855C24.0026 14.6236 24.1562 15.3879 24.1562 16.2782C24.1562 17.1685 24.0026 17.9367 23.6953 18.5827C23.3959 19.2209 22.9783 19.7094 22.4426 20.0482C21.9068 20.387 21.2962 20.5564 20.6107 20.5564ZM20.6107 18.9373C21.115 18.9373 21.5089 18.7206 21.7926 18.2873C22.0841 17.8539 22.2298 17.1842 22.2298 16.2782C22.2298 15.3721 22.0841 14.7024 21.7926 14.2691C21.5089 13.8358 21.115 13.6191 20.6107 13.6191C20.1144 13.6191 19.7204 13.8358 19.4289 14.2691C19.1453 14.7024 19.0035 15.3721 19.0035 16.2782C19.0035 17.1842 19.1453 17.8539 19.4289 18.2873C19.7204 18.7206 20.1144 18.9373 20.6107 18.9373Z" fill="#0B225C"/>
</svg>
